<svg xmlns="http://www.w3.org/2000/svg" width="156.72" height="194.277" viewBox="0 0 156.72 194.277">
  <g id="Group_6455" data-name="Group 6455" transform="translate(-349.979 -623.533)">
    <path id="Path_5976" data-name="Path 5976" d="M2884.838,2643.55c-2.1-5.377,1.576-8.582,4.242-11.732,1.686-1.922,3.093-3.467,4.286-4.79,2.267-2.644,4.66-5.668,5.043-7.071.269-.987.512-2.3.748-3.715.013-.32.021-.646.021-1a21.961,21.961,0,0,1,2.78-11.135c2.119-6.471,5.83-17.051,7.672-21.1,2.5-5.489,11.509-19.621,14.267-22.527h0s.115-.132.327-.345c2.769-2.923,6.98-7.277,11.78-5.356,4.228,1.691,9.982,9.731,14.722,13.225,4.138,3.049,5.528,6.895,8.634,9.65,1.556.332,3.3-.164,4.7-2.847,3.376-6.461,20.791-30.621,20.791-30.621s37.874-65.85,38.814-67.187c-7.1-2.66-15.833-5.666-18.317-5.829-4.209-.272-20.782-2.249-28.086-1.688s-48.866-7.3-55.612-9.27c-6.728-1.962-9.827-.549-9.827-.549-1.124,6.169-9.83,8.418-10.673,8.69a152.346,152.346,0,0,1-16.568,1.692c-3.935,0-5.334,1.964-1.683,8.712s15.167,13.2,23.036,17.69c4.4,2.512,5.546,5.645,5.6,7.625.051,1.549-.589,2.385-.83,1.643-.563-1.692-10.945-3.655-10.945-3.655-1.131,6.187-2.814,4.5-9,2.537-6.176-1.977-8.418,3.356-8.418,3.356-5.294,6.9-8.836,11.827-11.255,15.382,2.066,1.988,4.236,4.716,4.236,7.362,0,5.06-.847,14.047,2.242,16.575s5.05,7.876,3.941,10.4c-1.13,2.523-5.064,9.265-1.979,13.48,3.088,4.2,7.029,5.331,5.9,9.55s-7.866,13.767-8.427,25.834-1.965,14.33-1.965,14.33-2.807,19.938,1.4,23.872c2.754,2.569,7.442,4.057,14.121,4.856C2887.915,2647.892,2885.769,2645.933,2884.838,2643.55Z" transform="translate(-2519.151 -1834.047)" fill="#b2ebf4" stroke="#f7f7f4" stroke-miterlimit="10" stroke-width="3"/>
    <g id="Group_5763" data-name="Group 5763" transform="translate(-109 -108.375)">
      <rect id="Rectangle_1531" data-name="Rectangle 1531" width="30" height="31.5" transform="translate(517 772)"/>
      <text id="P" transform="translate(532 794.75)" fill="#fff" font-size="24" font-family="FuturaPT-MediumObl, Futura PT" font-weight="500" font-style="oblique" letter-spacing="0.1em"><tspan x="-6" y="0">E</tspan></text>
    </g>
  </g>
</svg>
