<svg xmlns="http://www.w3.org/2000/svg" xmlns:xlink="http://www.w3.org/1999/xlink" width="340.933" height="295.6" viewBox="0 0 340.933 295.6">
  <defs>
    <clipPath id="clip-path">
      <rect x="-1" y="99" width="340.933" height="295.6" fill="none"/>
    </clipPath>
  </defs>
  <g id="Scroll_Group_1" data-name="Scroll Group 1" transform="translate(1 -99)" clip-path="url(#clip-path)" style="isolation: isolate">
    <g id="Group_6457" data-name="Group 6457" transform="translate(-439.516 -339.196)">
      <path id="Path_5979" data-name="Path 5979" d="M3313.238,2446.276c-7.117-10.674-13.965-16.15-15.884-33.4,0,0,5.75-5.476-9.587-11.776,0,0-3.937,1.356-7.763-2.7-6.75.522-14.277,1.052-16.316,1.052-3.838,0-16.43,3.283-18.618,3.283a111.812,111.812,0,0,1-19.163-3.813c-4.651-1.656-23.544.271-27.1.53-3.564.28-6.03,3.015-12.6-1.084a8.87,8.87,0,0,0-4.762-1.226c-5.342-20.989-31.634-26.522-34.383-27.525-3.01-1.09-6.568-4.384-6.568-7.933s-.554-4.1-5.75-3.558c-2.389.249-3.969.845-5.514.4,3.963-9.066,10.585-17.57,14.482-22.129,1.85-2.169,3.076-3.447,3.076-3.447,4.38-6.023,20.8-7.126,20.8-7.126a113.146,113.146,0,0,0,15.058-2.475c6.3-1.631,10.132-5.469,12.321-6.026,2.188-.539,5.2-6,5.2-8.465,0-.809.012-1.612-.048-2.348,7.747-3.383,21.511-6.285,37.1,4.61a6.317,6.317,0,0,1,1.542-2.549s10.955-7.665,7.664-18.061c0,0-4.1-18.612-11.219-18.073,0,0-19.434,2.471-26.277-10.118s1.367-10.411-6.306-15.889c-5.667-4.046-7.432-4.96-6.3-7.814a26.2,26.2,0,0,1,2.2-3.953c4.094-6.571,6.836-5.2,6.836-1.64s-1.364,5.2,5.195,9.3c6.578,4.1,7.12,5.207,11.229,1.093s5.742-7.116,11.222-6.291,10.681,4.106,6.3-4.106-10.4-17.526-6.3-21.625,7.664-6.839,6.575-10.675.548-6.03-3.838-5.75c-4.371.27-10.668,3-17.517-26.831,0,0-3.358-22.8-1.985-27.493l-6.769-1.517c-1.531-1.541-7.249-2.082-12.49-2.245-5.068-.15-9.693.048-9.693.048s-13.965-1.921-15.593-2.192c-1.657-.271-11.226-1.924-15.338-2.192s-6.292-5.753-6.84-7.931c-.547-2.194-3.007-1.65-6.848-1.65-3.822,0-5.205-1.911-5.205-1.911s-1.089-7.385-4.654.551-4.1,2.188-4.1,2.188c1.643-7.12-1.918-3.825-1.918-3.825a11.382,11.382,0,0,0-1.587,1.385c-1.66,1.612-3.976,3.978-7.174,5.173-4.377,1.654-21.352,11.5-24.633,10.675s-8.5-4.1-9.031,1.1-5.75-4.651-6.024-5.486c-.277-.818-1.647-3.823-7.667-8.47s-6.578,3.558-12.6,0c-3.249-1.923-4.966-2.36-6.434-1.417-1.265.806-2.329,2.609-3.969,5.524-3.562,6.288-3.836.541-3.836-5.486s-7.67-1.641-7.67-1.641l-13.4,3.581a7.506,7.506,0,0,1-.28,3.546c-1.641,4.928-10.958,15.6-6.842,24.086,0,0-.548,9.854-10.133,17.789s-11.216,10.136-11.216,11.78-7.125,20.788-7.671,22.167c-.545,1.361-12.044,30.115-7.661,41.341,0,0,6.023,23.814,8.206,26s3.564,3.839,3.013,11.5c-.21,2.866-.143,5.654-.481,8.536,7.384-.7,17.131-1.045,18.889,1.714a1.992,1.992,0,0,1,.208.43s-.278,12.58-.278,14.5-7.113,6.845,1.093,7.117c0,0,6.307-.271,5.482,7.122,0,0-3.013,2.469,5.473,11.766a28.406,28.406,0,0,1,3.561,10.956c.313,3.447,1.351,4.389,2.743,5.215a12.344,12.344,0,0,1,3.548,2.711c3.01,3.571,3.561,4.122,3.561,10.143a116.422,116.422,0,0,0,.36,12.008c.545,5.759,1.934,11.786,5.39,15.093,6.3,6.02,4.648,10.668,4.648,12.862,0,1.372-1.156,8.571-1.563,15.2a5.613,5.613,0,0,1,1.411-.692c4.813-1.451,21.745,4.8,30.479,7.542s33.406-5.486,35.153-.245,15.873,13.887,13.627,20.875,8.522-3.3,11.018,3.19,16.5,7.079,21.744,7.827c1.726.246.31,3.049-2.355,6.688,6.623,2.842,15.431,6.53,15.431,6.53a4.317,4.317,0,0,0,.614.325,9.39,9.39,0,0,0,2.017-.983c3.447-2.151,5.549-3.949,9.885-2.758,7.388-.632,14.131,5.714,14.131,5.714a2.018,2.018,0,0,0,.859.331,13.828,13.828,0,0,0,4.418-2.195c4.9-3.336,4.752-5.389,7.2-4.272,3.02-2.52,5.349-4.813,5.349-4.813,3.908-.225,12.981,5.92,18.265,9.133s3.914,12.394,3.914,12.394c-1.595,14.207-1.957,17.613-1.957,17.613a19.805,19.805,0,0,1,8.481,1.957c-.512,1.729-1.632,4.939-2.86,8.055a7.251,7.251,0,0,0,1.562-.646c2.472-1.363,12.885-6.018,15.615-4.109s6.845,1.643,8.219,2.746c1.364,1.086,4.1,5.2,7.106-3.016s4.106-13.141,10.126-17.8,8.764-13.139,20.263-12.591,7.109-1.927,8.208-4.655S3320.347,2456.947,3313.238,2446.276Z" transform="translate(-2536.971 -1777.175)" fill="#b2ebf4" stroke="#f7f7f4" stroke-miterlimit="10" stroke-width="3"/>
      <g id="Group_5767" data-name="Group 5767" transform="translate(41 -285.5)">
        <rect id="Rectangle_1531" data-name="Rectangle 1531" width="30" height="31.5" transform="translate(517 772)"/>
        <text id="P" transform="translate(532 794.75)" fill="#fff" font-size="24" font-family="FuturaPT-MediumObl, Futura PT" font-weight="500" font-style="oblique" letter-spacing="0.1em"><tspan x="-5.4" y="0">F</tspan></text>
      </g>
    </g>
  </g>
</svg>
