<svg xmlns="http://www.w3.org/2000/svg" width="54.289" height="121.971" viewBox="0 0 54.289 121.971">
  <g id="Group_6453" data-name="Group 6453" transform="translate(-441.724 -662.696)">
    <path id="Path_5978" data-name="Path 5978" d="M3014.707,2619.29s7.677-6.88,12.4-11.133c.692-.677,1.383-1.343,2.055-1.989,3.208-3.526,3.683-6.026,1.131-11.739s-2.572-7.462-3.133-13.694-6.33-9.17-6.886-14.9-2.381-13.451.054-19.465,4.59-15.019,6.015-22.27.689-7.412,1.77-12.491c.2-.956,1.033-4.917.925-5.024-7.565,5.172-12.639,21.358-22.222,36.177s-21.649,35.985-24.33,40.187c-2.786,4.366-2.637,8,1.881,10.7s6.289,4.927,7.595,10.654,5.511,2.191,9.271,3.9,3.15,15.44,7.4,16.645a7.192,7.192,0,0,0,4.96-.412C3012.606,2622.959,3014.707,2619.29,3014.707,2619.29Z" transform="translate(-2537.41 -1841.947)" fill="#b2ebf4" stroke="#f7f7f4" stroke-miterlimit="10" stroke-width="3"/>
    <g id="Group_5762" data-name="Group 5762" transform="translate(-64 -48.5)">
      <rect id="Rectangle_1531" data-name="Rectangle 1531" width="30" height="31.5" transform="translate(517 772)"/>
      <text id="P" transform="translate(532 794.75)" fill="#fff" font-size="24" font-family="FuturaPT-MediumObl, Futura PT" font-weight="500" font-style="oblique" letter-spacing="0.1em"><tspan x="-7.464" y="0">C</tspan></text>
    </g>
  </g>
</svg>
