<svg xmlns="http://www.w3.org/2000/svg" width="254.426" height="245.819" viewBox="0 0 254.426 245.819">
  <g id="Group_6453" data-name="Group 6453" transform="translate(-452.924 -682.877)">
    <path id="Path_5980" data-name="Path 5980" d="M3242.595,2579.43c.112-.284.222-.569.332-.854.047-.125.1-.25.144-.374.1-.257.194-.511.29-.766.059-.157.118-.315.177-.472.087-.236.172-.468.257-.7.063-.172.125-.343.186-.511l.223-.622c.066-.184.129-.364.191-.542s.128-.366.189-.542c.067-.192.13-.377.191-.56.05-.147.1-.3.147-.438.069-.207.131-.4.193-.59.033-.1.07-.213.1-.311.089-.28.17-.542.238-.772a19.807,19.807,0,0,0-8.48-1.957s.362-3.406,1.957-17.613c0,0,1.371-9.175-3.914-12.394s-14.356-9.358-18.265-9.133c0,0-.034.034-.083.08l-.037.036c-.065.064-.156.151-.275.265l-.041.04c-.125.12-.272.259-.446.423l-.019.018c-.174.163-.373.35-.589.549l-.1.09c-.225.208-.467.429-.729.668l-.044.041c-.266.24-.549.494-.846.759l-.047.041c-.3.262-.608.534-.931.813l-.138.119c-.331.284-.669.573-1.021.867l-.007.005h0c-4.363,3.642-10.169,7.762-12.479,6.135,0,0-6.742-6.345-14.131-5.714-4.335-1.19-6.438.608-9.884,2.759a9.335,9.335,0,0,1-2.017.983,4.274,4.274,0,0,1-.613-.325s-8.809-3.687-15.432-6.53h0c-5.426,7.41-16.975,20.9-18.8,24.548-.4.812-.8,1.579-1.178,2.309-2.271,4.381-4,7.393-4.447,10.089a8.1,8.1,0,0,0-.114,1.327,3.054,3.054,0,0,1-.3,1.286,6.129,6.129,0,0,1-1.4,1.835,13.661,13.661,0,0,1-1.417,1.156c-.521.376-1.087.743-1.68,1.1s-1.21.7-1.837,1.039c-.941.5-1.9.985-2.822,1.441-.615.3-1.211.6-1.773.877a13.275,13.275,0,0,0-4.382,3.79c-.11.114-.221.223-.336.323a3.764,3.764,0,0,1-3.017.877,4.71,4.71,0,0,1-1.3-.307c-3.869-1.409-8.847-7.221-12.425-5.432-3.992,2-5.24,3.742-2,8.484a45.232,45.232,0,0,1,3.452,6.018c.34.716.657,1.437.946,2.154a19.4,19.4,0,0,1,1.642,6.972,7.8,7.8,0,0,1-.051.826c-.281,2.386-1.824,4.693-3.566,7.5q-.29.467-.586.954c-.323.533-.647,1.09-.969,1.663q-.26.466-.517.953-.539,1.021-1.037,2.141c-.244.552-.478,1.121-.7,1.714-.038.1-.077.195-.114.3-.864,2.417-1.636,4.173-2.382,5.771-.871,1.868-1.706,3.52-2.6,5.738-.138.343-.277.7-.419,1.073-.426,1.12-.866,2.389-1.335,3.887-2.183,6.986-4.749,7.86-8.532,11.646-.54.541-1.106,1.142-1.7,1.828-1.047,1.212-1.866,2.135-2.552,2.913-.286.324-.556.631-.8.91-.165.191-.321.374-.471.55a24.832,24.832,0,0,0-3.156,4.712c-.3.552-.634,1.177-1.009,1.894-.207.4-.406.762-.6,1.11-.063.115-.124.217-.187.326-.129.224-.256.443-.379.648-.069.115-.136.223-.2.332-.112.181-.221.354-.329.519-.064.1-.127.2-.19.288-.11.165-.215.317-.32.463-.05.071-.1.145-.15.212-.132.179-.257.344-.378.5l-.05.066a11.188,11.188,0,0,1-.779.884l-.02.019c-.11.111-.213.208-.307.293h0c.414,1.944-.011,3.609-1.1,6.32a7.378,7.378,0,0,1-1.763,2.588l.007,0c-21.77,6.373-12.971,9.368-12.971,9.368,10.1,13.324,4.588,10.344,4.588,10.344-11.02-3-15.847.908-15.847.908-14.474,4.144-11.255,10.569-11.255,10.569-.928,6.893-11.716,21.134-11.716,21.134-8.271,6.666-14.7,5.513-14.7,5.513-2.579.222-4.883.313-6.961.3,3.8,5.964,9.232,14.494,10.4,16.242a57.462,57.462,0,0,1,5.749,11.259s4.363,9.644,17.689,6.886c0,0,2.3-.232,5.964-.921s3.683-1.376,4.6-3.446,1.144-6.885,5.739-6.2c0,0,4.131-1.375,10.791,1.383,0,0,.924,2.98,8.043,3.448a17.905,17.905,0,0,0,11.719,4.818c7.356.235,6.428,0,14.241,4.833,0,0,5.046,5.5,19.3,1.143.656-.206,1.235-.378,1.791-.548l14.742-4.281s10.553-1.121,15.774-5.36a61.755,61.755,0,0,1-10.265-6.582c-5.278-4.133-4.585-14.47-4.585-14.47-1.385-7.578,3.442-14.239,5.97-15.621s3.664-5.516,4.817-.686,1.383,3.895,3.445,2.755,13.327-13.1,13.327-13.1c7.127-4.595,7.352-13.323,9.2-22.285a40.691,40.691,0,0,0,.225-15.849c1.147-1.8-5.878-1.968-10.006-1.915,2.3-7.053,5.7-18.719,5.359-25.6,0,0,5.677-13.431,18.6-6.719a54.647,54.647,0,0,0,10.742,2.457c.6-5.794,3.095-7.738,3.095-7.738,3.672-1.151,2.3-7.127,2.3-7.127-3.218-13.318,3.448-10.791,12.638-11.249s9.647-7.575,12.163-11.948c2.534-4.359,1.4-5.739,4.609-5.739s3.664-.229,6.654-6.2,4.6-4.134,8.043-5.984c.886-.471,2.607-4.258,4.156-8.193Z" transform="translate(-2539.898 -1845.898)" fill="#66d8ea" stroke="#f7f7f4" stroke-miterlimit="10" stroke-width="3"/>
    <g id="Group_5760" data-name="Group 5760" transform="translate(45 29.375)">
      <rect id="Rectangle_1531" data-name="Rectangle 1531" width="30" height="31.5" transform="translate(517 772)"/>
      <text id="P" transform="translate(532 794.75)" fill="#fff" font-size="24" font-family="FuturaPT-MediumObl, Futura PT" font-weight="500" font-style="oblique" letter-spacing="0.1em"><tspan x="-7.872" y="0">A</tspan></text>
    </g>
  </g>
</svg>
