<svg xmlns="http://www.w3.org/2000/svg" width="147.992" height="182.875" viewBox="0 0 147.992 182.875">
  <g id="Group_6453" data-name="Group 6453" transform="translate(-473.578 -638.982)">
    <path id="Path_5981" data-name="Path 5981" d="M3163.088,2516.918c-5.24-.748-19.249-1.34-21.744-7.827s-13.263,3.8-11.018-3.189-11.88-15.635-13.626-20.875-26.42,2.99-35.154.245-25.667-8.993-30.479-7.541c-4.776,1.441-8.374,11.008-10.324,14.491-1.938,3.46-2.368,5.014-4.318,8.914-2.322,4.644-1.792,11.087-3.288,18.323s-3.744,16.219-6.238,22.208-.749,13.724-.25,19.464,6.238,8.734,6.737,14.972.5,7.985,2.995,13.724,2,8.235-1.248,11.729-15.97,12.976-15.97,12.976a12.272,12.272,0,0,0-.121,4.289,15.334,15.334,0,0,0,8.356-1.046c4.99-2,8.733-3.743,12.726-2.495s7.985,2.495,8.235,5.988,1,7.487,0,11.479.5,3.993,3.243,5.74,5.989,3.243,8.983,6.239,8.235,5.739,9.733,8.983a11.47,11.47,0,0,1,.846,2.412,20.044,20.044,0,0,0,3.9-5.657c2.994-5.739,3.245-5.49,7.985-10.979s7.736-5.49,10.231-13.475,4.243-9.482,6.738-16.469,6.986-10.98,7.485-15.222-2.745-11.229-5.988-15.97-2-6.488,2-8.484,9.732,5.489,13.724,5.74,3.244-2.745,7.736-4.991,11.229-5.24,11.229-8.733,2.495-7.236,5.739-13.724S3168.329,2517.666,3163.088,2516.918Z" transform="translate(-2543.785 -1837.104)" fill="#b2ebf4" stroke="#f7f7f4" stroke-miterlimit="10" stroke-width="3"/>
    <g id="Group_5759" data-name="Group 5759" transform="translate(26 -92)">
      <rect id="Rectangle_1531" data-name="Rectangle 1531" width="30" height="31.5" transform="translate(517 772)"/>
      <text id="P" transform="translate(532 794.75)" fill="#fff" font-size="24" font-family="FuturaPT-MediumObl, Futura PT" font-weight="500" font-style="oblique" letter-spacing="0.1em"><tspan x="-6.312" y="0">B</tspan></text>
    </g>
  </g>
</svg>
