<svg xmlns="http://www.w3.org/2000/svg" width="160.367" height="231.075" viewBox="0 0 160.367 231.075">
  <g id="Group_6453" data-name="Group 6453" transform="translate(-460.969 -454.462)">
    <path id="Path_5985" data-name="Path 5985" d="M2965.5,2262.794c-3.713.873-4.93,5.8-8.119,10.727s-6.379,1.159-5.509,9.567,6.958,12.177,3.479,17.975-6.088,4.349-11.017,7.828-3.77,6.958-8.118,10.147-6.958,2.61-6.958,7.248,1.738,6.668,5.508,9.568,4.639,5.508,8.987,3.768,5.51-4.059,8.119-3.189.29,6.958,4.639,8.408,8.407-.29,12.177-.87,4.929,0,4.929,4.929-4.349,14.205-2.9,18.265,4.639,2.319,4.35,8.987-4.059,13.917-.29,15.656,9.278,4.639,7.538,7.538-2.609,5.219-1.45,9.858a47.489,47.489,0,0,1,1.16,17.4c-.87,6.377-3.189,7.827-1.16,11.886s1.16,5.219.58,9.858,1.451,2.03,4.06,9.857,8.117,14.5,13.336,21.165,11.307,8.988,17.105,12.177,12.468,2.609,23.775,0,20.295-7.538,23.194-13.337,9.277-15.365,13.047-18.845.579-8.118,5.8-11.308,6.667-14.205,5.508-18.265,1.74-1.16,2.319-9.568-5.508-10.727-9.857-14.786-2.9-3.189-7.248-7.537-5.219-3.77-.291-8.7,3.77-10.727,1.16-13.916-8.407,2.609-13.047.289,2.319-3.189,3.479-8.117,2.03-21.165-2.609-22.614-11.018,2.319-10.148-4.349,2.9-6.668.581-13.917-3.19-9.567-5.22-15.656-2.9-5.218-8.407-4.059-11.6,6.958-14.206,2.61,1.449-11.308,4.349-15.077,1.739-5.218.869-10.727-.29-10.727-3.189-12.757-2.9,1.74-7.248,5.509-7.249,5.8-11.307,6.088a7.272,7.272,0,0,1-7.539-4.059c-1.159-2.319-6.958-6.378-10.437-8.407s-4.058-2.61-6.089,1.159-2.609,9.278-5.219,9.278-2.609-4.058-2.9-8.407S2970.426,2261.633,2965.5,2262.794Z" transform="translate(-2468.288 -1808.187)" fill="#92d3a9" style="mix-blend-mode: multiply;isolation: isolate"/>
    <path id="Path_5986" data-name="Path 5986" d="M3023.843,2476.875c4.51,3.758,12.177,7.248,17.686,5.8s11.886-2.9,11.6-8.408-2.9-10.437-.869-12.467,6.088,2.319,8.7-2.609,8.7-10.438,6.088-15.366-8.7-6.09-5.8-9.858,2.319-9.857,1.16-15.077-2.03-8.987-5.8-11.306-5.509-2.32-5.509-8.118,1.45-19.425-1.16-26.094-2.609-8.407-10.146-14.206-10.438-2.9-9.278-10.726,5.8-13.917-.869-16.236-8.7-.871-11.308-6.089,0-7.828-3.189-12.467-8.988-2.319-11.308-4.928-1.449-6.089-6.088-6.958-8.988,2.319-11.887,5.8-9.277,6.668-10.437,11.017-.58,7.828,4.059,11.307,11.6.58,14.207-3.769,3.768-8.117,7.537-6.667,1.74,5.218-.869,8.407-4.639,8.7-2.61,13.917,7.248,9.278,7.248,16.236,6.669,12.757,6.669,17.106,7.538,4.638,6.668,8.987-7.248,2.029-7.828,7.538,6.089,7.828,5.8,13.626-4.929,5.509-6.378,12.467,6.378,15.656,10.437,16.236,9.278,6.379,6.379,6.668-6.958-3.189-10.437-2.03-7.828,6.668-2.03,10.728,10.728,8.117,8.408,9.568-6.378-2.9-8.989-2.03-6.378,4.058-4.348,6.958,4.059,2.61,3.479,6.669S3022.1,2475.426,3023.843,2476.875Z" transform="translate(-2475.894 -1814.682)" fill="#00913a" opacity="0.4" style="mix-blend-mode: multiply;isolation: isolate"/>
    <g id="Group_6106" data-name="Group 6106" transform="translate(533.638 526.912)">
      <g id="Group_6103" data-name="Group 6103">
        <path id="Path_5987" data-name="Path 5987" d="M3017.91,2355.6a10.2,10.2,0,0,0-.335-1.592,12.5,12.5,0,0,1,1.706-.224c.176-.006.268.031.3.12a.431.431,0,0,1-.009.293,2.049,2.049,0,0,0,.021.816,13.659,13.659,0,0,1-1.152,8.539c-.114.212-.175.327-.264.354s-.2-.021-.393-.125a4.494,4.494,0,0,0-1.321-.423A10.61,10.61,0,0,0,3017.91,2355.6Zm1.566-3.31c-1.108.333-1.454.47-1.558.5-.148.045-.167.034-.217-.129l-.374-1.242c-.044-.147-.034-.167.114-.212.1-.032.467-.109,1.576-.443l2.173-.653c1.123-.34,1.469-.476,1.558-.5.148-.044.186-.024.231.125.084.28.2.665.333,1,1.714,4.4,3.919,6.639,6.972,8.316a4.7,4.7,0,0,0-.936,1.282c-.089.188-.14.283-.214.306s-.189-.04-.387-.157a17.351,17.351,0,0,1-6.8-8.932Z" transform="translate(-3016.458 -2349.589)" fill="#231815"/>
        <path id="Path_5988" data-name="Path 5988" d="M3027.81,2376.854a14.182,14.182,0,0,1-1,2.446c-.062.117-.122.183-.2.205a.569.569,0,0,1-.312-.018,4.22,4.22,0,0,0-1.281-.082,12.379,12.379,0,0,0,1.61-4.663,5.453,5.453,0,0,0,0-1.82,9.881,9.881,0,0,1,1.716.127.313.313,0,0,1,.19.523.93.93,0,0,0-.206.547c-.05.368-.1.74-.159,1.079l3.489-1.052c.754-.227,1.509-.5,2.254-.759.163-.05.209,0,.3.233.113.321.215.66.3.99.043.2-.012.279-.165.308-.709.215-1.487.415-2.107.6l-.637.191a8.032,8.032,0,0,1,.135,3.766,7.61,7.61,0,0,1-1.479,3.172.526.526,0,0,1-.235.182.8.8,0,0,1-.343-.009,4.741,4.741,0,0,0-1.469-.171,7.517,7.517,0,0,0,1.874-3.306,6.322,6.322,0,0,0-.109-3.142Z" transform="translate(-3017.884 -2353.478)" fill="#231815"/>
        <path id="Path_5989" data-name="Path 5989" d="M3030.382,2401.495c-1.3.392-1.75.559-1.84.586-.133.04-.152.03-.2-.117l-.339-1.125c-.048-.162-.039-.181.094-.221.089-.026.557-.135,1.857-.527l.472-.142-1.335-4.435a12.292,12.292,0,0,0-.65-1.835c.529-.065,1.067-.1,1.689-.124a33.626,33.626,0,0,0,5.085-2.386,4.627,4.627,0,0,0,.987-.685,8.192,8.192,0,0,1,1.37.748.513.513,0,0,1,.218.24c.036.119-.065.213-.227.262a3.164,3.164,0,0,0-.624.285,57.54,57.54,0,0,1-6.332,2.908l.307,1.019,6.238-1.879c1.435-.433,1.914-.608,2-.635.163-.049.182-.04.231.125l.339,1.122c.045.149.035.167-.128.216-.089.027-.586.144-2.019.576l-.474.142.642,2.13,1.42-.428c1.3-.392,1.735-.556,1.823-.582.148-.046.168-.035.216.126l.34,1.125c.044.148.034.167-.115.211-.088.026-.541.131-1.842.523l-3.947,1.188.888,2.942,2.985-.9-.236-.783a7.7,7.7,0,0,0-.525-1.421c.581-.159,1.1-.266,1.588-.351.108-.015.209,0,.242.107a.688.688,0,0,1,.011.3,3,3,0,0,0,.21,1.019l.454,1.507c.223.74.351,1.057.373,1.13.044.147.035.167-.1.208l-1.227.368c-.134.041-.151.03-.2-.117l-.183-.605-7.391,2.226.182.606c.045.148.034.167-.128.216l-1.2.361c-.148.045-.168.034-.213-.113-.027-.089-.086-.393-.3-1.1l-.476-1.582a7.6,7.6,0,0,0-.547-1.5c.58-.16,1.053-.252,1.568-.36.152-.031.23.011.256.1a1.008,1.008,0,0,1,.005.339,3.037,3.037,0,0,0,.2.874l.241.8,2.9-.874-.887-2.942Zm5.83-3.288-.642-2.131-4.228,1.274.641,2.129Z" transform="translate(-3018.38 -2356.405)" fill="#231815"/>
        <path id="Path_5990" data-name="Path 5990" d="M3033.218,2415.214c.132-.152.175-.165.306-.108a12.383,12.383,0,0,1,2.527,1.641c.109.1.1.131-.01.293l-.6.891a.353.353,0,0,1-.151.142c-.044.013-.1,0-.164-.063a12,12,0,0,0-2.513-1.758c-.149-.068-.147-.116,0-.274Zm5.028,9.192a2.392,2.392,0,0,0,1.65.824,9.2,9.2,0,0,0,2.883-.546c1.906-.575,4.127-1.34,6.263-2.227a2.408,2.408,0,0,0-.083,1.171c.053.5.068.495-.4.667-1.877.678-3.641,1.242-5.134,1.692a10.673,10.673,0,0,1-3.58.643,3.29,3.29,0,0,1-1.968-.858,16.6,16.6,0,0,1-1.03,1.665,1.415,1.415,0,0,0-.231.409.252.252,0,0,1-.162.21c-.088.027-.194-.055-.285-.14a12.4,12.4,0,0,1-.973-1.142,8.091,8.091,0,0,0,.73-.737,8.36,8.36,0,0,0,.857-1.274l-.993-3.3-.622.188c-.768.231-.966.324-1.041.347-.163.048-.182.039-.23-.124l-.339-1.124c-.044-.148-.034-.167.129-.217.074-.023.291-.054,1.059-.286l.843-.254c.768-.232,1-.333,1.07-.355.147-.044.167-.035.213.114.026.089.126.526.4,1.443Zm2.708-.914c-1.434.434-1.927.615-2.017.641-.162.048-.181.037-.226-.11l-.286-.946c-.044-.147-.034-.167.129-.216.088-.027.6-.148,2.034-.581l1.671-.5-.249-.828-1.065.321c-1.361.41-1.839.586-1.942.617-.134.04-.153.03-.2-.117-.026-.09-.108-.467-.371-1.339l-.6-1.982c-.262-.871-.4-1.233-.43-1.322-.049-.162-.038-.181.094-.221.1-.032.6-.149,1.96-.56l1.065-.321-.241-.8-1.611.486c-1.435.432-1.914.609-2,.635-.147.045-.167.034-.211-.113l-.281-.932c-.045-.148-.034-.168.113-.212.089-.027.585-.144,2.019-.577l1.611-.485a9.2,9.2,0,0,0-.492-1.207,12.062,12.062,0,0,1,1.49-.353c.153-.029.259,0,.286.092a.848.848,0,0,1-.008.292,1.961,1.961,0,0,0,.129.752l1.834-.553c1.434-.432,1.927-.613,2.017-.64.148-.044.166-.034.211.114l.281.931c.044.148.033.167-.113.212-.09.027-.6.148-2.034.58l-1.833.552.241.8,1.152-.347c1.361-.411,1.825-.582,1.928-.613.147-.046.167-.036.216.127.027.088.108.467.372,1.339l.6,1.981c.263.872.4,1.232.43,1.321.045.147.034.167-.113.211-.1.031-.586.145-1.947.556l-1.153.347.25.827,1.907-.575c1.448-.436,1.941-.616,2.031-.643.148-.046.168-.035.212.113l.285.947c.044.147.034.167-.113.212-.089.027-.6.148-2.049.584l-1.908.575c.232.768.356,1.071.377,1.144.042.133.02.172-.113.213l-1.138.343c-.133.04-.172.018-.212-.115-.022-.074-.1-.388-.318-1.161Zm.151-5.543-.259-.857-1.789.538.258.857Zm.589,1.951-.281-.932-1.789.54.281.931Zm.558-3.233.258.858,1.847-.556-.258-.858Zm2.413,1.322-1.848.557.28.931,1.849-.556Z" transform="translate(-3019.132 -2360.056)" fill="#231815"/>
        <path id="Path_5991" data-name="Path 5991" d="M3043.957,2440.068a13.743,13.743,0,0,0-.736-2.067,10.245,10.245,0,0,1,1.3-.293c.137-.026.23.01.252.085a1.18,1.18,0,0,1,.028.361,6.485,6.485,0,0,0,.384,1.545l1.137,3.77c.432,1.433.675,2.134.7,2.223.045.148.035.168-.113.212l-.917.277c-.163.048-.182.037-.227-.11l-.173-.576-2.425.73.362,1.2c.044.148.033.167-.114.212l-.976.293c-.148.044-.167.033-.212-.114-.031-.1-.229-.867-.688-2.388l-1.279-4.243a18.321,18.321,0,0,0-.726-2.087c.33-.083,1.018-.259,1.327-.3.153-.029.215.016.232.075a.68.68,0,0,1,.022.284,4.584,4.584,0,0,0,.309,1.294l1.336,4.434.561-.17-2.031-6.742a19.31,19.31,0,0,0-.744-2.1c.418-.109.989-.249,1.342-.308.152-.03.229.012.257.1a1.967,1.967,0,0,1,.038.392,8.1,8.1,0,0,0,.376,1.516l2.036,6.755.592-.178Zm6.009-6.067a1.085,1.085,0,0,0,.366-.174.487.487,0,0,1,.164-.1c.132-.041.286.041.623.246.313.181.452.268.492.4s.013.206-.112.323c-.116.1-.143.172-.264.467a12.235,12.235,0,0,1-.982,2.037,13.108,13.108,0,0,0,3.25-.076,3.957,3.957,0,0,0-.153,1.045c0,.483-.033.477-.519.527a11.383,11.383,0,0,1-3.444-.3,12.463,12.463,0,0,1-2.564,2.192c-.408.251-.433.276-.73-.119a3.251,3.251,0,0,0-.765-.72,11.422,11.422,0,0,0,2.614-1.869,10.117,10.117,0,0,1-1.226-.694,8.4,8.4,0,0,1-.58.8c-.127.167-.2.252-.271.275-.1.031-.213-.065-.419-.261a3.022,3.022,0,0,0-.795-.5,8.029,8.029,0,0,0,1.749-2.865,3.781,3.781,0,0,0,.191-.865c.485-.049,1-.107,1.415-.119.142-.011.219.03.245.119s-.048.16-.129.265a2.066,2.066,0,0,0-.2.478l-.031.107Zm1.41,8.96.227.754,1.212-.365c1.374-.414,1.838-.585,1.927-.612.163-.049.182-.039.226.109l.272.9c.045.147.034.167-.128.217-.089.027-.571.14-1.945.553l-1.212.365c.343,1.139.545,1.706.569,1.78.044.147.033.167-.115.213l-1.153.347c-.147.044-.167.033-.212-.114-.026-.089-.166-.66-.509-1.8l-.872.263c-1.39.418-1.839.586-1.928.614-.147.046-.166.035-.212-.115l-.271-.9c-.044-.147-.035-.166.114-.211.088-.028.556-.136,1.945-.554l.872-.263-.227-.754-.414.125c-1.2.361-1.587.51-1.676.536-.148.046-.167.035-.211-.113l-.254-.843c-.045-.147-.035-.167.114-.211.088-.027.5-.118,1.693-.479l.415-.124-.227-.754-.592.178c-1.271.383-1.692.543-1.78.57-.133.04-.151.03-.2-.119l-.258-.856c-.045-.149-.035-.168.1-.207.088-.028.527-.128,1.8-.511l.576-.174c-.121-.35-.244-.651-.4-1.023.552-.15.974-.246,1.491-.352.152-.031.244.006.266.081a.824.824,0,0,1-.008.293,2.4,2.4,0,0,0,.091.569l.8-.241c1.271-.383,1.691-.541,1.78-.568.148-.045.168-.036.212.113l.259.857c.045.148.034.167-.113.211-.09.028-.527.126-1.8.51l-.8.24.227.755.546-.165c1.2-.361,1.559-.5,1.647-.529.148-.044.168-.034.213.115l.254.843c.044.147.034.166-.114.21-.089.028-.468.109-1.665.47Zm-4.008-6.983-.022.087a5.659,5.659,0,0,0,1.467.8,7.05,7.05,0,0,0,.845-1.577Z" transform="translate(-3020.303 -2363.599)" fill="#231815"/>
      </g>
      <g id="Group_6104" data-name="Group 6104">
        <path id="Path_5992" data-name="Path 5992" d="M3017.91,2355.6a10.2,10.2,0,0,0-.335-1.592,12.5,12.5,0,0,1,1.706-.224c.176-.006.268.031.3.12a.431.431,0,0,1-.009.293,2.049,2.049,0,0,0,.021.816,13.659,13.659,0,0,1-1.152,8.539c-.114.212-.175.327-.264.354s-.2-.021-.393-.125a4.494,4.494,0,0,0-1.321-.423A10.61,10.61,0,0,0,3017.91,2355.6Zm1.566-3.31c-1.108.333-1.454.47-1.558.5-.148.045-.167.034-.217-.129l-.374-1.242c-.044-.147-.034-.167.114-.212.1-.032.467-.109,1.576-.443l2.173-.653c1.123-.34,1.469-.476,1.558-.5.148-.044.186-.024.231.125.084.28.2.665.333,1,1.714,4.4,3.919,6.639,6.972,8.316a4.7,4.7,0,0,0-.936,1.282c-.089.188-.14.283-.214.306s-.189-.04-.387-.157a17.351,17.351,0,0,1-6.8-8.932Z" transform="translate(-3016.458 -2349.589)" fill="none" stroke="#fff" stroke-linecap="round" stroke-linejoin="round" stroke-width="3"/>
        <path id="Path_5993" data-name="Path 5993" d="M3027.81,2376.854a14.182,14.182,0,0,1-1,2.446c-.062.117-.122.183-.2.205a.569.569,0,0,1-.312-.018,4.22,4.22,0,0,0-1.281-.082,12.379,12.379,0,0,0,1.61-4.663,5.453,5.453,0,0,0,0-1.82,9.881,9.881,0,0,1,1.716.127.313.313,0,0,1,.19.523.93.93,0,0,0-.206.547c-.05.368-.1.74-.159,1.079l3.489-1.052c.754-.227,1.509-.5,2.254-.759.163-.05.209,0,.3.233.113.321.215.66.3.99.043.2-.012.279-.165.308-.709.215-1.487.415-2.107.6l-.637.191a8.032,8.032,0,0,1,.135,3.766,7.61,7.61,0,0,1-1.479,3.172.526.526,0,0,1-.235.182.8.8,0,0,1-.343-.009,4.741,4.741,0,0,0-1.469-.171,7.517,7.517,0,0,0,1.874-3.306,6.322,6.322,0,0,0-.109-3.142Z" transform="translate(-3017.884 -2353.478)" fill="none" stroke="#fff" stroke-linecap="round" stroke-linejoin="round" stroke-width="3"/>
        <path id="Path_5994" data-name="Path 5994" d="M3030.382,2401.495c-1.3.392-1.75.559-1.84.586-.133.04-.152.03-.2-.117l-.339-1.125c-.048-.162-.039-.181.094-.221.089-.026.557-.135,1.857-.527l.472-.142-1.335-4.435a12.292,12.292,0,0,0-.65-1.835c.529-.065,1.067-.1,1.689-.124a33.626,33.626,0,0,0,5.085-2.386,4.627,4.627,0,0,0,.987-.685,8.192,8.192,0,0,1,1.37.748.513.513,0,0,1,.218.24c.036.119-.065.213-.227.262a3.164,3.164,0,0,0-.624.285,57.54,57.54,0,0,1-6.332,2.908l.307,1.019,6.238-1.879c1.435-.433,1.914-.608,2-.635.163-.049.182-.04.231.125l.339,1.122c.045.149.035.167-.128.216-.089.027-.586.144-2.019.576l-.474.142.642,2.13,1.42-.428c1.3-.392,1.735-.556,1.823-.582.148-.046.168-.035.216.126l.34,1.125c.044.148.034.167-.115.211-.088.026-.541.131-1.842.523l-3.947,1.188.888,2.942,2.985-.9-.236-.783a7.7,7.7,0,0,0-.525-1.421c.581-.159,1.1-.266,1.588-.351.108-.015.209,0,.242.107a.688.688,0,0,1,.011.3,3,3,0,0,0,.21,1.019l.454,1.507c.223.74.351,1.057.373,1.13.044.147.035.167-.1.208l-1.227.368c-.134.041-.151.03-.2-.117l-.183-.605-7.391,2.226.182.606c.045.148.034.167-.128.216l-1.2.361c-.148.045-.168.034-.213-.113-.027-.089-.086-.393-.3-1.1l-.476-1.582a7.6,7.6,0,0,0-.547-1.5c.58-.16,1.053-.252,1.568-.36.152-.031.23.011.256.1a1.008,1.008,0,0,1,.005.339,3.037,3.037,0,0,0,.2.874l.241.8,2.9-.874-.887-2.942Zm5.83-3.288-.642-2.131-4.228,1.274.641,2.129Z" transform="translate(-3018.38 -2356.405)" fill="none" stroke="#fff" stroke-linecap="round" stroke-linejoin="round" stroke-width="3"/>
        <path id="Path_5995" data-name="Path 5995" d="M3033.218,2415.214c.132-.152.175-.165.306-.108a12.383,12.383,0,0,1,2.527,1.641c.109.1.1.131-.01.293l-.6.891a.353.353,0,0,1-.151.142c-.044.013-.1,0-.164-.063a12,12,0,0,0-2.513-1.758c-.149-.068-.147-.116,0-.274Zm5.028,9.192a2.392,2.392,0,0,0,1.65.824,9.2,9.2,0,0,0,2.883-.546c1.906-.575,4.127-1.34,6.263-2.227a2.408,2.408,0,0,0-.083,1.171c.053.5.068.495-.4.667-1.877.678-3.641,1.242-5.134,1.692a10.673,10.673,0,0,1-3.58.643,3.29,3.29,0,0,1-1.968-.858,16.6,16.6,0,0,1-1.03,1.665,1.415,1.415,0,0,0-.231.409.252.252,0,0,1-.162.21c-.088.027-.194-.055-.285-.14a12.4,12.4,0,0,1-.973-1.142,8.091,8.091,0,0,0,.73-.737,8.36,8.36,0,0,0,.857-1.274l-.993-3.3-.622.188c-.768.231-.966.324-1.041.347-.163.048-.182.039-.23-.124l-.339-1.124c-.044-.148-.034-.167.129-.217.074-.023.291-.054,1.059-.286l.843-.254c.768-.232,1-.333,1.07-.355.147-.044.167-.035.213.114.026.089.126.526.4,1.443Zm2.708-.914c-1.434.434-1.927.615-2.017.641-.162.048-.181.037-.226-.11l-.286-.946c-.044-.147-.034-.167.129-.216.088-.027.6-.148,2.034-.581l1.671-.5-.249-.828-1.065.321c-1.361.41-1.839.586-1.942.617-.134.04-.153.03-.2-.117-.026-.09-.108-.467-.371-1.339l-.6-1.982c-.262-.871-.4-1.233-.43-1.322-.049-.162-.038-.181.094-.221.1-.032.6-.149,1.96-.56l1.065-.321-.241-.8-1.611.486c-1.435.432-1.914.609-2,.635-.147.045-.167.034-.211-.113l-.281-.932c-.045-.148-.034-.168.113-.212.089-.027.585-.144,2.019-.577l1.611-.485a9.2,9.2,0,0,0-.492-1.207,12.062,12.062,0,0,1,1.49-.353c.153-.029.259,0,.286.092a.848.848,0,0,1-.008.292,1.961,1.961,0,0,0,.129.752l1.834-.553c1.434-.432,1.927-.613,2.017-.64.148-.044.166-.034.211.114l.281.931c.044.148.033.167-.113.212-.09.027-.6.148-2.034.58l-1.833.552.241.8,1.152-.347c1.361-.411,1.825-.582,1.928-.613.147-.046.167-.036.216.127.027.088.108.467.372,1.339l.6,1.981c.263.872.4,1.232.43,1.321.045.147.034.167-.113.211-.1.031-.586.145-1.947.556l-1.153.347.25.827,1.907-.575c1.448-.436,1.941-.616,2.031-.643.148-.046.168-.035.212.113l.285.947c.044.147.034.167-.113.212-.089.027-.6.148-2.049.584l-1.908.575c.232.768.356,1.071.377,1.144.042.133.02.172-.113.213l-1.138.343c-.133.04-.172.018-.212-.115-.022-.074-.1-.388-.318-1.161Zm.151-5.543-.259-.857-1.789.538.258.857Zm.589,1.951-.281-.932-1.789.54.281.931Zm.558-3.233.258.858,1.847-.556-.258-.858Zm2.413,1.322-1.848.557.28.931,1.849-.556Z" transform="translate(-3019.132 -2360.056)" fill="none" stroke="#fff" stroke-linecap="round" stroke-linejoin="round" stroke-width="3"/>
        <path id="Path_5996" data-name="Path 5996" d="M3043.957,2440.068a13.743,13.743,0,0,0-.736-2.067,10.245,10.245,0,0,1,1.3-.293c.137-.026.23.01.252.085a1.18,1.18,0,0,1,.028.361,6.485,6.485,0,0,0,.384,1.545l1.137,3.77c.432,1.433.675,2.134.7,2.223.045.148.035.168-.113.212l-.917.277c-.163.048-.182.037-.227-.11l-.173-.576-2.425.73.362,1.2c.044.148.033.167-.114.212l-.976.293c-.148.044-.167.033-.212-.114-.031-.1-.229-.867-.688-2.388l-1.279-4.243a18.321,18.321,0,0,0-.726-2.087c.33-.083,1.018-.259,1.327-.3.153-.029.215.016.232.075a.68.68,0,0,1,.022.284,4.584,4.584,0,0,0,.309,1.294l1.336,4.434.561-.17-2.031-6.742a19.31,19.31,0,0,0-.744-2.1c.418-.109.989-.249,1.342-.308.152-.03.229.012.257.1a1.967,1.967,0,0,1,.038.392,8.1,8.1,0,0,0,.376,1.516l2.036,6.755.592-.178Zm6.009-6.067a1.085,1.085,0,0,0,.366-.174.487.487,0,0,1,.164-.1c.132-.041.286.041.623.246.313.181.452.268.492.4s.013.206-.112.323c-.116.1-.143.172-.264.467a12.235,12.235,0,0,1-.982,2.037,13.108,13.108,0,0,0,3.25-.076,3.957,3.957,0,0,0-.153,1.045c0,.483-.033.477-.519.527a11.383,11.383,0,0,1-3.444-.3,12.463,12.463,0,0,1-2.564,2.192c-.408.251-.433.276-.73-.119a3.251,3.251,0,0,0-.765-.72,11.422,11.422,0,0,0,2.614-1.869,10.117,10.117,0,0,1-1.226-.694,8.4,8.4,0,0,1-.58.8c-.127.167-.2.252-.271.275-.1.031-.213-.065-.419-.261a3.022,3.022,0,0,0-.795-.5,8.029,8.029,0,0,0,1.749-2.865,3.781,3.781,0,0,0,.191-.865c.485-.049,1-.107,1.415-.119.142-.011.219.03.245.119s-.048.16-.129.265a2.066,2.066,0,0,0-.2.478l-.031.107Zm1.41,8.96.227.754,1.212-.365c1.374-.414,1.838-.585,1.927-.612.163-.049.182-.039.226.109l.272.9c.045.147.034.167-.128.217-.089.027-.571.14-1.945.553l-1.212.365c.343,1.139.545,1.706.569,1.78.044.147.033.167-.115.213l-1.153.347c-.147.044-.167.033-.212-.114-.026-.089-.166-.66-.509-1.8l-.872.263c-1.39.418-1.839.586-1.928.614-.147.046-.166.035-.212-.115l-.271-.9c-.044-.147-.035-.166.114-.211.088-.028.556-.136,1.945-.554l.872-.263-.227-.754-.414.125c-1.2.361-1.587.51-1.676.536-.148.046-.167.035-.211-.113l-.254-.843c-.045-.147-.035-.167.114-.211.088-.027.5-.118,1.693-.479l.415-.124-.227-.754-.592.178c-1.271.383-1.692.543-1.78.57-.133.04-.151.03-.2-.119l-.258-.856c-.045-.149-.035-.168.1-.207.088-.028.527-.128,1.8-.511l.576-.174c-.121-.35-.244-.651-.4-1.023.552-.15.974-.246,1.491-.352.152-.031.244.006.266.081a.824.824,0,0,1-.008.293,2.4,2.4,0,0,0,.091.569l.8-.241c1.271-.383,1.691-.541,1.78-.568.148-.045.168-.036.212.113l.259.857c.045.148.034.167-.113.211-.09.028-.527.126-1.8.51l-.8.24.227.755.546-.165c1.2-.361,1.559-.5,1.647-.529.148-.044.168-.034.213.115l.254.843c.044.147.034.166-.114.21-.089.028-.468.109-1.665.47Zm-4.008-6.983-.022.087a5.659,5.659,0,0,0,1.467.8,7.05,7.05,0,0,0,.845-1.577Z" transform="translate(-3020.303 -2363.599)" fill="none" stroke="#fff" stroke-linecap="round" stroke-linejoin="round" stroke-width="3"/>
      </g>
      <g id="Group_6105" data-name="Group 6105">
        <path id="Path_5997" data-name="Path 5997" d="M3017.91,2355.6a10.2,10.2,0,0,0-.335-1.592,12.5,12.5,0,0,1,1.706-.224c.176-.006.268.031.3.12a.431.431,0,0,1-.009.293,2.049,2.049,0,0,0,.021.816,13.659,13.659,0,0,1-1.152,8.539c-.114.212-.175.327-.264.354s-.2-.021-.393-.125a4.494,4.494,0,0,0-1.321-.423A10.61,10.61,0,0,0,3017.91,2355.6Zm1.566-3.31c-1.108.333-1.454.47-1.558.5-.148.045-.167.034-.217-.129l-.374-1.242c-.044-.147-.034-.167.114-.212.1-.032.467-.109,1.576-.443l2.173-.653c1.123-.34,1.469-.476,1.558-.5.148-.044.186-.024.231.125.084.28.2.665.333,1,1.714,4.4,3.919,6.639,6.972,8.316a4.7,4.7,0,0,0-.936,1.282c-.089.188-.14.283-.214.306s-.189-.04-.387-.157a17.351,17.351,0,0,1-6.8-8.932Z" transform="translate(-3016.458 -2349.589)" fill="#00913a"/>
        <path id="Path_5998" data-name="Path 5998" d="M3027.81,2376.854a14.182,14.182,0,0,1-1,2.446c-.062.117-.122.183-.2.205a.569.569,0,0,1-.312-.018,4.22,4.22,0,0,0-1.281-.082,12.379,12.379,0,0,0,1.61-4.663,5.453,5.453,0,0,0,0-1.82,9.881,9.881,0,0,1,1.716.127.313.313,0,0,1,.19.523.93.93,0,0,0-.206.547c-.05.368-.1.74-.159,1.079l3.489-1.052c.754-.227,1.509-.5,2.254-.759.163-.05.209,0,.3.233.113.321.215.66.3.99.043.2-.012.279-.165.308-.709.215-1.487.415-2.107.6l-.637.191a8.032,8.032,0,0,1,.135,3.766,7.61,7.61,0,0,1-1.479,3.172.526.526,0,0,1-.235.182.8.8,0,0,1-.343-.009,4.741,4.741,0,0,0-1.469-.171,7.517,7.517,0,0,0,1.874-3.306,6.322,6.322,0,0,0-.109-3.142Z" transform="translate(-3017.884 -2353.478)" fill="#00913a"/>
        <path id="Path_5999" data-name="Path 5999" d="M3030.382,2401.495c-1.3.392-1.75.559-1.84.586-.133.04-.152.03-.2-.117l-.339-1.125c-.048-.162-.039-.181.094-.221.089-.026.557-.135,1.857-.527l.472-.142-1.335-4.435a12.292,12.292,0,0,0-.65-1.835c.529-.065,1.067-.1,1.689-.124a33.626,33.626,0,0,0,5.085-2.386,4.627,4.627,0,0,0,.987-.685,8.192,8.192,0,0,1,1.37.748.513.513,0,0,1,.218.24c.036.119-.065.213-.227.262a3.164,3.164,0,0,0-.624.285,57.54,57.54,0,0,1-6.332,2.908l.307,1.019,6.238-1.879c1.435-.433,1.914-.608,2-.635.163-.049.182-.04.231.125l.339,1.122c.045.149.035.167-.128.216-.089.027-.586.144-2.019.576l-.474.142.642,2.13,1.42-.428c1.3-.392,1.735-.556,1.823-.582.148-.046.168-.035.216.126l.34,1.125c.044.148.034.167-.115.211-.088.026-.541.131-1.842.523l-3.947,1.188.888,2.942,2.985-.9-.236-.783a7.7,7.7,0,0,0-.525-1.421c.581-.159,1.1-.266,1.588-.351.108-.015.209,0,.242.107a.688.688,0,0,1,.011.3,3,3,0,0,0,.21,1.019l.454,1.507c.223.74.351,1.057.373,1.13.044.147.035.167-.1.208l-1.227.368c-.134.041-.151.03-.2-.117l-.183-.605-7.391,2.226.182.606c.045.148.034.167-.128.216l-1.2.361c-.148.045-.168.034-.213-.113-.027-.089-.086-.393-.3-1.1l-.476-1.582a7.6,7.6,0,0,0-.547-1.5c.58-.16,1.053-.252,1.568-.36.152-.031.23.011.256.1a1.008,1.008,0,0,1,.005.339,3.037,3.037,0,0,0,.2.874l.241.8,2.9-.874-.887-2.942Zm5.83-3.288-.642-2.131-4.228,1.274.641,2.129Z" transform="translate(-3018.38 -2356.405)" fill="#00913a"/>
        <path id="Path_6000" data-name="Path 6000" d="M3033.218,2415.214c.132-.152.175-.165.306-.108a12.383,12.383,0,0,1,2.527,1.641c.109.1.1.131-.01.293l-.6.891a.353.353,0,0,1-.151.142c-.044.013-.1,0-.164-.063a12,12,0,0,0-2.513-1.758c-.149-.068-.147-.116,0-.274Zm5.028,9.192a2.392,2.392,0,0,0,1.65.824,9.2,9.2,0,0,0,2.883-.546c1.906-.575,4.127-1.34,6.263-2.227a2.408,2.408,0,0,0-.083,1.171c.053.5.068.495-.4.667-1.877.678-3.641,1.242-5.134,1.692a10.673,10.673,0,0,1-3.58.643,3.29,3.29,0,0,1-1.968-.858,16.6,16.6,0,0,1-1.03,1.665,1.415,1.415,0,0,0-.231.409.252.252,0,0,1-.162.21c-.088.027-.194-.055-.285-.14a12.4,12.4,0,0,1-.973-1.142,8.091,8.091,0,0,0,.73-.737,8.36,8.36,0,0,0,.857-1.274l-.993-3.3-.622.188c-.768.231-.966.324-1.041.347-.163.048-.182.039-.23-.124l-.339-1.124c-.044-.148-.034-.167.129-.217.074-.023.291-.054,1.059-.286l.843-.254c.768-.232,1-.333,1.07-.355.147-.044.167-.035.213.114.026.089.126.526.4,1.443Zm2.708-.914c-1.434.434-1.927.615-2.017.641-.162.048-.181.037-.226-.11l-.286-.946c-.044-.147-.034-.167.129-.216.088-.027.6-.148,2.034-.581l1.671-.5-.249-.828-1.065.321c-1.361.41-1.839.586-1.942.617-.134.04-.153.03-.2-.117-.026-.09-.108-.467-.371-1.339l-.6-1.982c-.262-.871-.4-1.233-.43-1.322-.049-.162-.038-.181.094-.221.1-.032.6-.149,1.96-.56l1.065-.321-.241-.8-1.611.486c-1.435.432-1.914.609-2,.635-.147.045-.167.034-.211-.113l-.281-.932c-.045-.148-.034-.168.113-.212.089-.027.585-.144,2.019-.577l1.611-.485a9.2,9.2,0,0,0-.492-1.207,12.062,12.062,0,0,1,1.49-.353c.153-.029.259,0,.286.092a.848.848,0,0,1-.008.292,1.961,1.961,0,0,0,.129.752l1.834-.553c1.434-.432,1.927-.613,2.017-.64.148-.044.166-.034.211.114l.281.931c.044.148.033.167-.113.212-.09.027-.6.148-2.034.58l-1.833.552.241.8,1.152-.347c1.361-.411,1.825-.582,1.928-.613.147-.046.167-.036.216.127.027.088.108.467.372,1.339l.6,1.981c.263.872.4,1.232.43,1.321.045.147.034.167-.113.211-.1.031-.586.145-1.947.556l-1.153.347.25.827,1.907-.575c1.448-.436,1.941-.616,2.031-.643.148-.046.168-.035.212.113l.285.947c.044.147.034.167-.113.212-.089.027-.6.148-2.049.584l-1.908.575c.232.768.356,1.071.377,1.144.042.133.02.172-.113.213l-1.138.343c-.133.04-.172.018-.212-.115-.022-.074-.1-.388-.318-1.161Zm.151-5.543-.259-.857-1.789.538.258.857Zm.589,1.951-.281-.932-1.789.54.281.931Zm.558-3.233.258.858,1.847-.556-.258-.858Zm2.413,1.322-1.848.557.28.931,1.849-.556Z" transform="translate(-3019.132 -2360.056)" fill="#00913a"/>
        <path id="Path_6001" data-name="Path 6001" d="M3043.957,2440.068a13.743,13.743,0,0,0-.736-2.067,10.245,10.245,0,0,1,1.3-.293c.137-.026.23.01.252.085a1.18,1.18,0,0,1,.028.361,6.485,6.485,0,0,0,.384,1.545l1.137,3.77c.432,1.433.675,2.134.7,2.223.045.148.035.168-.113.212l-.917.277c-.163.048-.182.037-.227-.11l-.173-.576-2.425.73.362,1.2c.044.148.033.167-.114.212l-.976.293c-.148.044-.167.033-.212-.114-.031-.1-.229-.867-.688-2.388l-1.279-4.243a18.321,18.321,0,0,0-.726-2.087c.33-.083,1.018-.259,1.327-.3.153-.029.215.016.232.075a.68.68,0,0,1,.022.284,4.584,4.584,0,0,0,.309,1.294l1.336,4.434.561-.17-2.031-6.742a19.31,19.31,0,0,0-.744-2.1c.418-.109.989-.249,1.342-.308.152-.03.229.012.257.1a1.967,1.967,0,0,1,.038.392,8.1,8.1,0,0,0,.376,1.516l2.036,6.755.592-.178Zm6.009-6.067a1.085,1.085,0,0,0,.366-.174.487.487,0,0,1,.164-.1c.132-.041.286.041.623.246.313.181.452.268.492.4s.013.206-.112.323c-.116.1-.143.172-.264.467a12.235,12.235,0,0,1-.982,2.037,13.108,13.108,0,0,0,3.25-.076,3.957,3.957,0,0,0-.153,1.045c0,.483-.033.477-.519.527a11.383,11.383,0,0,1-3.444-.3,12.463,12.463,0,0,1-2.564,2.192c-.408.251-.433.276-.73-.119a3.251,3.251,0,0,0-.765-.72,11.422,11.422,0,0,0,2.614-1.869,10.117,10.117,0,0,1-1.226-.694,8.4,8.4,0,0,1-.58.8c-.127.167-.2.252-.271.275-.1.031-.213-.065-.419-.261a3.022,3.022,0,0,0-.795-.5,8.029,8.029,0,0,0,1.749-2.865,3.781,3.781,0,0,0,.191-.865c.485-.049,1-.107,1.415-.119.142-.011.219.03.245.119s-.048.16-.129.265a2.066,2.066,0,0,0-.2.478l-.031.107Zm1.41,8.96.227.754,1.212-.365c1.374-.414,1.838-.585,1.927-.612.163-.049.182-.039.226.109l.272.9c.045.147.034.167-.128.217-.089.027-.571.14-1.945.553l-1.212.365c.343,1.139.545,1.706.569,1.78.044.147.033.167-.115.213l-1.153.347c-.147.044-.167.033-.212-.114-.026-.089-.166-.66-.509-1.8l-.872.263c-1.39.418-1.839.586-1.928.614-.147.046-.166.035-.212-.115l-.271-.9c-.044-.147-.035-.166.114-.211.088-.028.556-.136,1.945-.554l.872-.263-.227-.754-.414.125c-1.2.361-1.587.51-1.676.536-.148.046-.167.035-.211-.113l-.254-.843c-.045-.147-.035-.167.114-.211.088-.027.5-.118,1.693-.479l.415-.124-.227-.754-.592.178c-1.271.383-1.692.543-1.78.57-.133.04-.151.03-.2-.119l-.258-.856c-.045-.149-.035-.168.1-.207.088-.028.527-.128,1.8-.511l.576-.174c-.121-.35-.244-.651-.4-1.023.552-.15.974-.246,1.491-.352.152-.031.244.006.266.081a.824.824,0,0,1-.008.293,2.4,2.4,0,0,0,.091.569l.8-.241c1.271-.383,1.691-.541,1.78-.568.148-.045.168-.036.212.113l.259.857c.045.148.034.167-.113.211-.09.028-.527.126-1.8.51l-.8.24.227.755.546-.165c1.2-.361,1.559-.5,1.647-.529.148-.044.168-.034.213.115l.254.843c.044.147.034.166-.114.21-.089.028-.468.109-1.665.47Zm-4.008-6.983-.022.087a5.659,5.659,0,0,0,1.467.8,7.05,7.05,0,0,0,.845-1.577Z" transform="translate(-3020.303 -2363.599)" fill="#00913a"/>
      </g>
    </g>
  </g>
</svg>
