<svg xmlns="http://www.w3.org/2000/svg" width="199.816" height="183.934" viewBox="0 0 199.816 183.934">
  <g id="Group_6456" data-name="Group 6456" transform="translate(-310.771 -507.675)">
    <path id="Path_5983" data-name="Path 5983" d="M2903.6,2480.88c.052,1.549-.589,2.386-.83,1.644-.563-1.693-10.944-3.654-10.944-3.654-1.131,6.187-2.814,4.5-9,2.536s-8.418,3.356-8.418,3.356c-5.293,6.9-8.836,11.827-11.255,15.382a31.243,31.243,0,0,0-3.634-3.019s-1.679-10.951-6.174-13.189c-4.5-2.255-3.657-10.68-3.657-10.68-1.4-11.238.566-3.942-13.192-16.853-4.906-4.6-9.3-6.38-12.971-6.785.147-6.01.722-12.814,2.568-13.435,3.379-1.124,9.279-9.539,11.236-12.075,1.97-2.52,2.539-10.111,6.464-10.386s9.83-.85,10.385-5.912c.563-5.045-1.679-12.637-1.679-12.637s-2.812-7.291,2.529-11.521a42.852,42.852,0,0,0,8.709-9.532s5.893-10.4,6.18-14.323c.274-3.945.556-13.2.556-13.2s1.4-6.182,6.454-6.742,3.931-7.029,3.376-8.712,2.8-3.657,4.774-2.242c1.366.981,2.33-2.529,3.722-6.084a11.819,11.819,0,0,0,4.706,1.585,39,39,0,0,0,12.634-.553,66.505,66.505,0,0,0,8.426-2.474c3.928,4.52,8.6,9.961,10.677,13.14,3.65,5.621,10.666,4.216,10.666,4.216,16.288,7.3,19.654-1.69,19.654-1.69,6.163-6.336,7.906-11.562,8.5-16.519,7.575-.719,17.575-1.073,19.379,1.758a1.98,1.98,0,0,1,.212.441s-.285,12.9-.285,14.879-7.3,7.023,1.121,7.3c0,0,6.47-.278,5.624,7.307,0,0-3.091,2.532,5.615,12.072a29.135,29.135,0,0,1,3.653,11.238c.321,3.536,1.386,4.5,2.814,5.35a12.669,12.669,0,0,1,3.641,2.78c3.088,3.664,3.653,4.23,3.653,10.407a119.16,119.16,0,0,0,.37,12.32c.558,5.908,1.983,12.092,5.529,15.484,6.464,6.176,4.768,10.944,4.768,13.2,0,1.464-1.287,9.408-1.654,16.422a6.92,6.92,0,0,0-2.771,2.326c-7.1-2.659-15.833-5.666-18.317-5.829-4.209-.271-20.781-2.249-28.086-1.686s-48.866-7.3-55.611-9.271c-6.729-1.961-9.827-.549-9.827-.549-1.124,6.17-9.83,8.418-10.674,8.69a152.239,152.239,0,0,1-16.568,1.692c-3.935,0-5.334,1.964-1.683,8.712,3.653,6.733,15.167,13.2,23.036,17.69C2902.4,2475.768,2903.554,2478.9,2903.6,2480.88Z" transform="translate(-2511.227 -1810.854)" fill="#b2ebf4" stroke="#f7f7f4" stroke-miterlimit="10" stroke-width="3"/>
    <g id="Group_5764" data-name="Group 5764" transform="translate(-133 -200.75)">
      <rect id="Rectangle_1531" data-name="Rectangle 1531" width="30" height="31.5" transform="translate(517 772)"/>
      <text id="P" transform="translate(532 794.75)" fill="#fff" font-size="24" font-family="FuturaPT-MediumObl, Futura PT" font-weight="500" font-style="oblique" letter-spacing="0.1em"><tspan x="-9.012" y="0">G</tspan></text>
    </g>
  </g>
</svg>
