<svg xmlns="http://www.w3.org/2000/svg" xmlns:xlink="http://www.w3.org/1999/xlink" width="137.414" height="93.655" viewBox="0 0 137.414 93.655">
  <defs>
    <clipPath id="clip-path">
      <rect y="47" width="137.414" height="93.655" fill="none"/>
    </clipPath>
  </defs>
  <g id="Scroll_Group_2" data-name="Scroll Group 2" transform="translate(0 -47)" clip-path="url(#clip-path)" style="isolation: isolate">
    <g id="Group_6458" data-name="Group 6458" transform="translate(-318.11 -391.6)">
      <path id="Path_5977" data-name="Path 5977" d="M2966.009,2288.971c-.242-3.871-1.428-5.222-3.088-6.88-2.182-2.185-8.206-26-8.206-26-4.384-11.225,7.116-39.98,7.661-41.34.348-.879,3.368-8.977,5.514-15.16.765-2.488,1.491-4.835,2.154-6.974,0-.01,0-.025,0-.034a3.065,3.065,0,0,1,.489-1.557c2.008-6.473,3.31-10.648,3.11-10.246.582.583-137.749,0-137.749,0-.2,1.109-3.279,43.09-3.546,44.31,0,0,1.68,6.174,1.68,9.262,0,1.242-.045,3.462-.1,5.823l.248,2.05c1.229-.411,2.208-.233,2.665,1.115,1.4,4.216,1.682,14.323,2.8,15.732s3.094,7.3,4.771,7.3c1.693,0,3.942-2.25,8.154,8.428s5.9,10.95,7.3,10.95c1.141,0,4.464-.552,6.159,2.8l12.655-3.647a8.435,8.435,0,0,1,4.219,5.056c1.045,2.938,3.363,7.294,7.373,9.65a11.8,11.8,0,0,0,4.706,1.585,38.98,38.98,0,0,0,12.634-.552,66.517,66.517,0,0,0,8.425-2.475c3.928,4.521,8.6,9.961,10.677,13.142,3.65,5.62,10.666,4.215,10.666,4.215,16.288,7.3,19.654-1.689,19.654-1.689,6.164-6.337,7.905-11.562,8.5-16.52C2965.868,2294.5,2965.827,2291.766,2966.009,2288.971Z" transform="translate(-2512.696 -1787.643)" fill="#b2ebf4" stroke="#f7f7f4" stroke-miterlimit="10" stroke-width="3"/>
      <g id="Group_5766" data-name="Group 5766" transform="translate(-148 -317.75)">
        <rect id="Rectangle_1531" data-name="Rectangle 1531" width="30" height="31.5" transform="translate(517 772)"/>
        <text id="P" transform="translate(532 794.75)" fill="#fff" font-size="24" font-family="FuturaPT-MediumObl, Futura PT" font-weight="500" font-style="oblique" letter-spacing="0.1em"><tspan x="-7.8" y="0">H</tspan></text>
      </g>
    </g>
  </g>
</svg>
