<svg xmlns="http://www.w3.org/2000/svg" width="165.458" height="168.738" viewBox="0 0 165.458 168.738">
  <g id="Group_6454" data-name="Group 6454" transform="translate(-363.569 -718.826)">
    <path id="Path_5982" data-name="Path 5982" d="M3049.29,2673.121c-.006-.1-.006-.2-.017-.306a10.026,10.026,0,0,0-.962-3.137c-1.5-3.244-6.737-5.99-9.733-8.983s-6.239-4.492-8.982-6.239-4.243-1.746-3.244-5.739.249-7.985,0-11.479-4.243-4.741-8.235-5.988-7.735.5-12.726,2.494a15.043,15.043,0,0,1-7.665,1.121,1.6,1.6,0,0,0,.24.689,7.194,7.194,0,0,1-4.961.412c-4.254-1.2-3.643-14.936-7.4-16.644s-7.967,1.826-9.272-3.9-3.075-7.955-7.594-10.654c-2.76-1.649-3.882-3.646-3.709-5.945q-.777-.507-1.557-1.011c-4.243-2.745-5.374-7.285-10.115-10.779s-10.494-11.534-14.722-13.226c-4.99-2-9.349,2.794-12.108,5.7s-11.771,17.038-14.267,22.528-8.427,22.975-9.176,25.969-1.3,8.235-2.046,10.98-9.193,11.7-9.328,11.86c-2.667,3.15-6.343,6.356-4.243,11.732s10.376,8.6,16.615,11.593,17.467,14.223,19.905,18.539,3.8,18.891,7.544,23.632,13.475,4.741,18.465,4.99,17.217,14.224,22.458,16.22a39.284,39.284,0,0,0,5.08,1.587c2.056.007,4.331-.084,6.876-.3,0,0,6.425,1.154,14.7-5.513,0,0,10.787-14.241,11.715-21.134,0,0-3.219-6.424,11.255-10.569,0,0,4.771-3.847,15.638-.958a2.671,2.671,0,0,0,.867-1.536c.064-.279.12-.5.17-.7a58.506,58.506,0,0,0-5.416-8.058s-8.8-3,12.965-9.366c.161-.155.32-.322.474-.5l.057-.067c.132-.154.259-.318.381-.488.031-.045.065-.087.1-.134.11-.16.213-.33.312-.5.033-.057.068-.11.1-.169a7.04,7.04,0,0,0,.342-.73l.007-.017c.16-.4.3-.772.431-1.133.045-.121.084-.237.125-.354.089-.256.167-.5.24-.739.035-.114.071-.228.1-.338.086-.309.157-.608.211-.9.019-.1.028-.2.043-.3.03-.2.054-.4.069-.59.009-.122.015-.243.017-.363C3049.308,2673.5,3049.3,2673.308,3049.29,2673.121Z" transform="translate(-2521.777 -1853.073)" fill="#b2ebf4" stroke="#f7f7f4" stroke-miterlimit="10" stroke-width="3"/>
    <g id="Group_5761" data-name="Group 5761" transform="translate(-94 23)">
      <rect id="Rectangle_1531" data-name="Rectangle 1531" width="30" height="31.5" transform="translate(517 772)"/>
      <text id="P" transform="translate(532 794.75)" fill="#fff" font-size="24" font-family="FuturaPT-MediumObl, Futura PT" font-weight="500" font-style="oblique" letter-spacing="0.1em"><tspan x="-7.752" y="0">D</tspan></text>
    </g>
  </g>
</svg>
