<svg xmlns="http://www.w3.org/2000/svg" width="162.198" height="210.634" viewBox="0 0 162.198 210.634">
  <g id="Group_6459" data-name="Group 6459" transform="translate(-217.458 -453.299)">
    <path id="Path_5984" data-name="Path 5984" d="M2862.981,2302.714a8.437,8.437,0,0,0-4.219-5.056l-12.653,3.647c-1.7-3.349-5.02-2.8-6.161-2.8-1.405,0-3.091-.281-7.3-10.951s-6.461-8.428-8.154-8.428c-1.676,0-3.641-5.9-4.771-7.3-1.115-1.409-1.4-11.517-2.8-15.732-.493-1.454-1.592-1.555-2.961-1.013-2.585,1.039-6.177,4.409-8.556,5.5-3.277,1.517-17.762,5.7-22.585,6.17a4.8,4.8,0,0,1-1.294.017c-2.522-.559-10.945-3.932-13.755-5.906s-4.778-4.493-9.833-2.245-8.141,11.8-8.141,16.285a14.619,14.619,0,0,1-.223,2.167c-1.009,5.938-5.114,17.752-7.078,19.467-2.258,1.968-3.366,27.524-3.366,32.864s-2.532,8.977-6.467,9.549c-3.935.556-7.017,13.755-8.145,19.929-.395,2.166-2.66,4.254-5.592,6.1-.323,8.356-1.473,19.219-5.078,25.634-6.454,11.523,2.517,11.8,3.932,11.8s26.4-.277,26.4-.277,4.549-2.328,4.258.257c-.127,1.089-1.1,3.049-3.7,6.481,0,0-.839,1.686,4.222,2.816,5.052,1.115,3.929,5.612,3.929,7.295,0,1.425.408,19.251-3.866,34.079a24.556,24.556,0,0,0,7.512,6.912s1.968,6.751,13.488-2.235c3.784-2.971,7.529-5.7,10.908-8.042,6.86-4.768,12.115-7.877,12.676-7.693.54.193,4.821-3.592,11.471-2.847.147-6.009.723-12.813,2.568-13.434,3.38-1.124,9.279-9.539,11.236-12.075,1.97-2.519,2.539-10.111,6.464-10.386s9.83-.849,10.385-5.912c.563-5.046-1.679-12.637-1.679-12.637s-2.812-7.292,2.529-11.52a42.883,42.883,0,0,0,8.709-9.533s5.893-10.4,6.18-14.323c.274-3.944.556-13.2.556-13.2s1.4-6.183,6.454-6.742,3.932-7.03,3.375-8.713,2.8-3.656,4.774-2.242c1.366.98,2.33-2.529,3.722-6.085C2866.344,2310.009,2864.027,2305.652,2862.981,2302.714Z" transform="translate(-2492.562 -1799.982)" fill="#b2ebf4" stroke="#f7f7f4" stroke-miterlimit="10" stroke-width="3"/>
    <g id="Group_5765" data-name="Group 5765" transform="translate(-229 -252.75)">
      <rect id="Rectangle_1531" data-name="Rectangle 1531" width="30" height="31.5" transform="translate(517 772)"/>
      <text id="P" transform="translate(532 794.75)" fill="#fff" font-size="24" font-family="FuturaPT-MediumObl, Futura PT" font-weight="500" font-style="oblique" letter-spacing="0.1em"><tspan x="-3.144" y="0">I</tspan></text>
    </g>
  </g>
</svg>
