<svg id="logo_suwatabi" xmlns="http://www.w3.org/2000/svg" width="92.563" height="50.405" viewBox="0 0 92.563 50.405">
  <path id="Path_888" data-name="Path 888" d="M260.007,459.667c-3.081-.06-5.985-.083-8.887-.184q-4-.139-7.986-.423c-2.516-.181-5.031-.409-7.536-.7a73.918,73.918,0,0,1-10.992-1.959,14.951,14.951,0,0,1-3.817-1.477,4.357,4.357,0,0,1-.885-.7,1.142,1.142,0,0,1,0-1.747,4.754,4.754,0,0,1,1.742-1.182,30.061,30.061,0,0,1,5.831-1.708c.392-.083.788-.149,1.178-.239a3.09,3.09,0,0,1,1.929.123,11.241,11.241,0,0,0,7.62.041,7.221,7.221,0,0,1,5.249-.011,11,11,0,0,0,7.824-.077,6.565,6.565,0,0,1,4.708-.009,11.1,11.1,0,0,0,7.959.051,6.937,6.937,0,0,1,4.98-.011,10.993,10.993,0,0,0,7.823.008,7.078,7.078,0,0,1,5.049.015,11.182,11.182,0,0,0,7.829-.02,1.945,1.945,0,0,1,1.027-.1c1.885.426,3.768.867,5.634,1.368a8.808,8.808,0,0,1,2.772,1.229,4.076,4.076,0,0,1,.829.76.988.988,0,0,1,.03,1.307,2.617,2.617,0,0,1-.7.689,13.936,13.936,0,0,1-1.949.993,35.247,35.247,0,0,1-7.191,1.815c-2.3.377-4.616.7-6.933.972-1.779.213-3.567.35-5.355.468-2.636.174-5.275.306-7.913.444-1.107.058-2.216.1-3.324.123C264.315,459.58,262.073,459.623,260.007,459.667Z" transform="translate(-219.499 -409.262)"/>
  <path id="Path_889" data-name="Path 889" d="M260.991,431.511a.839.839,0,0,1-.987.738,5.25,5.25,0,0,0-.971.126l.8-3.5-3.205,1.887-.176-1.793-.1-.008c-.206.977-.42,1.953-.616,2.932-.108.54-.118.544-.676.608-1.053.119-2.1.262-3.156.39-.183.022-.368.027-.63.045.088-.406.164-.761.243-1.116.263-1.173.54-2.342.781-3.519.061-.3.145-.443.476-.477,1.125-.115,2.245-.27,3.368-.4a5.411,5.411,0,0,1,.592,0l-.256,1.12a.684.684,0,0,0,.172.045c.745-.069.741-.07.9-.794q.875-3.9,1.754-7.795c.051-.226.09-.455.154-.781l-.934.072c.054-.765.057-.739.745-.814,1.382-.15,2.761-.328,4.14-.5q2-.248,4-.507c.436-.056.872-.12,1.319-.183-.081.729-.083.716-.715.79q-1.755.206-3.506.443c-.681.093-.678.108-.831.821-.084.391-.174.781-.254,1.173-.008.038.029.084.069.19l4.4-.549c-.167.638-.3,1.2-.463,1.755a22.222,22.222,0,0,1-2.3,5.307.865.865,0,0,0,.025,1.092c.322.433.652.861,1.039,1.371l-1.6,1.977a10.775,10.775,0,0,1-.991-2.066l-2.245,2.457a.431.431,0,0,1-.37-.539,3.261,3.261,0,0,0,.5-.479c.451-.663.873-1.345,1.31-2.016a1.931,1.931,0,0,0,.349-1.731,1.332,1.332,0,0,1-.021-.492c.1-1.385.2-2.771.308-4.155.025-.3.121-.6.157-.9.01-.085-.07-.253-.12-.257a.349.349,0,0,0-.291.122,2.347,2.347,0,0,0-.156.541c-.568,2.5-1.141,5.005-1.7,7.511C261.181,430.256,261.1,430.886,260.991,431.511Zm4.806-10.318a8.419,8.419,0,0,0-.878.005c-.487.055-.607.162-.641.671-.071,1.053-.118,2.108-.15,3.163a4.688,4.688,0,0,0,.117.82A21.14,21.14,0,0,0,265.8,421.192Zm-11.028,7.171c-.707.06-.713.059-.84.6-.189.8-.375,1.6-.549,2.4a4.291,4.291,0,0,0-.042.612c.349-.031.625.013.708-.391C254.262,430.527,254.516,429.481,254.77,428.363Zm5.818-2.885c-.827.011-.87.041-1,.628-.113.506-.23,1.011-.338,1.518-.036.172-.049.35-.083.606.372-.158.8-.013.913-.427C260.275,427.058,260.412,426.3,260.588,425.478Zm.777-3.4c-.4.164-.8-.081-.928.389-.2.758-.358,1.528-.54,2.318.884-.079.888-.078,1.053-.8C261.081,423.408,261.2,422.834,261.365,422.074Zm-.635-.716c.705.1.755.106.846-.238.189-.715.337-1.441.533-2.3-.387.136-.788-.083-.905.294A9.461,9.461,0,0,0,260.73,421.359Z" transform="translate(-232.511 -396.279)"/>
  <path id="Path_890" data-name="Path 890" d="M358.4,427.193q-1.94.081-3.88.161c-.9.038-1.79.089-2.686.119a2.222,2.222,0,0,1-.7-.068,23.66,23.66,0,0,1-6.809-3.077,21.479,21.479,0,0,1-4.344-3.824,7.049,7.049,0,0,1-1.844-5.053,2.567,2.567,0,0,0-.014-.281c-.447-.115-.522.185-.591.489q-.353,1.551-.7,3.1-.638,2.828-1.271,5.656a6,6,0,0,0-.115.768.438.438,0,0,1-.448.446c-.721.075-1.441.158-2.238.246l2.219-9.714-1.656.5c-.279-.6-.258-.559.29-.846,1.19-.624,2.386-1.245,3.525-1.956,1.16-.723,2.262-1.539,3.373-2.337.358-.257.666-.586,1.068-.945l1.447,2.322c-1.113.5-2.137.969-3.169,1.42-.694.3-.7.291-.694,1.024a13.733,13.733,0,0,0,.234,2.131,21.358,21.358,0,0,0,2.71-3.2,11.957,11.957,0,0,1,1.242,1.812c.148.217-.024.348-.2.438-.908.451-1.809.917-2.729,1.342-.862.4-.9.456-.289,1.154a15.932,15.932,0,0,0,5.649,4.171,51.842,51.842,0,0,0,10.731,3.29c.416.083.831.176,1.239.291a6.457,6.457,0,0,1,.7.282Z" transform="translate(-265.879 -393.537)"/>
  <path id="Path_891" data-name="Path 891" d="M320.969,409.985c-.575-.194-1.084.174-1.65.089a1.975,1.975,0,0,1,0-.406c.121-.555.133-.55.689-.595s1.124-.132,1.688-.156c.337-.014.452-.19.51-.469.167-.808.347-1.613.5-2.423.113-.618.093-.639.726-.736.668-.1,1.341-.167,2.105-.259l-.8,3.44a23.042,23.042,0,0,0,2.774-.322,4.69,4.69,0,0,1,0,.54c-.039.325-.213.469-.564.5-.986.077-1.968.206-2.953.3-.261.025-.461.088-.523.37-.225,1.029-.45,2.058-.694,3.176l3.325-.433a4.24,4.24,0,0,1-.044.6,80.734,80.734,0,0,1-2.521,8.909,6.121,6.121,0,0,1-.557,1.139,1.522,1.522,0,0,1-1.3.723,12.635,12.635,0,0,1-2.715-.436c-.316-.047-.233-.3-.227-.5.008-.242.111-.4.384-.4.423-.012.846-.06,1.269-.058a.968.968,0,0,0,.981-.757c.256-.735.551-1.458.757-2.206.488-1.772.934-3.555,1.394-5.335a2.894,2.894,0,0,0,.038-.4,3.846,3.846,0,0,1-.414,0c-.5-.057-.694.214-.821.662a21.8,21.8,0,0,1-3.2,6.823c-.849,1.186-1.806,2.294-2.741,3.47l-.574-.333a.828.828,0,0,1,.054-.177c.375-.569.793-1.114,1.123-1.707a34.64,34.64,0,0,0,3.14-8.688c.288-1.167.543-2.341.808-3.513A2.9,2.9,0,0,0,320.969,409.985Z" transform="translate(-258.938 -391.264)"/>
  <path id="Path_892" data-name="Path 892" d="M298.882,415.682l-2.093.275c-.054-.745-.006-.8.6-.847q.88-.071,1.758-.175c.57-.068.613-.106.741-.66.153-.666.3-1.333.425-2,.064-.352.208-.539.588-.565.583-.04,1.163-.123,1.853-.2-.235,1.03-.45,1.973-.692,3.037l3.5-.456c.073.738,0,.8-.681.874-1.124.116-2.244.276-3.368.4a.55.55,0,0,0-.551.517c-.154.762-.351,1.515-.526,2.272a1.964,1.964,0,0,0,0,.35l3.612-.457c-.193.85-.318,1.613-.54,2.345-.533,1.759-1.109,3.5-1.672,5.254a3.622,3.622,0,0,1-.226.518,1.923,1.923,0,0,1-2.283,1.245c-.562-.058-1.121-.143-1.682-.216-.5-.064-.5-.065-.4-.57a1.344,1.344,0,0,1,.083-.208c.489-.037.978-.07,1.466-.111a.975.975,0,0,0,.882-.608,39.494,39.494,0,0,0,2.008-6.5,3.026,3.026,0,0,0-1.407.1c-.117.016-.22.333-.281.526a16.6,16.6,0,0,1-1.971,4.138,18.36,18.36,0,0,1-3.822,4.051c-.335.275-.492.089-.676-.19C296.835,424.479,297.91,420.178,298.882,415.682Z" transform="translate(-249.811 -393.915)"/>
  <path id="Path_893" data-name="Path 893" d="M261.7,385.328a2.4,2.4,0,0,1,1.428-1.939,18.838,18.838,0,0,1,4.108-1.509,8.31,8.31,0,0,1,2.813-.083,2.174,2.174,0,0,1,1.607,1.165,8.217,8.217,0,0,1,.436.965c.135.327.263.658.371.994a1.974,1.974,0,0,0,2.36,1.324,10.407,10.407,0,0,0,4.035-1.453c1.153-.687,2.25-1.47,3.372-2.211l.636-.422c-.119.345-.174.541-.254.727-1.668,3.881-3.35,7.756-5,11.646a1.7,1.7,0,0,1-.994,1.009c-.262.1-.511.239-.857.4a4.473,4.473,0,0,1,.141-.5q1.943-4.52,3.891-9.038c.129-.3.223-.618.332-.928l.03-.042-.021.051c-.233.1-.473.194-.7.317a13.585,13.585,0,0,1-4.524,1.729,6.351,6.351,0,0,1-1.544.058,2.317,2.317,0,0,1-1.934-1.248c-.206-.395-.357-.817-.528-1.229-.154-.369-.273-.755-.46-1.106a1.713,1.713,0,0,0-1.546-.941,8.572,8.572,0,0,0-3.509.674c-1.029.4-2.021.9-3.03,1.345-.212.1-.429.178-.644.266Z" transform="translate(-236.78 -381.716)"/>
  <path id="Path_894" data-name="Path 894" d="M250.17,385.2c-.252.6-.5,1.208-.759,1.81q-3.33,7.776-6.663,15.55-3.293,7.677-6.591,15.351c-.2.455-.387.912-.586,1.366-.239.545-.273.563-.853.478-.14-.021-.28-.043-.417-.074-.041-.01-.076-.052-.148-.105.458-1.074.918-2.158,1.381-3.239q3.357-7.841,6.717-15.681,3.221-7.514,6.446-15.026C249.032,384.851,249.239,384.789,250.17,385.2Z" transform="translate(-225.5 -383.041)"/>
  <path id="Path_895" data-name="Path 895" d="M272.355,402.117c-.216.587-.368,1.048-.558,1.494a.812.812,0,0,1-.334.343,13.279,13.279,0,0,1-4.492,1.841,5.687,5.687,0,0,1-1.621.021,2.483,2.483,0,0,1-2.07-1.714c-.2-.505-.382-1.015-.57-1.524a1.862,1.862,0,0,0-1.984-1.275,9.958,9.958,0,0,0-3.566.811c-.916.372-1.8.82-2.7,1.236-.206.1-.408.2-.732.355.282-.82.427-1.507,1.215-1.906a16.514,16.514,0,0,1,4.7-1.721,6.811,6.811,0,0,1,2.248-.093,2.506,2.506,0,0,1,1.983,1.418,13.256,13.256,0,0,1,.54,1.382c.576,1.607,1.345,2.009,3,1.543a22.079,22.079,0,0,0,4.4-1.934C271.94,402.321,272.081,402.255,272.355,402.117Z" transform="translate(-233.516 -389.174)"/>
  <path id="Path_896" data-name="Path 896" d="M283.788,436.2c.309-1.35.6-2.606.882-3.862q.07-.309.133-.62c.182-.9.181-.905,1.065-1.02q2.2-.286,4.406-.561c.039,0,.083.031.159.062a1.1,1.1,0,0,1,0,.248c-.353,1.536-.725,3.067-1.052,4.608-.073.342-.2.464-.537.5-1.355.156-2.706.338-4.059.511C284.484,436.109,284.185,436.149,283.788,436.2Zm4.452-5.012c-.408.031-.687.063-.967.071-.316.009-.438.169-.5.472-.2.967-.443,1.926-.656,2.89a2.554,2.554,0,0,0-.005.526c.328-.035.584-.08.841-.085.341-.007.49-.158.556-.5.139-.715.331-1.42.491-2.131C288.085,432.05,288.149,431.66,288.24,431.189Z" transform="translate(-245.825 -401.545)"/>
  <path id="Path_897" data-name="Path 897" d="M333.1,411.331a25.291,25.291,0,0,0,3.744-7.134c.115-.339.25-.43.607-.376.76.116,1.529.172,2.432.267l-1.832,2.783c2.318-.243,4.536-.538,6.753-.866.172.25.005.468-.024.686s-.188.291-.4.316q-2.98.346-5.957.71a3.481,3.481,0,0,1-.558.081,1.314,1.314,0,0,0-1.056.585c-.931,1-1.882,1.982-2.834,2.963C333.6,411.729,333.59,411.718,333.1,411.331Z" transform="translate(-266.019 -390.762)"/>
  <path id="Path_898" data-name="Path 898" d="M287.687,417.1a4.2,4.2,0,0,0,.087-.427c.025-.321.206-.442.513-.455.4-.017.8-.064,1.2-.089a.616.616,0,0,0,.649-.59c.091-.58.259-1.149.342-1.73.046-.319.168-.442.484-.47.58-.05,1.157-.138,1.841-.224l-.584,2.582a8.468,8.468,0,0,0,1.865-.184c.027.762,0,.772-.656.847-1.285.147-2.567.323-3.851.489C288.972,416.928,288.369,417.01,287.687,417.1Z" transform="translate(-247.422 -394.574)"/>
  <path id="Path_899" data-name="Path 899" d="M255.215,421.962c.038-.761.038-.761.726-.8.165-.009.33-.017.494-.03a.623.623,0,0,0,.64-.614c.065-.488.21-.966.282-1.454.053-.356.2-.556.575-.588.484-.04.966-.1,1.476-.152l-.544,2.435,1.485-.138c-.041.765-.044.742-.664.814-1.425.167-2.847.36-4.271.539A1.075,1.075,0,0,1,255.215,421.962Z" transform="translate(-234.124 -396.706)"/>
  <path id="Path_900" data-name="Path 900" d="M311.169,395.27c.064-.49.127-.98.192-1.47a.77.77,0,0,1,.054-.276c.074-.131.166-.324.276-.342s.291.131.351.252c.212.421.384.862.572,1.294l.223.506c.077-.484.14-.853.194-1.224.056-.387.1-.775.155-1.163l.151.01a5.639,5.639,0,0,1,0,.655c-.077.655-.181,1.307-.256,1.962-.027.237-.094.409-.351.455-.293.053-.352-.174-.436-.366a7.021,7.021,0,0,0-.714-1.357c-.071.423-.136.846-.216,1.267-.05.264,0,.612-.391.657s-.418-.322-.518-.561c-.311-.735-.6-1.48-.891-2.218.59-.265.625-.258.82.222.23.566.449,1.135.673,1.7Z" transform="translate(-256.378 -386.274)"/>
  <path id="Path_901" data-name="Path 901" d="M337.724,391.357a2.182,2.182,0,0,1,.357.168.707.707,0,0,1-.1,1.291,7.312,7.312,0,0,1-1.647.313.436.436,0,0,1-.34-.257c-.128-.81-.227-1.626-.311-2.442a.366.366,0,0,1,.217-.284,9.1,9.1,0,0,1,1.607-.114.64.64,0,0,1,.495.955A2.262,2.262,0,0,1,337.724,391.357Zm-1.241.262c.059.391.1.69.153.985.016.082.106.219.146.214a2.091,2.091,0,0,0,.787-.185c.126-.076.181-.366.17-.554a.508.508,0,0,0-.513-.487C337.021,391.576,336.813,391.6,336.483,391.619Zm-.109-.905c0,.549.086.7.371.684a.6.6,0,0,0,.629-.6.563.563,0,0,0-.612-.6C336.467,390.2,336.371,390.332,336.374,390.714Z" transform="translate(-267.077 -385.118)"/>
  <path id="Path_902" data-name="Path 902" d="M287.241,427.294c-.038-.765.013-.8.66-.873,1.382-.146,2.761-.316,4.144-.478.114.592.04.714-.544.792C290.082,426.926,288.662,427.108,287.241,427.294Z" transform="translate(-247.235 -399.828)"/>
  <path id="Path_903" data-name="Path 903" d="M288.168,422.98c.024-.707.021-.722.618-.8,1.417-.19,2.837-.364,4.261-.546-.026.811-.041.8-.689.872C290.977,422.647,289.6,422.815,288.168,422.98Z" transform="translate(-247.619 -398.062)"/>
  <path id="Path_904" data-name="Path 904" d="M298.771,397.183a2.8,2.8,0,0,0,.647.265,1.5,1.5,0,0,0,.741-.069.578.578,0,0,0,.233-.453.517.517,0,0,0-.273-.355,2.917,2.917,0,0,0-.609-.163,3.514,3.514,0,0,1-.609-.169.805.805,0,0,1-.207-1.345,1.9,1.9,0,0,1,1.673-.276c.208.1.184.244.019.43a1.731,1.731,0,0,0-.462-.22,1.372,1.372,0,0,0-.667.03.553.553,0,0,0-.311.407.565.565,0,0,0,.329.389,8.173,8.173,0,0,0,.891.2c.564.148.809.4.84.82a.751.751,0,0,1-.492.845,2.853,2.853,0,0,1-1.666.141C298.481,397.6,298.657,397.379,298.771,397.183Z" transform="translate(-251.816 -386.962)"/>
  <path id="Path_905" data-name="Path 905" d="M320.806,394.992c-.7.206-.7.2-.983-.282-.124-.212-.162-.547-.493-.528a5.333,5.333,0,0,0-1.03.187c-.076.02-.125.185-.162.292a2.38,2.38,0,0,1-.325.712.92.92,0,0,1-.014-.268c.2-.8.409-1.593.615-2.389.066-.257.133-.494.472-.526.3-.028.417.154.537.364C319.872,393.348,320.324,394.143,320.806,394.992Zm-1.385-1.023a3.414,3.414,0,0,0-.787-1.267l-.309,1.336Z" transform="translate(-259.749 -386.004)"/>
  <path id="Path_906" data-name="Path 906" d="M332.8,393.475c-.688.214-.74.236-.974-.327s-.633-.464-1.051-.426c-.5.046-.507.064-.68.638a1.066,1.066,0,0,1-.319.532,1.954,1.954,0,0,1,.028-.3c.2-.774.4-1.548.6-2.32.065-.244.1-.508.442-.556.366-.051.49.184.633.439C331.909,391.912,332.343,392.665,332.8,393.475Zm-1.4-1.051-.631-1.209-.142.03-.331,1.34Z" transform="translate(-264.659 -385.398)"/>
  <path id="Path_907" data-name="Path 907" d="M306.489,393.811c.089.672.2,1.342.26,2.016a.972.972,0,0,1-.81,1.088,2.9,2.9,0,0,1-.913.031.85.85,0,0,1-.8-.7c-.116-.624-.2-1.255-.256-1.887a.457.457,0,0,1,.239-.348c.216-.092.364.055.4.272.083.559.133,1.123.229,1.68a.82.82,0,0,0,1.244.681.829.829,0,0,0,.421-.9c-.05-.539-.127-1.076-.187-1.615a2.8,2.8,0,0,1,0-.316Z" transform="translate(-254.09 -386.669)"/>
  <path id="Path_908" data-name="Path 908" d="M258.355,430.41c-.108.753-.11.732-.753.8-1.051.108-2.1.246-3.148.371-.084-.643,0-.734.566-.8.982-.109,1.96-.248,2.94-.37A3.264,3.264,0,0,1,258.355,430.41Z" transform="translate(-233.801 -401.654)"/>
  <path id="Path_909" data-name="Path 909" d="M255.335,427.556c.032-.748.041-.745.605-.8,1.074-.111,2.146-.237,3.22-.356.126.624.064.706-.486.771-1,.118-2,.259-3.006.386A2.62,2.62,0,0,1,255.335,427.556Z" transform="translate(-234.174 -400.013)"/>
  <path id="Path_910" data-name="Path 910" d="M323.535,391.532l2.485-.33.034.14-.885.238c.069.585.139,1.18.207,1.776.027.233.054.466.071.7s-.119.381-.329.358a.453.453,0,0,1-.32-.277c-.1-.507-.148-1.022-.214-1.534-.009-.07-.008-.141-.014-.211-.067-.756-.067-.755-.857-.721a1.241,1.241,0,0,1-.191-.021Z" transform="translate(-262.096 -385.601)"/>
  <path id="Path_911" data-name="Path 911" d="M342.207,389.41c.124.958.248,1.864.346,2.772.009.082-.151.253-.238.257a.507.507,0,0,1-.393-.164,1.169,1.169,0,0,1-.091-.478c-.079-.606-.165-1.211-.228-1.819C341.555,389.5,341.569,389.5,342.207,389.41Z" transform="translate(-269.493 -384.867)"/>
  <path id="Path_912" data-name="Path 912" d="M261.687,387.857l-.043.052-.033-.032.053-.043Z" transform="translate(-236.744 -384.221)"/>
</svg>
