<svg id="logo_machigohan" xmlns="http://www.w3.org/2000/svg" width="137.406" height="52.543" viewBox="0 0 137.406 52.543">
  <path id="Path_840" data-name="Path 840" d="M964.977,406.25a1,1,0,0,1-.45-.113c-2.1-1.088-4.089-2.1-6.077-2.963-.075,4.764-2.477,9.266-11.329,9.266-7.428,0-10.091-3.714-10.091-7.578s3.376-7.316,9.941-7.316a30.137,30.137,0,0,1,8.177,1.163v-4.764h-1.088l-.713-.15h-7.99c-.563,0-1.013-.563-1.013-1.388,0-.862.45-1.426,1.013-1.426h9.79v-5.889h-9.754c-.6,0-1.05-.563-1.05-1.463s.45-1.463,1.05-1.463h9.754v-1.725c0-.675.638-1.163,1.651-1.163s1.651.488,1.651,1.163v1.725h4.764c.6,0,1.05.563,1.05,1.463s-.449,1.463-1.05,1.463H958.45v5.889h4.764c.6,0,1.05.6,1.05,1.5s-.449,1.463-1.05,1.463H958.45v5.815c2.551.938,4.951,2.063,7.389,3.151a1.223,1.223,0,0,1,.675,1.237c0,1.089-.75,2.1-1.538,2.1m-9.828-4.389a24.644,24.644,0,0,0-7.99-1.35c-4.051,0-6.677,1.876-6.677,4.276,0,2.326,1.688,4.689,6.64,4.689,6.752,0,8.028-3.413,8.028-7.5Z" transform="translate(-937.03 -360.046)"/>
  <path id="Path_841" data-name="Path 841" d="M987,388.672a15.127,15.127,0,0,0-8.054,2.379c.3-1.462.689-3.759.953-6.087h6.075c.68,0,1.172-.64,1.172-1.523s-.482-1.522-1.172-1.522h-5.808c.016-.3.027-.61.027-.9,0-.7-.646-1.2-1.573-1.2-1.594,0-1.625,1.176-1.645,1.955,0,.048,0,.1,0,.145H973.7c-.706,0-1.2.626-1.2,1.522s.5,1.523,1.2,1.523h3.036a55.247,55.247,0,0,1-1.436,8.4,1.093,1.093,0,0,0-.046.359c0,1,1.226,1.548,2.073,1.548a1.4,1.4,0,0,0,.929-.31,14.559,14.559,0,0,1,8.424-3.216c4.364,0,5.256,3.06,5.256,3.88a6.42,6.42,0,0,1-1.428,3.706,1.259,1.259,0,0,0-.272.82,1.784,1.784,0,0,0,1.748,1.624,1.119,1.119,0,0,0,.8-.324l.012-.013a9.164,9.164,0,0,0,2.338-5.863c0-2.667-2.207-6.9-8.126-6.9" transform="translate(-941.438 -360.114)"/>
  <path id="Path_842" data-name="Path 842" d="M1005.818,383.566h6.9l-.942.928a1.009,1.009,0,0,0-.256.7,1.627,1.627,0,0,0,1.5,1.458,1.068,1.068,0,0,0,.756-.334l2.809-2.945a1.166,1.166,0,0,0,.323-.857c0-.845-.541-1.75-1.345-1.75h-9.745c-.646,0-1.1.581-1.1,1.412,0,.806.461,1.39,1.1,1.39" transform="translate(-945.443 -360.231)"/>
  <path id="Path_843" data-name="Path 843" d="M1020.4,382.721c.38,0,1.525-.429,1.525-1.209,0-.391-.429-1.57-1.21-1.57-.455,0-1.525.419-1.525,1.232,0,.318.376,1.547,1.21,1.547" transform="translate(-947.241 -360.129)"/>
  <path id="Path_844" data-name="Path 844" d="M1019.972,398.287h-8.326c-3.04,0-4.754-.362-5.558-1.174a2.355,2.355,0,0,1-.614-1.772,3.774,3.774,0,0,1,.586-1.787,1.7,1.7,0,0,0,.292-.764c0-.683-.884-1.233-1.615-1.233a1.19,1.19,0,0,0-1.1.562,6.371,6.371,0,0,0-1.1,3.439c0,3.928,2.646,5.53,9.132,5.53h8.3c.649,0,1.12-.594,1.12-1.412a1.249,1.249,0,0,0-1.12-1.391" transform="translate(-945.171 -361.573)"/>
  <path id="Path_845" data-name="Path 845" d="M1024.57,378.837c-.443,0-1.525.432-1.525,1.232,0,.318.375,1.547,1.209,1.547.392,0,1.525-.408,1.525-1.187,0-.409-.416-1.592-1.209-1.592" transform="translate(-947.72 -359.992)"/>
  <path id="Path_846" data-name="Path 846" d="M1052.221,393.878c-.938-.39-1.833-.717-2.666-.974v-6.917h1.879c.693,0,1.2-.64,1.2-1.523s-.5-1.523-1.2-1.523h-1.879v-1.753c0-.683-.654-1.2-1.523-1.2s-1.547.515-1.547,1.2v1.753h-5.254c-.692,0-1.173.626-1.173,1.523s.481,1.523,1.173,1.523h5.254v6.165a21.045,21.045,0,0,0-3.929-.382c-3.335,0-6.7,1.739-6.7,5.625,0,3.224,2.713,5.474,6.6,5.474,4.438,0,7.015-2.46,7.1-6.758a16.181,16.181,0,0,1,1.529.63.9.9,0,0,0,.476.1,1.537,1.537,0,0,0,1.373-1.7,1.235,1.235,0,0,0-.71-1.266m-9.84.813a18.61,18.61,0,0,1,4.1.512v.541c0,2.762-1.35,4.105-4.129,4.105-2.111,0-3.53-.987-3.53-2.455,0-1.617,1.428-2.7,3.556-2.7" transform="translate(-949.312 -360.135)"/>
  <path id="Path_847" data-name="Path 847" d="M1031.238,379.933c-.882,0-1.522.493-1.522,1.173v16.682c0,.654.654,1.147,1.522,1.147a1.327,1.327,0,0,0,1.473-1.147V381.106a1.318,1.318,0,0,0-1.473-1.173" transform="translate(-948.549 -360.128)"/>
  <path id="Path_848" data-name="Path 848" d="M1079.063,412.643c-5.139,0-7.615-2.551-7.615-8.815v-6.94c0-2.589-.788-3.227-2.513-3.227-2.026,0-4.352,2.026-6.265,4.54-.45,2.326-.825,4.389-1.125,5.739-.113.525-.6.9-1.5.9-1.05,0-1.875-.563-1.875-1.313v-.187c.975-5.027,3.376-18.457,3.751-22.433.075-.675.751-1.2,1.8-1.2.976,0,1.651.488,1.651,1.088v.113c-.187,2.251-1.05,7.691-1.95,12.867,2.063-2.138,4.277-3.639,6.827-3.639,2.326,0,4.614,1.388,4.614,5.477v8.028c0,3.865,1.05,5.59,4.24,5.59,4.013,0,6.151-3.339,7.09-9.866a1.256,1.256,0,0,1,1.35-.9c1.238,0,1.951.637,1.951,1.388V400c-1.237,8.816-4.5,12.642-10.428,12.642" transform="translate(-952.085 -360.099)"/>
  <path id="Path_849" data-name="Path 849" d="M996.2,365.545h-2.343a.575.575,0,0,0-.548.612.591.591,0,0,0,.548.628H996.2a.591.591,0,0,0,.548-.628.575.575,0,0,0-.548-.612" transform="translate(-944.025 -358.339)"/>
  <path id="Path_850" data-name="Path 850" d="M996.2,363.033h-2.343a.631.631,0,0,0,0,1.256H996.2a.631.631,0,0,0,0-1.256" transform="translate(-944.022 -358.027)"/>
  <path id="Path_851" data-name="Path 851" d="M997.014,361.752a.722.722,0,0,0,0-1.431h-4.225a.722.722,0,0,0,0,1.431Z" transform="translate(-943.882 -357.69)"/>
  <path id="Path_852" data-name="Path 852" d="M993.854,359.082H996.2a.631.631,0,0,0,0-1.256h-2.343a.632.632,0,0,0,0,1.256" transform="translate(-944.022 -357.38)"/>
  <path id="Path_853" data-name="Path 853" d="M995.833,368.04H994.1a1.284,1.284,0,0,0-1.3,1.3V371.9a1.276,1.276,0,0,0,1.3,1.281h1.737a1.276,1.276,0,0,0,1.3-1.281v-2.567a1.284,1.284,0,0,0-1.3-1.3m.027,1.553v2.057a.28.28,0,0,1-.281.3h-1.228a.28.28,0,0,1-.28-.3v-2.057a.253.253,0,0,1,.28-.264h1.228a.256.256,0,0,1,.281.264" transform="translate(-943.961 -358.65)"/>
  <path id="Path_854" data-name="Path 854" d="M1006.732,358.535a.664.664,0,0,0-.612-.708h-7.43a.664.664,0,0,0-.611.708.684.684,0,0,0,.605.739v11.149a.714.714,0,0,0-.605.755.7.7,0,0,0,.629.739,11.364,11.364,0,0,0,3.054-.267v.053a.654.654,0,0,0,1.3,0V359.274h3.056a.683.683,0,0,0,.612-.739m-6.713,11.883v-3h1.742v2.744a5.817,5.817,0,0,1-1.742.254m1.742-4.4h-1.742v-2.666h1.742Zm0-4.066h-1.742v-2.682h1.742Z" transform="translate(-944.617 -357.38)"/>
  <path id="Path_855" data-name="Path 855" d="M1006.967,368.826a15.838,15.838,0,0,0,1.258-6.828c0-.808-.346-1.185-1.09-1.185H1004.7a.67.67,0,0,0-.628.691.689.689,0,0,0,.628.723h2.009a.3.3,0,0,1,.313.329,14.806,14.806,0,0,1-.846,4.888,10.848,10.848,0,0,1-.77-3.552.551.551,0,0,0-.547-.433.62.62,0,0,0-.612.6v.041a12.283,12.283,0,0,0,1.26,4.724,5.731,5.731,0,0,1-1.173,1.435.725.725,0,0,0-.167.448.647.647,0,0,0,.66.659c.362,0,.851-.457,1.456-1.361.659.862,1.132,1.281,1.445,1.281a.686.686,0,0,0,.659-.74.673.673,0,0,0-.229-.51,7.136,7.136,0,0,1-1.188-1.208" transform="translate(-945.362 -357.751)"/>
  <path id="Path_856" data-name="Path 856" d="M1025.061,359.1h2.646a.64.64,0,0,0,0-1.272h-2.646a.629.629,0,0,0-.58.628.622.622,0,0,0,.58.644" transform="translate(-947.899 -357.38)"/>
  <path id="Path_857" data-name="Path 857" d="M1027.715,368.059h-2.9a1.276,1.276,0,0,0-1.3,1.281v2.582a1.3,1.3,0,0,0,1.3,1.3h2.9a1.3,1.3,0,0,0,1.3-1.3V369.34a1.275,1.275,0,0,0-1.3-1.281m-.1,1.536v2.073a.28.28,0,0,1-.28.3h-2.152a.28.28,0,0,1-.282-.3v-2.073a.273.273,0,0,1,.282-.264h2.152a.272.272,0,0,1,.28.264" transform="translate(-947.779 -358.652)"/>
  <path id="Path_858" data-name="Path 858" d="M1027.708,363.051h-2.662a.6.6,0,0,0-.565.628.622.622,0,0,0,.565.628h2.662a.614.614,0,0,0,.565-.628.592.592,0,0,0-.565-.628" transform="translate(-947.899 -358.03)"/>
  <path id="Path_859" data-name="Path 859" d="M1028.877,360.321h-5.388a.7.7,0,0,0-.628.739.671.671,0,0,0,.628.708h5.388a.671.671,0,0,0,.628-.708.7.7,0,0,0-.628-.739" transform="translate(-947.697 -357.69)"/>
  <path id="Path_860" data-name="Path 860" d="M1037.967,360.788a.74.74,0,0,0,.66-.772.748.748,0,0,0-.66-.755h-2.529v-1.286a.721.721,0,0,0-.787-.659.743.743,0,0,0-.8.659v1.286h-2.609a.771.771,0,0,0,0,1.526h1.334V364a6.842,6.842,0,0,1-1.683,4.862.632.632,0,0,0-.135.4.748.748,0,0,0,.756.771.77.77,0,0,0,.534-.2,7.515,7.515,0,0,0,2.033-5.168h2.247a.28.28,0,0,1,.3.281v4.384a1.132,1.132,0,0,1-1.142,1.222h-.383c-.28,0-.564.254-.564.739a.746.746,0,0,0,.771.771h.526a2.309,2.309,0,0,0,2.317-2.35v-5.246a1.291,1.291,0,0,0-1.3-1.313H1034.1v-2.363Z" transform="translate(-948.657 -357.317)"/>
  <path id="Path_861" data-name="Path 861" d="M1027.71,365.564h-2.662a.582.582,0,0,0-.548.612.6.6,0,0,0,.548.611h2.662a.582.582,0,0,0,.548-.611.575.575,0,0,0-.548-.612" transform="translate(-947.901 -358.342)"/>
  <path id="Path_862" data-name="Path 862" d="M982,364.821l.811,2.227a.274.274,0,0,1-.164.351l-.069.026a.274.274,0,0,1-.351-.164l-.814-2.238a.514.514,0,0,0-.967.352l.813,2.237a.274.274,0,0,1-.164.351l-.068.025a.275.275,0,0,1-.352-.165l-.81-2.227a.5.5,0,1,0-.933.349c.279.769.773,2.126.773,2.126.425,1.182.819,1.386,1.42,1.585.482.159.865.213,1.133.948l1.723,4.734,1.128-.411-1.723-4.734a1.354,1.354,0,0,1,.258-1.455c.333-.538.5-.947.069-2.126,0,0-.495-1.357-.774-2.126a.5.5,0,1,0-.94.334" transform="translate(-942.233 -358.165)"/>
  <path id="Path_863" data-name="Path 863" d="M1050.881,364.59a13.237,13.237,0,0,0-2.3,3.282c-.853,2.133.586,2.3.095,3.717l-1.029,2.828,1.122.409.115-.3-.109.3,1.722-4.734,1.814-4.982c.3-.82-.681-1.432-1.434-.522" transform="translate(-950.778 -358.165)"/>
</svg>
