<svg id="logo_hachikatte" xmlns="http://www.w3.org/2000/svg" width="153.903" height="25.299" viewBox="0 0 153.903 25.299">
  <path id="Path_864" data-name="Path 864" d="M252.675,67.2l.013-5.623h-3.415l.011-.019h-6.857l-.01.018-17.124,0,.028,5.626H238.99l-1.721,2.824H225.293l.028,5.626h8.519l-5.119,8.4h6.857l5.119-8.4h11.978l.013-5.622h-8.564l1.722-2.825Z" transform="translate(-191.12 -58.781)"/>
  <path id="Path_865" data-name="Path 865" d="M414.664,67.215l.013-5.623-27.4,0,.028,5.626Z" transform="translate(-260.773 -58.795)"/>
  <path id="Path_866" data-name="Path 866" d="M411.242,77.2h-6.857l-.006.01-17.1,0,.028,5.626h13.636l-5.131,8.4h6.857l5.131-8.4h6.862l.013-5.622h-3.44Z" transform="translate(-260.774 -65.965)"/>
  <path id="Path_867" data-name="Path 867" d="M182.45,67.229l3.419-5.618h-6.857L165.342,84.074H172.2l10.245-16.836L192.7,84.072h6.857L189.3,67.229Z" transform="translate(-165.342 -58.805)"/>
  <path id="Path_868" data-name="Path 868" d="M306.676,59.224l.005-.008H303.7l-10.684,0V56.421h-6.837v2.792h-6.868l.029,5.626h6.839v5.636L279.334,81.72h6.857l6.844-11.245h-.019V64.839h6.823v11.23l-3.4,5.63H303.3l3.4-5.638h-.024Z" transform="translate(-214.348 -56.421)"/>
  <path id="Path_869" data-name="Path 869" d="M358.194,80.342V71.891h-6.837v8.477h6.822L353.044,88.8H359.9l10.253-16.846H363.3Z" transform="translate(-245.326 -63.526)"/>
  <rect id="Rectangle_1455" data-name="Rectangle 1455" width="6.837" height="8.477" transform="translate(95.771 8.364)"/>
</svg>
