<svg xmlns="http://www.w3.org/2000/svg" xmlns:xlink="http://www.w3.org/1999/xlink" width="293.112" height="255.262" viewBox="0 0 293.112 255.262">
  <defs>
    <clipPath id="clip-path">
      <rect y="86" width="293.112" height="255.262" fill="none"/>
    </clipPath>
  </defs>
  <g id="Scroll_Group_2" data-name="Scroll Group 2" transform="translate(0 -86)" clip-path="url(#clip-path)" style="isolation: isolate">
    <g id="Group_6455" data-name="Group 6455" transform="translate(-326.05 -4935.449)">
      <path id="Path_5979" data-name="Path 5979" d="M3265.8,2400.011c-6.109-9.17-11.989-13.874-13.636-28.69,0,0,4.937-4.7-8.23-10.117,0,0-3.381,1.165-6.665-2.319-5.795.448-12.257.9-14.007.9-3.3,0-14.1,2.821-15.983,2.821a95.884,95.884,0,0,1-16.452-3.276c-3.993-1.423-20.213.234-23.262.455-3.059.241-5.177,2.591-10.818-.931a7.614,7.614,0,0,0-4.089-1.053c-4.586-18.031-27.157-22.785-29.517-23.646-2.584-.936-5.639-3.766-5.639-6.815s-.476-3.524-4.937-3.056c-2.051.214-3.406.725-4.734.342,3.4-7.788,9.088-15.094,12.433-19.01,1.589-1.863,2.641-2.961,2.641-2.961,3.76-5.174,17.857-6.122,17.857-6.122a97.053,97.053,0,0,0,12.927-2.127c5.406-1.4,8.7-4.7,10.577-5.176s4.467-5.157,4.467-7.272c0-.7.01-1.385-.042-2.017,6.65-2.906,18.467-5.4,31.853,3.96a5.425,5.425,0,0,1,1.324-2.189s9.4-6.585,6.579-15.517c0,0-3.522-15.989-9.632-15.527,0,0-16.684,2.123-22.558-8.692s1.173-8.943-5.413-13.649c-4.866-3.476-6.38-4.262-5.407-6.713a22.505,22.505,0,0,1,1.892-3.4c3.515-5.645,5.869-4.466,5.869-1.409s-1.17,4.467,4.46,7.993c5.647,3.526,6.113,4.472,9.64.94s4.929-6.113,9.634-5.405,9.169,3.528,5.411-3.528-8.928-15.056-5.411-18.578,6.579-5.876,5.645-9.171.471-5.18-3.3-4.939-9.159,2.58-15.038-23.05c0,0-2.882-19.59-1.7-23.619l-5.812-1.3c-1.315-1.324-6.223-1.788-10.722-1.928-4.351-.129-8.322.04-8.322.04s-11.988-1.651-13.386-1.882c-1.422-.233-9.637-1.654-13.167-1.884s-5.4-4.943-5.872-6.814-2.581-1.417-5.878-1.417c-3.281,0-4.469-1.642-4.469-1.642s-.935-6.344-4,.473-3.519,1.88-3.519,1.88c1.41-6.117-1.646-3.286-1.646-3.286a9.787,9.787,0,0,0-1.362,1.19,18.152,18.152,0,0,1-6.159,4.444c-3.758,1.421-18.331,9.879-21.147,9.17s-7.293-3.525-7.753.945-4.935-4-5.171-4.713-1.415-3.284-6.582-7.277-5.648,3.057-10.813,0c-2.789-1.652-4.263-2.028-5.523-1.217-1.087.692-2,2.241-3.408,4.745-3.058,5.4-3.294.465-3.294-4.713s-6.584-1.41-6.584-1.41l-11.5,3.077a6.449,6.449,0,0,1-.241,3.046c-1.408,4.234-9.406,13.4-5.874,20.692,0,0-.471,8.466-8.7,15.283s-9.629,8.708-9.629,10.12-6.116,17.859-6.585,19.044c-.468,1.169-10.34,25.872-6.577,35.516,0,0,5.171,20.458,7.045,22.335s3.059,3.3,2.586,9.879c-.18,2.463-.123,4.858-.412,7.333,6.338-.6,14.706-.9,16.217,1.473a1.71,1.71,0,0,1,.178.369s-.238,10.807-.238,12.46-6.107,5.881.938,6.114c0,0,5.414-.232,4.706,6.118,0,0-2.586,2.121,4.7,10.108a24.411,24.411,0,0,1,3.057,9.412c.268,2.961,1.159,3.77,2.355,4.479a10.615,10.615,0,0,1,3.046,2.329c2.584,3.067,3.057,3.541,3.057,8.714a100.18,100.18,0,0,0,.31,10.316c.468,4.947,1.66,10.125,4.627,12.967,5.409,5.171,3.99,9.165,3.99,11.049,0,1.179-.992,7.364-1.342,13.055a4.808,4.808,0,0,1,1.211-.595c4.132-1.247,18.669,4.12,26.167,6.479s28.679-4.712,30.178-.21,13.627,11.93,11.7,17.934,7.316-2.835,9.458,2.74,14.169,6.081,18.667,6.724c1.482.211.265,2.619-2.022,5.745,5.686,2.442,13.248,5.61,13.248,5.61a3.7,3.7,0,0,0,.527.279,8.059,8.059,0,0,0,1.731-.844c2.959-1.848,4.765-3.392,8.487-2.369,6.343-.543,12.131,4.908,12.131,4.908a1.732,1.732,0,0,0,.737.284,11.861,11.861,0,0,0,3.794-1.885c4.2-2.866,4.08-4.631,6.182-3.671,2.593-2.165,4.593-4.135,4.593-4.135,3.356-.194,11.144,5.086,15.68,7.846s3.361,10.647,3.361,10.647c-1.369,12.205-1.68,15.132-1.68,15.132a16.984,16.984,0,0,1,7.28,1.681c-.439,1.486-1.4,4.243-2.455,6.92a6.238,6.238,0,0,0,1.34-.556c2.122-1.171,11.061-5.169,13.405-3.53s5.876,1.411,7.056,2.359,3.517,4.466,6.1-2.591,3.525-11.289,8.692-15.288,7.525-11.288,17.4-10.816,6.1-1.656,7.047-4S3271.9,2409.178,3265.8,2400.011Z" transform="translate(-2650.439 2819.078)" fill="#b2ebf4" stroke="#f7f7f4" stroke-miterlimit="10" stroke-width="3"/>
      <text id="本日" transform="translate(432.305 5083.955)" fill="#323232" font-size="13" font-family="SourceHanSansJP-Bold, Source Han Sans JP" font-weight="700"><tspan x="-19.5" y="0">佐久平</tspan></text>
    </g>
  </g>
</svg>
