<svg xmlns="http://www.w3.org/2000/svg" width="139.722" height="181.376" viewBox="0 0 139.722 181.376">
  <g id="Group_6453" data-name="Group 6453" transform="translate(-135.412 -5033.484)">
    <path id="Path_5984" data-name="Path 5984" d="M2841.551,2295.96a7.247,7.247,0,0,0-3.622-4.343l-10.863,3.133c-1.456-2.877-4.309-2.4-5.289-2.4-1.206,0-2.654-.241-6.267-9.408s-5.547-7.241-7-7.241c-1.438,0-3.126-5.073-4.1-6.272s-1.2-9.893-2.4-13.515c-.424-1.249-1.367-1.335-2.542-.87-2.219.893-5.3,3.788-7.345,4.728-2.814,1.3-15.249,4.9-19.389,5.3a4.147,4.147,0,0,1-1.111.014c-2.165-.48-9.4-3.378-11.809-5.074s-4.1-3.861-8.442-1.928-6.989,10.135-6.989,13.99a12.509,12.509,0,0,1-.191,1.861c-.866,5.1-4.391,15.25-6.076,16.724-1.939,1.691-2.89,23.646-2.89,28.233s-2.175,7.712-5.552,8.2-6.024,11.817-6.992,17.121c-.339,1.86-2.283,3.654-4.8,5.241-.278,7.179-1.265,16.511-4.36,22.022-5.541,9.9,2.161,10.138,3.376,10.138s22.663-.238,22.663-.238,3.906-2,3.656.221c-.109.936-.948,2.619-3.179,5.568,0,0-.72,1.448,3.625,2.419s3.373,4.822,3.373,6.267c0,1.224.35,16.539-3.319,29.277a21.082,21.082,0,0,0,6.449,5.938s1.689,5.8,11.579-1.92c3.249-2.552,6.464-4.9,9.365-6.909,5.889-4.1,10.4-6.767,10.882-6.609.463.166,4.139-3.086,9.848-2.446.126-5.162.621-11.008,2.205-11.541,2.9-.966,7.965-8.2,9.646-10.375,1.691-2.164,2.179-8.686,5.549-8.922s8.439-.729,8.916-5.078-1.441-10.856-1.441-10.856-2.414-6.265,2.171-9.9a36.822,36.822,0,0,0,7.477-8.19s5.059-8.933,5.306-12.306c.235-3.388.477-11.336.477-11.336s1.2-5.312,5.54-5.792,3.375-6.04,2.9-7.486,2.405-3.142,4.1-1.926c1.173.842,2-2.173,3.2-5.227C2844.437,2302.226,2842.448,2298.483,2841.551,2295.96Z" transform="translate(-2574.609 2780.202)" fill="#b2ebf4" stroke="#f7f7f4" stroke-miterlimit="10" stroke-width="3"/>
    <text id="本日" transform="translate(196.629 5123.708)" fill="#323232" font-size="13" font-family="SourceHanSansJP-Bold, Source Han Sans JP" font-weight="700"><tspan x="-13" y="0">諏訪</tspan></text>
  </g>
</svg>
