<svg xmlns="http://www.w3.org/2000/svg" width="166.896" height="167.432" viewBox="0 0 166.896 167.432">
  <g id="Group_6460" data-name="Group 6460" transform="translate(-217.348 -5179.731)">
    <path id="Path_5976" data-name="Path 5976" d="M2882.891,2617.57c-1.8-4.619,1.353-7.373,3.643-10.079,1.447-1.651,2.655-2.979,3.679-4.115,1.946-2.271,4-4.869,4.329-6.075.231-.848.44-1.978.643-3.191.011-.275.019-.555.019-.857a18.883,18.883,0,0,1,2.386-9.565c1.82-5.559,5-14.649,6.586-18.129,2.143-4.716,9.88-16.856,12.248-19.353h0s.1-.113.281-.3c2.377-2.511,5.992-6.252,10.113-4.6,3.63,1.452,8.57,8.359,12.639,11.361,3.553,2.62,4.746,5.924,7.412,8.291,1.336.285,2.83-.141,4.032-2.446,2.9-5.551,17.849-26.306,17.849-26.306s32.514-56.572,33.322-57.72c-6.1-2.286-13.593-4.868-15.725-5.008-3.614-.233-17.841-1.933-24.111-1.45s-41.952-6.271-47.743-7.964-8.436-.471-8.436-.471c-.965,5.3-8.439,7.232-9.164,7.466a130.842,130.842,0,0,1-14.224,1.453c-3.377,0-4.579,1.688-1.445,7.485s13.021,11.34,19.776,15.2c3.773,2.158,4.761,4.849,4.8,6.551.044,1.33-.506,2.049-.712,1.412-.483-1.454-9.4-3.14-9.4-3.14-.971,5.315-2.417,3.863-7.725,2.179a5.62,5.62,0,0,0-7.227,2.884c-4.545,5.928-7.586,10.16-9.662,13.214,1.773,1.708,3.636,4.052,3.636,6.325,0,4.347-.727,12.068,1.924,14.24s4.335,6.766,3.383,8.934c-.97,2.168-4.348,7.96-1.7,11.581s6.035,4.58,5.069,8.2-6.753,11.827-7.235,22.194-1.687,12.311-1.687,12.311-2.41,17.128,1.2,20.508c2.364,2.208,6.39,3.486,12.123,4.172C2885.533,2621.3,2883.69,2619.617,2882.891,2617.57Z" transform="translate(-2620.014 2722.138)" fill="#b2ebf4" stroke="#f7f7f4" stroke-miterlimit="10" stroke-width="3"/>
    <text id="本日" transform="translate(250.348 5254.687)" fill="#323232" font-size="13" font-family="SourceHanSansJP-Bold, Source Han Sans JP" font-weight="700"><tspan x="-32.5" y="0">富士見・原</tspan></text>
  </g>
</svg>
