<svg xmlns="http://www.w3.org/2000/svg" width="137.674" height="198.516" viewBox="0 0 137.674 198.516">
  <g id="Group_6454" data-name="Group 6454" transform="translate(-292.687 -5040.616)">
    <path id="Path_5985" data-name="Path 5985" d="M2960.37,2262.773c-3.188.75-4.232,4.982-6.97,9.216s-5.476.995-4.729,8.219,5.973,10.462,2.987,15.443-5.226,3.736-9.458,6.725-3.237,5.978-6.969,8.718-5.974,2.242-5.974,6.227,1.492,5.728,4.728,8.22,3.982,4.731,7.716,3.238,4.73-3.487,6.969-2.74.249,5.979,3.982,7.224,7.218-.25,10.454-.748,4.232,0,4.232,4.235-3.734,12.2-2.49,15.691,3.983,1.992,3.734,7.721-3.485,11.956-.249,13.45,7.965,3.985,6.471,6.476-2.24,4.484-1.244,8.469a40.825,40.825,0,0,1,1,14.945c-.747,5.479-2.738,6.724-1,10.211s1,4.484.5,8.468,1.246,1.745,3.485,8.469,6.969,12.454,11.449,18.183,9.707,7.721,14.685,10.46,10.7,2.242,20.41,0,17.422-6.475,19.912-11.457,7.964-13.2,11.2-16.189.5-6.974,4.978-9.715,5.724-12.2,4.729-15.691,1.493-1,1.991-8.219-4.728-9.215-8.463-12.7-2.489-2.74-6.222-6.475-4.481-3.238-.25-7.473,3.237-9.215,1-11.955-7.218,2.241-11.2.248,1.99-2.74,2.988-6.974,1.742-18.183-2.241-19.427-9.458,1.992-8.712-3.737,2.49-5.729.5-11.955-2.739-8.22-4.481-13.45-2.488-4.482-7.218-3.487-9.957,5.979-12.2,2.242,1.244-9.714,3.733-12.952,1.493-4.483.746-9.216-.249-9.215-2.738-10.959-2.49,1.495-6.223,4.733-6.223,4.981-9.707,5.23a6.242,6.242,0,0,1-6.472-3.487c-.995-1.993-5.973-5.479-8.959-7.222s-3.485-2.242-5.227,1-2.24,7.97-4.48,7.97-2.24-3.486-2.489-7.222S2964.6,2261.776,2960.37,2262.773Z" transform="translate(-2636.57 2777.968)" fill="#92d3a9" style="mix-blend-mode: multiply;isolation: isolate"/>
    <path id="Path_5986" data-name="Path 5986" d="M3016.919,2452.18c3.872,3.228,10.454,6.227,15.183,4.981s10.2-2.49,9.955-7.223-2.489-8.968-.746-10.711,5.227,1.992,7.467-2.241,7.467-8.967,5.228-13.2-7.467-5.232-4.978-8.469,1.99-8.469,1-12.952-1.743-7.721-4.978-9.713-4.729-1.994-4.729-6.975,1.245-16.688-1-22.417-2.24-7.222-8.711-12.2-8.961-2.491-7.965-9.215,4.978-11.956-.746-13.948-7.468-.748-9.708-5.231,0-6.725-2.737-10.71-7.716-1.992-9.708-4.234-1.243-5.23-5.226-5.977-7.716,1.992-10.206,4.98-7.964,5.729-8.959,9.465-.5,6.725,3.484,9.714,9.956.5,12.2-3.238,3.236-6.974,6.471-5.728,1.494,4.483-.747,7.222-3.982,7.472-2.24,11.956,6.222,7.97,6.222,13.948,5.725,10.959,5.725,14.7,6.471,3.984,5.724,7.721-6.222,1.742-6.72,6.476,5.227,6.724,4.978,11.705-4.231,4.732-5.475,10.71,5.475,13.451,8.96,13.948,7.965,5.479,5.476,5.729-5.974-2.739-8.961-1.744-6.72,5.729-1.742,9.216,9.209,6.974,7.218,8.219-5.476-2.491-7.717-1.743-5.476,3.486-3.733,5.977,3.484,2.242,2.986,5.729S3015.426,2450.934,3016.919,2452.18Z" transform="translate(-2649.563 2766.896)" fill="#00913a" opacity="0.4" style="mix-blend-mode: multiply;isolation: isolate"/>
    <g id="Group_6106" data-name="Group 6106" transform="translate(355.072 5102.857)">
      <g id="Group_6103" data-name="Group 6103">
        <path id="Path_5987" data-name="Path 5987" d="M3017.7,2354.752a8.781,8.781,0,0,0-.287-1.367,10.667,10.667,0,0,1,1.464-.192c.152-.005.23.026.253.1a.37.37,0,0,1-.007.251,1.755,1.755,0,0,0,.018.7,11.747,11.747,0,0,1-.989,7.335c-.1.182-.15.281-.227.3s-.172-.017-.337-.108a3.886,3.886,0,0,0-1.134-.363A9.123,9.123,0,0,0,3017.7,2354.752Zm1.344-2.843c-.951.286-1.248.4-1.337.431-.127.039-.144.03-.186-.111l-.321-1.067c-.038-.126-.029-.143.1-.182.089-.028.4-.094,1.353-.381l1.866-.562c.964-.291,1.261-.409,1.337-.432.127-.037.159-.021.2.107.072.24.172.572.286.856a12.5,12.5,0,0,0,5.985,7.145,4.051,4.051,0,0,0-.8,1.1c-.076.162-.121.244-.184.263s-.162-.034-.333-.135a14.908,14.908,0,0,1-5.84-7.674Z" transform="translate(-3016.458 -2349.589)" fill="#231815"/>
        <path id="Path_5988" data-name="Path 5988" d="M3027.414,2376.3a12.163,12.163,0,0,1-.863,2.1c-.052.1-.1.157-.168.176a.487.487,0,0,1-.268-.015,3.612,3.612,0,0,0-1.1-.07,10.64,10.64,0,0,0,1.382-4.006,4.677,4.677,0,0,0,0-1.564,8.545,8.545,0,0,1,1.472.109.269.269,0,0,1,.164.449.8.8,0,0,0-.177.469c-.042.316-.085.635-.136.927l3-.9c.647-.194,1.3-.432,1.935-.652.139-.043.179,0,.254.2.1.276.184.567.256.85.037.169-.01.24-.142.265-.608.185-1.276.356-1.808.518l-.547.164a6.9,6.9,0,0,1,.116,3.235,6.537,6.537,0,0,1-1.27,2.725.448.448,0,0,1-.2.156.67.67,0,0,1-.294-.008,4.067,4.067,0,0,0-1.261-.147,6.458,6.458,0,0,0,1.608-2.84,5.441,5.441,0,0,0-.094-2.7Z" transform="translate(-3018.893 -2356.217)" fill="#231815"/>
        <path id="Path_5989" data-name="Path 5989" d="M3030.042,2399.943c-1.117.336-1.5.48-1.58.5-.113.034-.13.026-.168-.1l-.291-.966c-.041-.139-.033-.156.081-.19.077-.023.479-.116,1.594-.453l.406-.122-1.146-3.81a10.6,10.6,0,0,0-.558-1.577c.453-.056.916-.084,1.449-.106a28.88,28.88,0,0,0,4.366-2.05,4.013,4.013,0,0,0,.847-.588,7.093,7.093,0,0,1,1.176.643.448.448,0,0,1,.187.206c.031.1-.056.183-.2.225a2.759,2.759,0,0,0-.535.245,49.3,49.3,0,0,1-5.436,2.5l.264.876,5.354-1.615c1.232-.372,1.643-.522,1.719-.545.14-.042.157-.035.2.107l.291.965c.039.127.031.143-.11.186-.077.022-.5.124-1.734.495l-.407.122.552,1.829,1.219-.367c1.116-.337,1.49-.478,1.565-.5.127-.039.144-.03.186.109l.292.967c.037.126.029.143-.1.182-.075.022-.464.112-1.581.449l-3.389,1.021.762,2.527,2.563-.773-.2-.673a6.639,6.639,0,0,0-.451-1.221c.5-.137.942-.229,1.364-.3.092-.013.18,0,.207.091a.587.587,0,0,1,.01.259,2.586,2.586,0,0,0,.18.875l.389,1.3c.192.635.3.907.321.971.037.126.03.144-.085.178l-1.053.317c-.115.034-.13.026-.169-.1l-.157-.52-6.345,1.913.157.521c.038.127.029.144-.11.186l-1.027.31c-.128.038-.145.03-.183-.1-.023-.077-.074-.338-.257-.948l-.409-1.359a6.515,6.515,0,0,0-.47-1.284c.5-.138.9-.218,1.346-.309.131-.027.2.01.22.085a.877.877,0,0,1,0,.291,2.615,2.615,0,0,0,.17.751l.207.686,2.487-.751-.761-2.528Zm5-2.824-.551-1.83-3.63,1.094.551,1.829Z" transform="translate(-3019.738 -2361.207)" fill="#231815"/>
        <path id="Path_5990" data-name="Path 5990" d="M3033.116,2414.816c.113-.13.15-.141.262-.093a10.618,10.618,0,0,1,2.169,1.41c.094.083.088.112-.008.252l-.516.765a.3.3,0,0,1-.129.122c-.038.011-.084,0-.141-.055a10.27,10.27,0,0,0-2.158-1.51c-.128-.059-.126-.1,0-.236Zm4.317,7.9a2.048,2.048,0,0,0,1.417.708,7.868,7.868,0,0,0,2.475-.469c1.637-.493,3.543-1.151,5.376-1.913a2.07,2.07,0,0,0-.07,1.005c.046.429.059.425-.339.573-1.612.583-3.126,1.067-4.408,1.453a9.143,9.143,0,0,1-3.073.553,2.819,2.819,0,0,1-1.69-.738,14.319,14.319,0,0,1-.884,1.43,1.208,1.208,0,0,0-.2.352.217.217,0,0,1-.14.18c-.076.023-.166-.047-.244-.12a10.605,10.605,0,0,1-.835-.98,7.062,7.062,0,0,0,.626-.633,7.209,7.209,0,0,0,.736-1.1l-.852-2.833-.534.162c-.66.2-.829.278-.893.3-.14.041-.156.033-.2-.106l-.291-.966c-.037-.127-.029-.144.11-.187.063-.019.25-.046.909-.245l.723-.218c.66-.2.855-.286.918-.305.126-.038.143-.03.183.1.023.076.108.451.345,1.239Zm2.324-.784c-1.232.373-1.655.528-1.732.55-.139.042-.155.032-.194-.094l-.245-.813c-.038-.126-.03-.143.11-.185.076-.023.515-.128,1.746-.5l1.435-.432-.214-.711-.914.275c-1.168.352-1.579.5-1.667.53-.115.034-.131.026-.17-.1-.022-.077-.093-.4-.319-1.15l-.513-1.7c-.225-.749-.346-1.059-.369-1.136-.042-.139-.032-.155.081-.19.088-.028.515-.128,1.683-.481l.913-.275-.206-.685-1.383.417c-1.231.372-1.642.522-1.719.546-.127.039-.144.029-.181-.1l-.241-.8c-.039-.127-.029-.144.1-.182.076-.023.5-.123,1.734-.5l1.383-.417a7.935,7.935,0,0,0-.421-1.036,10.362,10.362,0,0,1,1.278-.3c.131-.025.223,0,.245.079a.738.738,0,0,1-.006.251,1.678,1.678,0,0,0,.111.646l1.574-.476c1.231-.371,1.654-.526,1.731-.55.126-.038.143-.029.181.1l.242.8c.038.127.028.143-.1.182-.077.023-.516.127-1.747.5l-1.573.474.207.687.989-.3c1.169-.353,1.567-.5,1.656-.525.126-.04.143-.031.185.109.022.075.093.4.319,1.151l.512,1.7c.226.75.347,1.059.369,1.135.039.127.029.144-.1.181-.09.027-.5.125-1.671.477l-.989.3.215.711,1.636-.494c1.244-.375,1.667-.53,1.743-.553.127-.039.144-.03.182.1l.244.813c.038.126.03.143-.1.182-.077.023-.516.127-1.759.5l-1.639.494c.2.66.306.919.324.983.036.114.018.148-.1.183l-.977.294c-.114.034-.147.016-.182-.1-.02-.063-.086-.333-.273-1Zm.129-4.762-.221-.737-1.537.462.221.737Zm.506,1.677-.241-.8-1.536.464.241.8Zm.479-2.778.222.737,1.586-.477-.222-.737Zm2.072,1.136-1.587.479.241.8,1.587-.478Z" transform="translate(-3021.023 -2367.43)" fill="#231815"/>
        <path id="Path_5991" data-name="Path 5991" d="M3043.332,2439.164a11.856,11.856,0,0,0-.633-1.775,8.838,8.838,0,0,1,1.115-.252c.117-.023.2.009.217.073a1,1,0,0,1,.024.311,5.607,5.607,0,0,0,.33,1.327l.975,3.239c.371,1.231.581,1.833.6,1.909.038.127.03.144-.1.182l-.786.238c-.141.041-.158.031-.2-.094l-.149-.5-2.082.627.31,1.028c.038.127.029.144-.1.183l-.838.252c-.128.038-.144.029-.181-.1-.028-.089-.2-.745-.592-2.052l-1.1-3.646a15.749,15.749,0,0,0-.623-1.793c.283-.072.874-.223,1.14-.26.131-.025.184.014.2.064a.578.578,0,0,1,.02.245,3.947,3.947,0,0,0,.266,1.112l1.146,3.81.482-.146-1.744-5.792a16.444,16.444,0,0,0-.639-1.8c.359-.094.849-.214,1.152-.265.13-.025.2.01.22.087a1.687,1.687,0,0,1,.033.336,6.939,6.939,0,0,0,.322,1.3l1.748,5.8.508-.153Zm5.158-5.212a.957.957,0,0,0,.314-.149.425.425,0,0,1,.141-.084c.114-.035.246.036.534.211.268.156.388.23.423.345s.011.177-.1.278-.123.147-.227.4a10.55,10.55,0,0,1-.843,1.75,11.235,11.235,0,0,0,2.79-.066,3.455,3.455,0,0,0-.131.9c0,.415-.028.41-.445.453a9.755,9.755,0,0,1-2.957-.259,10.723,10.723,0,0,1-2.2,1.883c-.35.215-.372.236-.626-.1a2.765,2.765,0,0,0-.658-.618,9.769,9.769,0,0,0,2.244-1.606,8.816,8.816,0,0,1-1.053-.6,7.089,7.089,0,0,1-.5.691c-.109.143-.17.217-.232.237-.09.026-.184-.056-.36-.224a2.614,2.614,0,0,0-.683-.432,6.888,6.888,0,0,0,1.5-2.461,3.271,3.271,0,0,0,.164-.743c.416-.042.858-.092,1.215-.1.121-.01.188.026.209.1s-.042.138-.111.228a1.8,1.8,0,0,0-.168.411l-.027.093Zm1.21,7.7.194.648,1.041-.314c1.18-.355,1.578-.5,1.654-.526.14-.042.156-.033.195.094l.233.774c.038.127.029.144-.11.186-.076.023-.491.12-1.67.475l-1.04.313c.294.979.468,1.466.488,1.529.037.127.028.143-.1.183l-.991.3c-.126.038-.143.029-.182-.1-.022-.077-.142-.567-.437-1.545l-.748.226c-1.193.359-1.579.5-1.655.526-.126.04-.142.03-.182-.1l-.234-.775c-.038-.127-.029-.142.1-.18.076-.024.478-.117,1.67-.477l.748-.226-.194-.648-.356.108c-1.028.311-1.362.439-1.438.461-.127.039-.145.03-.182-.1l-.218-.724c-.039-.127-.031-.143.1-.181.075-.023.426-.1,1.453-.412l.356-.107-.195-.648-.508.153c-1.092.329-1.452.467-1.529.49-.113.034-.13.025-.169-.1l-.22-.735c-.039-.128-.031-.144.084-.178.075-.023.452-.11,1.543-.439l.494-.15c-.1-.3-.209-.56-.347-.879.474-.129.836-.211,1.28-.3.13-.027.209.005.229.069a.717.717,0,0,1-.007.251,2,2,0,0,0,.077.489l.685-.207c1.091-.328,1.451-.465,1.528-.488.126-.038.144-.03.181.1l.222.736c.038.128.029.144-.1.182-.077.024-.453.108-1.544.438l-.685.206.195.649.469-.141c1.03-.31,1.339-.431,1.414-.454.127-.038.144-.029.182.1l.218.724c.038.127.029.142-.1.181-.076.024-.4.094-1.429.4Zm-3.441-6-.019.074a4.874,4.874,0,0,0,1.26.688,6.041,6.041,0,0,0,.725-1.355Z" transform="translate(-3023.025 -2373.47)" fill="#231815"/>
      </g>
      <g id="Group_6104" data-name="Group 6104">
        <path id="Path_5992" data-name="Path 5992" d="M3017.7,2354.752a8.781,8.781,0,0,0-.287-1.367,10.667,10.667,0,0,1,1.464-.192c.152-.005.23.026.253.1a.37.37,0,0,1-.007.251,1.755,1.755,0,0,0,.018.7,11.747,11.747,0,0,1-.989,7.335c-.1.182-.15.281-.227.3s-.172-.017-.337-.108a3.886,3.886,0,0,0-1.134-.363A9.123,9.123,0,0,0,3017.7,2354.752Zm1.344-2.843c-.951.286-1.248.4-1.337.431-.127.039-.144.03-.186-.111l-.321-1.067c-.038-.126-.029-.143.1-.182.089-.028.4-.094,1.353-.381l1.866-.562c.964-.291,1.261-.409,1.337-.432.127-.037.159-.021.2.107.072.24.172.572.286.856a12.5,12.5,0,0,0,5.985,7.145,4.051,4.051,0,0,0-.8,1.1c-.076.162-.121.244-.184.263s-.162-.034-.333-.135a14.908,14.908,0,0,1-5.84-7.674Z" transform="translate(-3016.458 -2349.589)" fill="none" stroke="#fff" stroke-linecap="round" stroke-linejoin="round" stroke-width="3"/>
        <path id="Path_5993" data-name="Path 5993" d="M3027.414,2376.3a12.163,12.163,0,0,1-.863,2.1c-.052.1-.1.157-.168.176a.487.487,0,0,1-.268-.015,3.612,3.612,0,0,0-1.1-.07,10.64,10.64,0,0,0,1.382-4.006,4.677,4.677,0,0,0,0-1.564,8.545,8.545,0,0,1,1.472.109.269.269,0,0,1,.164.449.8.8,0,0,0-.177.469c-.042.316-.085.635-.136.927l3-.9c.647-.194,1.3-.432,1.935-.652.139-.043.179,0,.254.2.1.276.184.567.256.85.037.169-.01.24-.142.265-.608.185-1.276.356-1.808.518l-.547.164a6.9,6.9,0,0,1,.116,3.235,6.537,6.537,0,0,1-1.27,2.725.448.448,0,0,1-.2.156.67.67,0,0,1-.294-.008,4.067,4.067,0,0,0-1.261-.147,6.458,6.458,0,0,0,1.608-2.84,5.441,5.441,0,0,0-.094-2.7Z" transform="translate(-3018.893 -2356.217)" fill="none" stroke="#fff" stroke-linecap="round" stroke-linejoin="round" stroke-width="3"/>
        <path id="Path_5994" data-name="Path 5994" d="M3030.042,2399.943c-1.117.336-1.5.48-1.58.5-.113.034-.13.026-.168-.1l-.291-.966c-.041-.139-.033-.156.081-.19.077-.023.479-.116,1.594-.453l.406-.122-1.146-3.81a10.6,10.6,0,0,0-.558-1.577c.453-.056.916-.084,1.449-.106a28.88,28.88,0,0,0,4.366-2.05,4.013,4.013,0,0,0,.847-.588,7.093,7.093,0,0,1,1.176.643.448.448,0,0,1,.187.206c.031.1-.056.183-.2.225a2.759,2.759,0,0,0-.535.245,49.3,49.3,0,0,1-5.436,2.5l.264.876,5.354-1.615c1.232-.372,1.643-.522,1.719-.545.14-.042.157-.035.2.107l.291.965c.039.127.031.143-.11.186-.077.022-.5.124-1.734.495l-.407.122.552,1.829,1.219-.367c1.116-.337,1.49-.478,1.565-.5.127-.039.144-.03.186.109l.292.967c.037.126.029.143-.1.182-.075.022-.464.112-1.581.449l-3.389,1.021.762,2.527,2.563-.773-.2-.673a6.639,6.639,0,0,0-.451-1.221c.5-.137.942-.229,1.364-.3.092-.013.18,0,.207.091a.587.587,0,0,1,.01.259,2.586,2.586,0,0,0,.18.875l.389,1.3c.192.635.3.907.321.971.037.126.03.144-.085.178l-1.053.317c-.115.034-.13.026-.169-.1l-.157-.52-6.345,1.913.157.521c.038.127.029.144-.11.186l-1.027.31c-.128.038-.145.03-.183-.1-.023-.077-.074-.338-.257-.948l-.409-1.359a6.515,6.515,0,0,0-.47-1.284c.5-.138.9-.218,1.346-.309.131-.027.2.01.22.085a.877.877,0,0,1,0,.291,2.615,2.615,0,0,0,.17.751l.207.686,2.487-.751-.761-2.528Zm5-2.824-.551-1.83-3.63,1.094.551,1.829Z" transform="translate(-3019.738 -2361.207)" fill="none" stroke="#fff" stroke-linecap="round" stroke-linejoin="round" stroke-width="3"/>
        <path id="Path_5995" data-name="Path 5995" d="M3033.116,2414.816c.113-.13.15-.141.262-.093a10.618,10.618,0,0,1,2.169,1.41c.094.083.088.112-.008.252l-.516.765a.3.3,0,0,1-.129.122c-.038.011-.084,0-.141-.055a10.27,10.27,0,0,0-2.158-1.51c-.128-.059-.126-.1,0-.236Zm4.317,7.9a2.048,2.048,0,0,0,1.417.708,7.868,7.868,0,0,0,2.475-.469c1.637-.493,3.543-1.151,5.376-1.913a2.07,2.07,0,0,0-.07,1.005c.046.429.059.425-.339.573-1.612.583-3.126,1.067-4.408,1.453a9.143,9.143,0,0,1-3.073.553,2.819,2.819,0,0,1-1.69-.738,14.319,14.319,0,0,1-.884,1.43,1.208,1.208,0,0,0-.2.352.217.217,0,0,1-.14.18c-.076.023-.166-.047-.244-.12a10.605,10.605,0,0,1-.835-.98,7.062,7.062,0,0,0,.626-.633,7.209,7.209,0,0,0,.736-1.1l-.852-2.833-.534.162c-.66.2-.829.278-.893.3-.14.041-.156.033-.2-.106l-.291-.966c-.037-.127-.029-.144.11-.187.063-.019.25-.046.909-.245l.723-.218c.66-.2.855-.286.918-.305.126-.038.143-.03.183.1.023.076.108.451.345,1.239Zm2.324-.784c-1.232.373-1.655.528-1.732.55-.139.042-.155.032-.194-.094l-.245-.813c-.038-.126-.03-.143.11-.185.076-.023.515-.128,1.746-.5l1.435-.432-.214-.711-.914.275c-1.168.352-1.579.5-1.667.53-.115.034-.131.026-.17-.1-.022-.077-.093-.4-.319-1.15l-.513-1.7c-.225-.749-.346-1.059-.369-1.136-.042-.139-.032-.155.081-.19.088-.028.515-.128,1.683-.481l.913-.275-.206-.685-1.383.417c-1.231.372-1.642.522-1.719.546-.127.039-.144.029-.181-.1l-.241-.8c-.039-.127-.029-.144.1-.182.076-.023.5-.123,1.734-.5l1.383-.417a7.935,7.935,0,0,0-.421-1.036,10.362,10.362,0,0,1,1.278-.3c.131-.025.223,0,.245.079a.738.738,0,0,1-.006.251,1.678,1.678,0,0,0,.111.646l1.574-.476c1.231-.371,1.654-.526,1.731-.55.126-.038.143-.029.181.1l.242.8c.038.127.028.143-.1.182-.077.023-.516.127-1.747.5l-1.573.474.207.687.989-.3c1.169-.353,1.567-.5,1.656-.525.126-.04.143-.031.185.109.022.075.093.4.319,1.151l.512,1.7c.226.75.347,1.059.369,1.135.039.127.029.144-.1.181-.09.027-.5.125-1.671.477l-.989.3.215.711,1.636-.494c1.244-.375,1.667-.53,1.743-.553.127-.039.144-.03.182.1l.244.813c.038.126.03.143-.1.182-.077.023-.516.127-1.759.5l-1.639.494c.2.66.306.919.324.983.036.114.018.148-.1.183l-.977.294c-.114.034-.147.016-.182-.1-.02-.063-.086-.333-.273-1Zm.129-4.762-.221-.737-1.537.462.221.737Zm.506,1.677-.241-.8-1.536.464.241.8Zm.479-2.778.222.737,1.586-.477-.222-.737Zm2.072,1.136-1.587.479.241.8,1.587-.478Z" transform="translate(-3021.023 -2367.43)" fill="none" stroke="#fff" stroke-linecap="round" stroke-linejoin="round" stroke-width="3"/>
        <path id="Path_5996" data-name="Path 5996" d="M3043.332,2439.164a11.856,11.856,0,0,0-.633-1.775,8.838,8.838,0,0,1,1.115-.252c.117-.023.2.009.217.073a1,1,0,0,1,.024.311,5.607,5.607,0,0,0,.33,1.327l.975,3.239c.371,1.231.581,1.833.6,1.909.038.127.03.144-.1.182l-.786.238c-.141.041-.158.031-.2-.094l-.149-.5-2.082.627.31,1.028c.038.127.029.144-.1.183l-.838.252c-.128.038-.144.029-.181-.1-.028-.089-.2-.745-.592-2.052l-1.1-3.646a15.749,15.749,0,0,0-.623-1.793c.283-.072.874-.223,1.14-.26.131-.025.184.014.2.064a.578.578,0,0,1,.02.245,3.947,3.947,0,0,0,.266,1.112l1.146,3.81.482-.146-1.744-5.792a16.444,16.444,0,0,0-.639-1.8c.359-.094.849-.214,1.152-.265.13-.025.2.01.22.087a1.687,1.687,0,0,1,.033.336,6.939,6.939,0,0,0,.322,1.3l1.748,5.8.508-.153Zm5.158-5.212a.957.957,0,0,0,.314-.149.425.425,0,0,1,.141-.084c.114-.035.246.036.534.211.268.156.388.23.423.345s.011.177-.1.278-.123.147-.227.4a10.55,10.55,0,0,1-.843,1.75,11.235,11.235,0,0,0,2.79-.066,3.455,3.455,0,0,0-.131.9c0,.415-.028.41-.445.453a9.755,9.755,0,0,1-2.957-.259,10.723,10.723,0,0,1-2.2,1.883c-.35.215-.372.236-.626-.1a2.765,2.765,0,0,0-.658-.618,9.769,9.769,0,0,0,2.244-1.606,8.816,8.816,0,0,1-1.053-.6,7.089,7.089,0,0,1-.5.691c-.109.143-.17.217-.232.237-.09.026-.184-.056-.36-.224a2.614,2.614,0,0,0-.683-.432,6.888,6.888,0,0,0,1.5-2.461,3.271,3.271,0,0,0,.164-.743c.416-.042.858-.092,1.215-.1.121-.01.188.026.209.1s-.042.138-.111.228a1.8,1.8,0,0,0-.168.411l-.027.093Zm1.21,7.7.194.648,1.041-.314c1.18-.355,1.578-.5,1.654-.526.14-.042.156-.033.195.094l.233.774c.038.127.029.144-.11.186-.076.023-.491.12-1.67.475l-1.04.313c.294.979.468,1.466.488,1.529.037.127.028.143-.1.183l-.991.3c-.126.038-.143.029-.182-.1-.022-.077-.142-.567-.437-1.545l-.748.226c-1.193.359-1.579.5-1.655.526-.126.04-.142.03-.182-.1l-.234-.775c-.038-.127-.029-.142.1-.18.076-.024.478-.117,1.67-.477l.748-.226-.194-.648-.356.108c-1.028.311-1.362.439-1.438.461-.127.039-.145.03-.182-.1l-.218-.724c-.039-.127-.031-.143.1-.181.075-.023.426-.1,1.453-.412l.356-.107-.195-.648-.508.153c-1.092.329-1.452.467-1.529.49-.113.034-.13.025-.169-.1l-.22-.735c-.039-.128-.031-.144.084-.178.075-.023.452-.11,1.543-.439l.494-.15c-.1-.3-.209-.56-.347-.879.474-.129.836-.211,1.28-.3.13-.027.209.005.229.069a.717.717,0,0,1-.007.251,2,2,0,0,0,.077.489l.685-.207c1.091-.328,1.451-.465,1.528-.488.126-.038.144-.03.181.1l.222.736c.038.128.029.144-.1.182-.077.024-.453.108-1.544.438l-.685.206.195.649.469-.141c1.03-.31,1.339-.431,1.414-.454.127-.038.144-.029.182.1l.218.724c.038.127.029.142-.1.181-.076.024-.4.094-1.429.4Zm-3.441-6-.019.074a4.874,4.874,0,0,0,1.26.688,6.041,6.041,0,0,0,.725-1.355Z" transform="translate(-3023.025 -2373.47)" fill="none" stroke="#fff" stroke-linecap="round" stroke-linejoin="round" stroke-width="3"/>
      </g>
      <g id="Group_6105" data-name="Group 6105">
        <path id="Path_5997" data-name="Path 5997" d="M3017.7,2354.752a8.781,8.781,0,0,0-.287-1.367,10.667,10.667,0,0,1,1.464-.192c.152-.005.23.026.253.1a.37.37,0,0,1-.007.251,1.755,1.755,0,0,0,.018.7,11.747,11.747,0,0,1-.989,7.335c-.1.182-.15.281-.227.3s-.172-.017-.337-.108a3.886,3.886,0,0,0-1.134-.363A9.123,9.123,0,0,0,3017.7,2354.752Zm1.344-2.843c-.951.286-1.248.4-1.337.431-.127.039-.144.03-.186-.111l-.321-1.067c-.038-.126-.029-.143.1-.182.089-.028.4-.094,1.353-.381l1.866-.562c.964-.291,1.261-.409,1.337-.432.127-.037.159-.021.2.107.072.24.172.572.286.856a12.5,12.5,0,0,0,5.985,7.145,4.051,4.051,0,0,0-.8,1.1c-.076.162-.121.244-.184.263s-.162-.034-.333-.135a14.908,14.908,0,0,1-5.84-7.674Z" transform="translate(-3016.458 -2349.589)" fill="#00913a"/>
        <path id="Path_5998" data-name="Path 5998" d="M3027.414,2376.3a12.163,12.163,0,0,1-.863,2.1c-.052.1-.1.157-.168.176a.487.487,0,0,1-.268-.015,3.612,3.612,0,0,0-1.1-.07,10.64,10.64,0,0,0,1.382-4.006,4.677,4.677,0,0,0,0-1.564,8.545,8.545,0,0,1,1.472.109.269.269,0,0,1,.164.449.8.8,0,0,0-.177.469c-.042.316-.085.635-.136.927l3-.9c.647-.194,1.3-.432,1.935-.652.139-.043.179,0,.254.2.1.276.184.567.256.85.037.169-.01.24-.142.265-.608.185-1.276.356-1.808.518l-.547.164a6.9,6.9,0,0,1,.116,3.235,6.537,6.537,0,0,1-1.27,2.725.448.448,0,0,1-.2.156.67.67,0,0,1-.294-.008,4.067,4.067,0,0,0-1.261-.147,6.458,6.458,0,0,0,1.608-2.84,5.441,5.441,0,0,0-.094-2.7Z" transform="translate(-3018.893 -2356.217)" fill="#00913a"/>
        <path id="Path_5999" data-name="Path 5999" d="M3030.042,2399.943c-1.117.336-1.5.48-1.58.5-.113.034-.13.026-.168-.1l-.291-.966c-.041-.139-.033-.156.081-.19.077-.023.479-.116,1.594-.453l.406-.122-1.146-3.81a10.6,10.6,0,0,0-.558-1.577c.453-.056.916-.084,1.449-.106a28.88,28.88,0,0,0,4.366-2.05,4.013,4.013,0,0,0,.847-.588,7.093,7.093,0,0,1,1.176.643.448.448,0,0,1,.187.206c.031.1-.056.183-.2.225a2.759,2.759,0,0,0-.535.245,49.3,49.3,0,0,1-5.436,2.5l.264.876,5.354-1.615c1.232-.372,1.643-.522,1.719-.545.14-.042.157-.035.2.107l.291.965c.039.127.031.143-.11.186-.077.022-.5.124-1.734.495l-.407.122.552,1.829,1.219-.367c1.116-.337,1.49-.478,1.565-.5.127-.039.144-.03.186.109l.292.967c.037.126.029.143-.1.182-.075.022-.464.112-1.581.449l-3.389,1.021.762,2.527,2.563-.773-.2-.673a6.639,6.639,0,0,0-.451-1.221c.5-.137.942-.229,1.364-.3.092-.013.18,0,.207.091a.587.587,0,0,1,.01.259,2.586,2.586,0,0,0,.18.875l.389,1.3c.192.635.3.907.321.971.037.126.03.144-.085.178l-1.053.317c-.115.034-.13.026-.169-.1l-.157-.52-6.345,1.913.157.521c.038.127.029.144-.11.186l-1.027.31c-.128.038-.145.03-.183-.1-.023-.077-.074-.338-.257-.948l-.409-1.359a6.515,6.515,0,0,0-.47-1.284c.5-.138.9-.218,1.346-.309.131-.027.2.01.22.085a.877.877,0,0,1,0,.291,2.615,2.615,0,0,0,.17.751l.207.686,2.487-.751-.761-2.528Zm5-2.824-.551-1.83-3.63,1.094.551,1.829Z" transform="translate(-3019.738 -2361.207)" fill="#00913a"/>
        <path id="Path_6000" data-name="Path 6000" d="M3033.116,2414.816c.113-.13.15-.141.262-.093a10.618,10.618,0,0,1,2.169,1.41c.094.083.088.112-.008.252l-.516.765a.3.3,0,0,1-.129.122c-.038.011-.084,0-.141-.055a10.27,10.27,0,0,0-2.158-1.51c-.128-.059-.126-.1,0-.236Zm4.317,7.9a2.048,2.048,0,0,0,1.417.708,7.868,7.868,0,0,0,2.475-.469c1.637-.493,3.543-1.151,5.376-1.913a2.07,2.07,0,0,0-.07,1.005c.046.429.059.425-.339.573-1.612.583-3.126,1.067-4.408,1.453a9.143,9.143,0,0,1-3.073.553,2.819,2.819,0,0,1-1.69-.738,14.319,14.319,0,0,1-.884,1.43,1.208,1.208,0,0,0-.2.352.217.217,0,0,1-.14.18c-.076.023-.166-.047-.244-.12a10.605,10.605,0,0,1-.835-.98,7.062,7.062,0,0,0,.626-.633,7.209,7.209,0,0,0,.736-1.1l-.852-2.833-.534.162c-.66.2-.829.278-.893.3-.14.041-.156.033-.2-.106l-.291-.966c-.037-.127-.029-.144.11-.187.063-.019.25-.046.909-.245l.723-.218c.66-.2.855-.286.918-.305.126-.038.143-.03.183.1.023.076.108.451.345,1.239Zm2.324-.784c-1.232.373-1.655.528-1.732.55-.139.042-.155.032-.194-.094l-.245-.813c-.038-.126-.03-.143.11-.185.076-.023.515-.128,1.746-.5l1.435-.432-.214-.711-.914.275c-1.168.352-1.579.5-1.667.53-.115.034-.131.026-.17-.1-.022-.077-.093-.4-.319-1.15l-.513-1.7c-.225-.749-.346-1.059-.369-1.136-.042-.139-.032-.155.081-.19.088-.028.515-.128,1.683-.481l.913-.275-.206-.685-1.383.417c-1.231.372-1.642.522-1.719.546-.127.039-.144.029-.181-.1l-.241-.8c-.039-.127-.029-.144.1-.182.076-.023.5-.123,1.734-.5l1.383-.417a7.935,7.935,0,0,0-.421-1.036,10.362,10.362,0,0,1,1.278-.3c.131-.025.223,0,.245.079a.738.738,0,0,1-.006.251,1.678,1.678,0,0,0,.111.646l1.574-.476c1.231-.371,1.654-.526,1.731-.55.126-.038.143-.029.181.1l.242.8c.038.127.028.143-.1.182-.077.023-.516.127-1.747.5l-1.573.474.207.687.989-.3c1.169-.353,1.567-.5,1.656-.525.126-.04.143-.031.185.109.022.075.093.4.319,1.151l.512,1.7c.226.75.347,1.059.369,1.135.039.127.029.144-.1.181-.09.027-.5.125-1.671.477l-.989.3.215.711,1.636-.494c1.244-.375,1.667-.53,1.743-.553.127-.039.144-.03.182.1l.244.813c.038.126.03.143-.1.182-.077.023-.516.127-1.759.5l-1.639.494c.2.66.306.919.324.983.036.114.018.148-.1.183l-.977.294c-.114.034-.147.016-.182-.1-.02-.063-.086-.333-.273-1Zm.129-4.762-.221-.737-1.537.462.221.737Zm.506,1.677-.241-.8-1.536.464.241.8Zm.479-2.778.222.737,1.586-.477-.222-.737Zm2.072,1.136-1.587.479.241.8,1.587-.478Z" transform="translate(-3021.023 -2367.43)" fill="#00913a"/>
        <path id="Path_6001" data-name="Path 6001" d="M3043.332,2439.164a11.856,11.856,0,0,0-.633-1.775,8.838,8.838,0,0,1,1.115-.252c.117-.023.2.009.217.073a1,1,0,0,1,.024.311,5.607,5.607,0,0,0,.33,1.327l.975,3.239c.371,1.231.581,1.833.6,1.909.038.127.03.144-.1.182l-.786.238c-.141.041-.158.031-.2-.094l-.149-.5-2.082.627.31,1.028c.038.127.029.144-.1.183l-.838.252c-.128.038-.144.029-.181-.1-.028-.089-.2-.745-.592-2.052l-1.1-3.646a15.749,15.749,0,0,0-.623-1.793c.283-.072.874-.223,1.14-.26.131-.025.184.014.2.064a.578.578,0,0,1,.02.245,3.947,3.947,0,0,0,.266,1.112l1.146,3.81.482-.146-1.744-5.792a16.444,16.444,0,0,0-.639-1.8c.359-.094.849-.214,1.152-.265.13-.025.2.01.22.087a1.687,1.687,0,0,1,.033.336,6.939,6.939,0,0,0,.322,1.3l1.748,5.8.508-.153Zm5.158-5.212a.957.957,0,0,0,.314-.149.425.425,0,0,1,.141-.084c.114-.035.246.036.534.211.268.156.388.23.423.345s.011.177-.1.278-.123.147-.227.4a10.55,10.55,0,0,1-.843,1.75,11.235,11.235,0,0,0,2.79-.066,3.455,3.455,0,0,0-.131.9c0,.415-.028.41-.445.453a9.755,9.755,0,0,1-2.957-.259,10.723,10.723,0,0,1-2.2,1.883c-.35.215-.372.236-.626-.1a2.765,2.765,0,0,0-.658-.618,9.769,9.769,0,0,0,2.244-1.606,8.816,8.816,0,0,1-1.053-.6,7.089,7.089,0,0,1-.5.691c-.109.143-.17.217-.232.237-.09.026-.184-.056-.36-.224a2.614,2.614,0,0,0-.683-.432,6.888,6.888,0,0,0,1.5-2.461,3.271,3.271,0,0,0,.164-.743c.416-.042.858-.092,1.215-.1.121-.01.188.026.209.1s-.042.138-.111.228a1.8,1.8,0,0,0-.168.411l-.027.093Zm1.21,7.7.194.648,1.041-.314c1.18-.355,1.578-.5,1.654-.526.14-.042.156-.033.195.094l.233.774c.038.127.029.144-.11.186-.076.023-.491.12-1.67.475l-1.04.313c.294.979.468,1.466.488,1.529.037.127.028.143-.1.183l-.991.3c-.126.038-.143.029-.182-.1-.022-.077-.142-.567-.437-1.545l-.748.226c-1.193.359-1.579.5-1.655.526-.126.04-.142.03-.182-.1l-.234-.775c-.038-.127-.029-.142.1-.18.076-.024.478-.117,1.67-.477l.748-.226-.194-.648-.356.108c-1.028.311-1.362.439-1.438.461-.127.039-.145.03-.182-.1l-.218-.724c-.039-.127-.031-.143.1-.181.075-.023.426-.1,1.453-.412l.356-.107-.195-.648-.508.153c-1.092.329-1.452.467-1.529.49-.113.034-.13.025-.169-.1l-.22-.735c-.039-.128-.031-.144.084-.178.075-.023.452-.11,1.543-.439l.494-.15c-.1-.3-.209-.56-.347-.879.474-.129.836-.211,1.28-.3.13-.027.209.005.229.069a.717.717,0,0,1-.007.251,2,2,0,0,0,.077.489l.685-.207c1.091-.328,1.451-.465,1.528-.488.126-.038.144-.03.181.1l.222.736c.038.128.029.144-.1.182-.077.024-.453.108-1.544.438l-.685.206.195.649.469-.141c1.03-.31,1.339-.431,1.414-.454.127-.038.144-.029.182.1l.218.724c.038.127.029.142-.1.181-.076.024-.4.094-1.429.4Zm-3.441-6-.019.074a4.874,4.874,0,0,0,1.26.688,6.041,6.041,0,0,0,.725-1.355Z" transform="translate(-3023.025 -2373.47)" fill="#00913a"/>
      </g>
    </g>
  </g>
</svg>
