<svg xmlns="http://www.w3.org/2000/svg" width="124.42" height="121.262" viewBox="0 0 124.42 121.262">
  <g id="Group_6454" data-name="Group 6454" transform="translate(-221.815 -4980.476)">
    <path id="Path_5977" data-name="Path 5977" d="M2947.094,2273.722a7.624,7.624,0,0,0-2.651-5.911c-1.874-1.877-7.045-22.335-7.045-22.335-3.763-9.644,6.109-34.348,6.576-35.516.3-.755,2.891-7.712,4.733-13.023.656-2.137,1.279-4.154,1.85-5.991,0-.009,0-.022,0-.03a2.637,2.637,0,0,1,.419-1.337c1.724-5.562,2.843-9.147,2.67-8.8.5.5-118.256,0-118.256,0-.174.953-2.815,37.019-3.045,38.067a43.455,43.455,0,0,1,1.442,7.957c0,1.067-.038,2.974-.082,5l.213,1.761c1.055-.353,1.9-.2,2.288.958,1.2,3.622,1.444,12.3,2.4,13.515s2.655,6.272,4.1,6.272,3.384-1.932,7,7.24,5.06,9.407,6.267,9.407c.979,0,3.832-.475,5.288,2.4l10.864-3.133a7.244,7.244,0,0,1,3.621,4.343c.9,2.523,2.887,6.266,6.33,8.291a10.14,10.14,0,0,0,4.04,1.362,33.455,33.455,0,0,0,10.846-.474,57,57,0,0,0,7.232-2.126,137.554,137.554,0,0,1,9.167,11.29c3.134,4.828,9.156,3.621,9.156,3.621,13.983,6.27,16.873-1.451,16.873-1.451,5.291-5.444,6.787-9.933,7.3-14.192C2946.974,2278.47,2946.938,2276.123,2947.094,2273.722Z" transform="translate(-2608.99 2801.234)" fill="#b2ebf4" stroke="#f7f7f4" stroke-miterlimit="10" stroke-width="3"/>
    <text id="本日" transform="translate(261.613 5048.67)" fill="#323232" font-size="13" font-family="SourceHanSansJP-Bold, Source Han Sans JP" font-weight="700"><tspan x="-39" y="0">白樺湖・車山</tspan></text>
  </g>
</svg>
