<svg xmlns="http://www.w3.org/2000/svg" width="127.475" height="157.715" viewBox="0 0 127.475 157.715">
  <g id="Group_6459" data-name="Group 6459" transform="translate(-355.29 -5193.005)">
    <path id="Path_5981" data-name="Path 5981" d="M3142.682,2511.365c-4.5-.643-16.525-1.152-18.667-6.724s-11.386,3.262-9.459-2.74-10.2-13.432-11.7-17.934-22.682,2.569-30.179.211-22.034-7.727-26.167-6.479c-4.1,1.238-7.189,9.457-8.863,12.449-1.664,2.973-2.033,4.308-3.706,7.659-1.994,3.99-1.539,9.525-2.823,15.741s-3.214,13.933-5.356,19.079-.643,11.79-.215,16.72,5.356,7.5,5.784,12.862.428,6.86,2.571,11.791,1.714,7.074-1.071,10.076-13.711,11.147-13.711,11.147a10.547,10.547,0,0,0-.1,3.685,13.157,13.157,0,0,0,7.173-.9c4.284-1.714,7.5-3.215,10.926-2.143s6.854,2.143,7.07,5.144.857,6.432,0,9.862.428,3.431,2.784,4.93,5.141,2.786,7.711,5.36,7.069,4.93,8.355,7.717a9.868,9.868,0,0,1,.726,2.073,17.224,17.224,0,0,0,3.344-4.859c2.57-4.93,2.785-4.717,6.855-9.432s6.642-4.717,8.783-11.576,3.642-8.146,5.783-14.149,6-9.433,6.427-13.077-2.356-9.646-5.14-13.719-1.715-5.574,1.713-7.289,8.354,4.716,11.782,4.931,2.785-2.359,6.641-4.288,9.64-4.5,9.64-7.5,2.142-6.217,4.927-11.79S3147.181,2512.009,3142.682,2511.365Z" transform="translate(-2662.076 2716.927)" fill="#b2ebf4" stroke="#f7f7f4" stroke-miterlimit="10" stroke-width="3"/>
    <text id="本日" transform="translate(398.467 5258.313)" fill="#323232" font-size="13" font-family="SourceHanSansJP-Bold, Source Han Sans JP" font-weight="700"><tspan x="-13" y="0">清里</tspan></text>
  </g>
</svg>
