<svg xmlns="http://www.w3.org/2000/svg" width="171.97" height="158.552" viewBox="0 0 171.97 158.552">
  <g id="Group_6461" data-name="Group 6461" transform="translate(-215.516 -5080.201)">
    <path id="Path_5983" data-name="Path 5983" d="M2892.271,2458.213c.045,1.331-.505,2.05-.712,1.412-.482-1.454-9.4-3.139-9.4-3.139-.971,5.314-2.416,3.863-7.725,2.178a5.622,5.622,0,0,0-7.227,2.884c-4.545,5.929-7.587,10.161-9.662,13.215a26.829,26.829,0,0,0-3.12-2.594s-1.441-9.407-5.3-11.331-3.139-9.176-3.139-9.176c-1.2-9.654.486-3.386-11.325-14.478-4.212-3.948-7.989-5.481-11.136-5.829.126-5.163.62-11.009,2.2-11.542,2.9-.966,7.965-8.2,9.646-10.375,1.691-2.164,2.181-8.686,5.55-8.922s8.439-.729,8.916-5.079c.483-4.334-1.441-10.856-1.441-10.856s-2.413-6.264,2.171-9.9a36.815,36.815,0,0,0,7.477-8.189s5.059-8.934,5.305-12.3c.235-3.389.478-11.338.478-11.338s1.2-5.311,5.54-5.792,3.374-6.038,2.9-7.485,2.4-3.141,4.1-1.926c1.173.843,2-2.173,3.2-5.227a10.132,10.132,0,0,0,4.04,1.362,33.456,33.456,0,0,0,10.846-.475,57.145,57.145,0,0,0,7.233-2.125,137.846,137.846,0,0,1,9.166,11.289c3.133,4.829,9.157,3.622,9.157,3.622,13.983,6.27,16.873-1.451,16.873-1.451,5.291-5.443,6.787-9.933,7.3-14.191,6.5-.619,15.088-.922,16.637,1.51a1.713,1.713,0,0,1,.182.379s-.244,11.086-.244,12.783-6.265,6.032.962,6.271c0,0,5.555-.239,4.828,6.278,0,0-2.654,2.176,4.821,10.37a25.05,25.05,0,0,1,3.136,9.655c.276,3.038,1.19,3.869,2.416,4.6a10.869,10.869,0,0,1,3.126,2.388c2.651,3.147,3.136,3.634,3.136,8.94a102.793,102.793,0,0,0,.317,10.584c.479,5.076,1.7,10.388,4.747,13.3,5.549,5.306,4.093,9.4,4.093,11.336,0,1.258-1.1,8.083-1.42,14.108a5.946,5.946,0,0,0-2.38,2c-6.1-2.284-13.592-4.866-15.724-5.007-3.614-.233-17.841-1.932-24.112-1.449s-41.951-6.272-47.742-7.966-8.436-.471-8.436-.471c-.966,5.3-8.44,7.232-9.164,7.465a130.57,130.57,0,0,1-14.223,1.454c-3.379,0-4.579,1.687-1.445,7.485s13.021,11.34,19.776,15.2C2891.242,2453.821,2892.23,2456.512,2892.271,2458.213Z" transform="translate(-2606.48 2761.67)" fill="#b2ebf4" stroke="#f7f7f4" stroke-miterlimit="10" stroke-width="3"/>
    <text id="本日" transform="translate(285.471 5151.663)" fill="#323232" font-size="13" font-family="SourceHanSansJP-Bold, Source Han Sans JP" font-weight="700"><tspan x="-32.5" y="0">茅野・蓼科</tspan></text>
  </g>
</svg>
