<svg xmlns="http://www.w3.org/2000/svg" width="219.063" height="211.604" viewBox="0 0 219.063 211.604">
  <g id="Group_6456" data-name="Group 6456" transform="translate(-337.382 -5230.712)">
    <path id="Path_5980" data-name="Path 5980" d="M3207.638,2572.5c.1-.244.191-.489.285-.733.041-.107.083-.214.123-.322.085-.221.167-.439.25-.658.051-.135.1-.271.152-.406q.112-.3.221-.6c.054-.147.108-.295.16-.44.065-.181.128-.358.191-.534.056-.158.11-.312.164-.466s.11-.314.162-.466.111-.324.165-.48c.042-.127.086-.255.127-.377.059-.177.113-.343.166-.507.028-.088.059-.183.086-.267.076-.241.146-.465.2-.664a16.992,16.992,0,0,0-7.28-1.681s.31-2.926,1.679-15.131c0,0,1.177-7.883-3.36-10.648s-12.324-8.04-15.68-7.846l-.072.069-.032.031c-.056.055-.134.129-.235.228l-.036.034c-.108.1-.233.222-.383.362l-.016.016c-.149.14-.32.3-.505.471l-.083.077c-.192.178-.4.369-.625.574l-.038.035c-.228.206-.471.424-.727.652l-.041.035c-.254.225-.521.459-.8.7l-.118.1c-.285.244-.575.492-.877.744l-.006,0h0c-3.746,3.129-8.73,6.668-10.714,5.271,0,0-5.788-5.451-12.131-4.909-3.723-1.022-5.527.522-8.486,2.37a8,8,0,0,1-1.732.845,3.676,3.676,0,0,1-.526-.279s-7.562-3.168-13.249-5.61h0c-4.658,6.366-14.573,17.955-16.139,21.09-.348.7-.686,1.357-1.012,1.984-1.95,3.764-3.434,6.351-3.817,8.667a6.938,6.938,0,0,0-.1,1.14,2.627,2.627,0,0,1-.256,1.1,5.253,5.253,0,0,1-1.2,1.576,11.725,11.725,0,0,1-1.216.994c-.448.323-.934.638-1.442.945s-1.039.6-1.577.892c-.808.434-1.633.846-2.424,1.238-.527.261-1.039.512-1.521.753a11.4,11.4,0,0,0-3.762,3.256c-.094.1-.19.192-.289.278a3.229,3.229,0,0,1-2.591.754,4.047,4.047,0,0,1-1.115-.264c-3.322-1.211-7.595-6.2-10.667-4.666-3.427,1.715-4.5,3.215-1.714,7.289a38.875,38.875,0,0,1,2.965,5.169c.291.615.564,1.235.811,1.851a16.663,16.663,0,0,1,1.409,5.989,6.89,6.89,0,0,1-.044.71c-.241,2.05-1.566,4.032-3.061,6.442-.166.268-.335.54-.5.82-.277.458-.555.936-.832,1.428q-.224.4-.445.82c-.307.584-.606,1.2-.889,1.839-.21.474-.41.963-.6,1.473-.032.086-.067.167-.1.255-.741,2.076-1.4,3.584-2.045,4.958-.748,1.605-1.464,3.024-2.233,4.93-.118.295-.238.6-.359.922-.365.962-.743,2.053-1.146,3.339-1.875,6-4.078,6.751-7.326,10-.464.465-.949.981-1.458,1.571-.9,1.041-1.6,1.834-2.19,2.5-.246.279-.478.542-.686.781l-.4.473a21.313,21.313,0,0,0-2.708,4.048c-.261.475-.545,1.011-.866,1.627-.177.34-.348.655-.516.953-.054.1-.106.187-.16.28-.111.192-.219.381-.325.557l-.175.285c-.1.155-.19.3-.283.445-.055.086-.11.169-.163.248-.094.141-.185.272-.274.4-.043.061-.087.125-.128.182-.114.154-.22.3-.325.427l-.043.057a9.62,9.62,0,0,1-.669.759l-.017.017c-.094.1-.183.179-.264.252h0c.355,1.669-.01,3.1-.94,5.43a6.344,6.344,0,0,1-1.515,2.224l.006,0c-18.69,5.475-11.136,8.048-11.136,8.048,8.672,11.448,3.938,8.886,3.938,8.886-9.46-2.574-13.6.78-13.6.78-12.426,3.56-9.663,9.08-9.663,9.08-.8,5.922-10.057,18.157-10.057,18.157-7.1,5.727-12.617,4.736-12.617,4.736-2.214.19-4.191.269-5.976.26,3.266,5.123,7.926,12.452,8.927,13.953a49.377,49.377,0,0,1,4.936,9.673s3.745,8.284,15.186,5.915c0,0,1.973-.2,5.12-.792s3.163-1.182,3.953-2.96.982-5.915,4.927-5.329c0,0,3.546-1.181,9.264,1.189,0,0,.793,2.56,6.9,2.962a15.369,15.369,0,0,0,10.061,4.139c6.315.2,5.518,0,12.226,4.152,0,0,4.333,4.728,16.567.982.564-.177,1.061-.325,1.538-.471l12.656-3.678s9.059-.963,13.542-4.6a52.99,52.99,0,0,1-8.812-5.655c-4.531-3.551-3.937-12.431-3.937-12.431-1.189-6.51,2.955-12.232,5.125-13.42s3.145-4.739,4.136-.589,1.187,3.346,2.957,2.367,11.442-11.25,11.442-11.25c6.118-3.947,6.312-11.446,7.894-19.145a34.976,34.976,0,0,0,.193-13.615c.985-1.551-5.046-1.691-8.589-1.646,1.977-6.059,4.89-16.081,4.6-21.989,0,0,4.874-11.539,15.972-5.772a46.919,46.919,0,0,0,9.222,2.111c.513-4.977,2.657-6.647,2.657-6.647,3.152-.99,1.971-6.124,1.971-6.124-2.763-11.441,2.96-9.27,10.849-9.664s8.282-6.508,10.442-10.264c2.176-3.745,1.2-4.93,3.957-4.93s3.145-.2,5.712-5.326,3.947-3.551,6.9-5.14c.76-.4,2.237-3.658,3.568-7.039Z" transform="translate(-2655.441 2701.938)" fill="#b2ebf4" stroke="#f7f7f4" stroke-miterlimit="10" stroke-width="3"/>
    <text id="area" transform="translate(469.865 5340.157)" fill="#323232" font-size="13" font-family="SourceHanSansJP-Bold, Source Han Sans JP" font-weight="700"><tspan x="-32.5" y="0">韮崎・増富</tspan></text>
  </g>
</svg>
