<svg xmlns="http://www.w3.org/2000/svg" width="142.371" height="145.385" viewBox="0 0 142.371 145.385">
  <g id="Group_6457" data-name="Group 6457" transform="translate(-260.946 -5261.595)">
    <path id="Path_5982" data-name="Path 5982" d="M3026.3,2659.06c-.005-.088-.005-.176-.015-.262a8.612,8.612,0,0,0-.825-2.695c-1.287-2.788-5.784-5.146-8.356-7.718s-5.356-3.859-7.711-5.36-3.642-1.5-2.785-4.93.214-6.859,0-9.862-3.643-4.073-7.07-5.144-6.64.428-10.924,2.143a12.908,12.908,0,0,1-6.58.963,1.372,1.372,0,0,0,.206.592,6.167,6.167,0,0,1-4.259.354c-3.652-1.034-3.128-12.831-6.356-14.3s-6.84,1.569-7.96-3.351-2.64-6.833-6.519-9.153c-2.369-1.416-3.334-3.132-3.185-5.107q-.667-.435-1.337-.868c-3.643-2.358-4.614-6.259-8.684-9.26s-9.009-9.908-12.639-11.363c-4.284-1.714-8.025,2.4-10.394,4.9s-10.107,14.637-12.248,19.354-7.234,19.737-7.877,22.31-1.115,7.075-1.756,9.433-7.892,10.052-8.009,10.189c-2.289,2.706-5.445,5.46-3.642,10.079s8.908,7.386,14.263,9.959,15,12.219,17.089,15.927,3.263,16.229,6.477,20.3,11.567,4.073,15.852,4.287,14.781,12.22,19.28,13.934a33.65,33.65,0,0,0,4.361,1.363c1.766.006,3.718-.073,5.9-.261,0,0,5.515.991,12.616-4.736,0,0,9.261-12.235,10.058-18.156,0,0-2.764-5.519,9.662-9.08,0,0,4.1-3.3,13.425-.823a2.3,2.3,0,0,0,.744-1.319c.056-.24.1-.43.147-.6a50.339,50.339,0,0,0-4.65-6.924s-7.551-2.573,11.131-8.046c.139-.134.274-.278.407-.428.017-.019.034-.038.049-.058.113-.132.222-.273.327-.419.027-.039.056-.075.083-.115.094-.137.183-.283.269-.432.028-.049.058-.094.085-.145a5.978,5.978,0,0,0,.294-.627l.006-.014c.137-.345.258-.664.37-.974.038-.1.073-.2.108-.3.075-.22.143-.431.205-.635.029-.1.061-.2.086-.291q.111-.4.182-.771c.017-.086.024-.169.037-.254.026-.17.047-.339.058-.507.007-.1.014-.208.015-.312C3026.317,2659.383,3026.312,2659.221,3026.3,2659.06Z" transform="translate(-2624.498 2689.706)" fill="#b2ebf4" stroke="#f7f7f4" stroke-miterlimit="10" stroke-width="3"/>
    <text id="本日" transform="translate(320.68 5340.157)" fill="#323232" font-size="13" font-family="SourceHanSansJP-Bold, Source Han Sans JP" font-weight="700"><tspan x="-13" y="0">白州</tspan></text>
  </g>
</svg>
