<svg xmlns="http://www.w3.org/2000/svg" width="47.031" height="105.268" viewBox="0 0 47.031 105.268">
  <g id="Group_6458" data-name="Group 6458" transform="translate(-327.943 -5213.314)">
    <path id="Path_5978" data-name="Path 5978" d="M3009.885,2603.409s6.591-5.911,10.645-9.565c.594-.582,1.187-1.154,1.764-1.709,2.755-3.029,3.162-5.176.971-10.084s-2.207-6.41-2.689-11.765-5.435-7.877-5.912-12.8-2.044-11.556.047-16.722,3.94-12.9,5.163-19.132.592-6.368,1.52-10.731c.175-.821.887-4.225.794-4.317-6.495,4.444-10.85,18.349-19.077,31.08s-18.586,30.914-20.887,34.524c-2.392,3.751-2.264,6.869,1.615,9.189s5.4,4.233,6.52,9.152,4.731,1.882,7.96,3.351,2.7,13.265,6.356,14.3a6.175,6.175,0,0,0,4.258-.354C3008.082,2606.561,3009.885,2603.409,3009.885,2603.409Z" transform="translate(-2651.191 2708.67)" fill="#b2ebf4" stroke="#f7f7f4" stroke-miterlimit="10" stroke-width="3"/>
    <text id="本日" transform="translate(352.68 5292.734)" fill="#323232" font-size="13" font-family="SourceHanSansJP-Bold, Source Han Sans JP" font-weight="700"><tspan x="-19.5" y="0">小淵沢</tspan></text>
  </g>
</svg>
