<svg xmlns="http://www.w3.org/2000/svg" width="30.063" height="30.063" viewBox="0 0 30.063 30.063">
  <g id="Group_1941" data-name="Group 1941" transform="translate(-628 -8099)">
    <circle id="Ellipse_3" data-name="Ellipse 3" cx="15" cy="15" r="15" transform="translate(628 8099)" fill="#fff"/>
    <g id="Group_7" data-name="Group 7" transform="translate(628 8099)">
      <path id="Path_31" data-name="Path 31" d="M1455.211,52.5a15.031,15.031,0,1,0,15.031,15.031A15.03,15.03,0,0,0,1455.211,52.5Zm.343,13.076h.009a3.128,3.128,0,0,1-.084-.733,3.217,3.217,0,0,1,5.566-2.2,6.419,6.419,0,0,0,1.7-.6c.115-.056.228-.114.34-.177a3.2,3.2,0,0,1-1.032,1.5,2.836,2.836,0,0,1-.379.266l.018,0-.017.012a6.384,6.384,0,0,0,1.51-.369c.11-.039.22-.078.329-.122a6.517,6.517,0,0,1-1.6,1.652c.01.141.01.277.01.418a9.149,9.149,0,0,1-14.087,7.708,6.923,6.923,0,0,0,.771.047,6.419,6.419,0,0,0,3.036-.76l.058-.029c.058-.032.114-.068.17-.1a6.709,6.709,0,0,0,.728-.482h-.011l.011-.008a3.222,3.222,0,0,1-2.814-1.765,3.3,3.3,0,0,1-.187-.465,3.247,3.247,0,0,0,.6.055,3.179,3.179,0,0,0,.619-.066c.077-.012.154-.022.229-.038l-.018-.006.02,0a3.22,3.22,0,0,1-2.583-3.157v-.038a3.2,3.2,0,0,0,1.125.369c.11.017.22.031.331.039l-.012-.01.018,0a3.2,3.2,0,0,1-1.1-4.086c.036-.068.067-.138.107-.2a9.117,9.117,0,0,0,6.527,3.347c.032,0,.062.008.093.009Z" transform="translate(-1440.18 -52.5)"/>
    </g>
  </g>
</svg>
