<svg xmlns="http://www.w3.org/2000/svg" width="66.441" height="63.039" viewBox="0 0 66.441 63.039">
  <g id="icon" transform="translate(-685.695 -1057.266)">
    <g id="Group_44" data-name="Group 44" transform="translate(685.695 1057.266)">
      <g id="Group_43" data-name="Group 43">
        <path id="Path_69" data-name="Path 69" d="M706.018,1065.533,685.7,1121.417l2.757-.736,20.762-56.959Z" transform="translate(-685.696 -1058.378)" fill="#00bedc"/>
        <path id="Path_70" data-name="Path 70" d="M727.03,1089.561c-2.316-2.284-4.569-4.057-7.669-3.839-5.2.365-11.433,4.71-12.4,5.125l-1.523,3.691c3.016-1.972,9.775-6.4,14.093-6.473,2-.031,3.746,1.319,5.754,3.239,2.256,2.157,4.689,4.849,7.821,4.462a24.372,24.372,0,0,0,6.133-1.755l1.712-3.548c-1.414.779-5.1,2.58-7.242,2.815C731.079,1093.564,729.219,1091.719,727.03,1089.561Z" transform="translate(-689.097 -1062.167)" fill="#00bedc"/>
        <path id="Path_71" data-name="Path 71" d="M729.782,1059.76c1.253.479,1.959,2.49,2.641,4.439.9,2.572,1.963,5.318,4.816,5.98,3.485.809,12.05-1.79,15.93-3.518l-8.923,21.253,3.587-1.637,9.6-23.613-2.689,1.054c-4.594,1.8-13.933,4.927-16.968,4.15-1.343-.344-2.115-2.353-2.831-4.4-.857-2.448-1.742-4.981-4.1-5.872-4.258-1.613-11.063,3.187-12.973,4.316l-1.443,3.577C719.977,1062.757,727.435,1058.863,729.782,1059.76Z" transform="translate(-690.993 -1057.266)" fill="#00bedc"/>
      </g>
      <text id="NEW" transform="translate(23.973 18.455) rotate(12.661)" fill="#00bedc" font-size="9" font-family="Futura-Bold, Futura" font-weight="700" letter-spacing="0.1em"><tspan x="0" y="0">NEW</tspan></text>
    </g>
  </g>
</svg>
