<svg id="Group_7" data-name="Group 7" xmlns="http://www.w3.org/2000/svg" width="30.965" height="30.965" viewBox="0 0 30.965 30.965">
  <path id="Path_31" data-name="Path 31" d="M1455.663,52.5a15.482,15.482,0,1,0,15.482,15.482A15.481,15.481,0,0,0,1455.663,52.5Zm.353,13.469h.01a3.221,3.221,0,0,1-.087-.755,3.314,3.314,0,0,1,5.733-2.264,6.614,6.614,0,0,0,1.75-.616c.118-.058.235-.117.35-.182a3.291,3.291,0,0,1-1.062,1.541,2.922,2.922,0,0,1-.391.274l.018,0-.017.013a6.578,6.578,0,0,0,1.555-.38c.113-.04.227-.08.339-.126a6.712,6.712,0,0,1-1.647,1.7c.01.145.01.285.01.431a9.424,9.424,0,0,1-14.51,7.94,7.132,7.132,0,0,0,.793.048,6.613,6.613,0,0,0,3.127-.783c.02-.011.041-.019.06-.03.06-.033.117-.07.175-.1a6.891,6.891,0,0,0,.75-.5h-.011l.011-.009a3.319,3.319,0,0,1-2.9-1.818,3.416,3.416,0,0,1-.192-.479,3.345,3.345,0,0,0,.618.057,3.274,3.274,0,0,0,.638-.068c.079-.013.159-.022.236-.039l-.018-.006.02,0a3.317,3.317,0,0,1-2.661-3.251v-.039a3.291,3.291,0,0,0,1.158.38c.113.017.226.032.341.04l-.012-.011.018,0a3.293,3.293,0,0,1-1.133-4.208c.037-.07.069-.142.11-.21a9.391,9.391,0,0,0,6.723,3.448c.033,0,.064.009.1.01Z" transform="translate(-1440.18 -52.5)" fill="#fff"/>
</svg>
