<svg id="Group_8" data-name="Group 8" xmlns="http://www.w3.org/2000/svg" width="25.098" height="25.098" viewBox="0 0 25.098 25.098">
  <path id="Path_32" data-name="Path 32" d="M1410.549,52.5A12.549,12.549,0,1,0,1423.1,65.049,12.55,12.55,0,0,0,1410.549,52.5Zm-1.886,20.2V65.727h0v-.008h-2.345V63h2.345V61a4.187,4.187,0,0,1,.39-1.858c.01-.021.023-.04.034-.061.04-.078.082-.154.127-.226.022-.035.046-.067.069-.1.04-.056.078-.114.121-.167.026-.033.054-.063.082-.094.045-.052.089-.1.138-.153.021-.021.045-.04.067-.061.059-.056.119-.111.183-.162l.024-.017a3.636,3.636,0,0,1,2.265-.7,18.519,18.519,0,0,1,2.1.11v2.431h-1.439c-1.13,0-1.349.537-1.349,1.322v1.729h0V63h2.69l-.349,2.717h-2.341V72.7h-2.808Z" transform="translate(-1398 -52.5)"/>
</svg>
