<svg xmlns="http://www.w3.org/2000/svg" width="30.063" height="30.063" viewBox="0 0 30.063 30.063">
  <g id="Group_1942" data-name="Group 1942" transform="translate(-595 -8099)">
    <circle id="Ellipse_4" data-name="Ellipse 4" cx="15" cy="15" r="15" transform="translate(595 8099)" fill="#fff"/>
    <g id="Group_8" data-name="Group 8" transform="translate(595 8099)">
      <path id="Path_32" data-name="Path 32" d="M1413.031,52.5a15.031,15.031,0,1,0,15.031,15.031A15.033,15.033,0,0,0,1413.031,52.5Zm-2.259,24.191V68.344h0v-.009h-2.809V65.079h2.809v-2.4a5.015,5.015,0,0,1,.467-2.226c.012-.025.027-.048.04-.073.048-.093.1-.184.152-.271.026-.041.055-.08.083-.12.048-.068.094-.136.145-.2.031-.039.065-.075.1-.113.053-.062.107-.125.166-.183.025-.025.053-.048.08-.073.071-.067.143-.133.219-.194l.028-.021a4.356,4.356,0,0,1,2.713-.834,22.18,22.18,0,0,1,2.513.132v2.912h-1.724c-1.353,0-1.616.644-1.616,1.583V65.07h0v.009h3.222l-.418,3.254h-2.8v8.356h-3.363Z" transform="translate(-1398 -52.5)"/>
    </g>
  </g>
</svg>
