<svg id="Group_7" data-name="Group 7" xmlns="http://www.w3.org/2000/svg" width="25.098" height="25.098" viewBox="0 0 25.098 25.098">
  <path id="Path_31" data-name="Path 31" d="M1452.729,52.5a12.549,12.549,0,1,0,12.549,12.549A12.548,12.548,0,0,0,1452.729,52.5Zm.286,10.917h.008a2.609,2.609,0,0,1-.071-.612,2.686,2.686,0,0,1,4.647-1.835,5.36,5.36,0,0,0,1.419-.5c.1-.047.191-.095.284-.147a2.669,2.669,0,0,1-.861,1.249,2.366,2.366,0,0,1-.317.222l.015,0-.014.01a5.328,5.328,0,0,0,1.26-.308c.092-.032.184-.065.275-.1a5.44,5.44,0,0,1-1.335,1.379c.008.118.008.231.008.349a7.638,7.638,0,0,1-11.761,6.435,5.781,5.781,0,0,0,.643.039,5.359,5.359,0,0,0,2.535-.634l.049-.024c.049-.027.095-.056.142-.084a5.593,5.593,0,0,0,.608-.4h-.009l.009-.007a2.69,2.69,0,0,1-2.349-1.474,2.762,2.762,0,0,1-.156-.388,2.712,2.712,0,0,0,.5.046,2.654,2.654,0,0,0,.517-.055c.064-.01.129-.018.191-.031l-.015,0,.016,0A2.688,2.688,0,0,1,1447.1,63.9v-.031a2.669,2.669,0,0,0,.939.308c.092.014.183.026.276.032l-.01-.009.015,0a2.669,2.669,0,0,1-.918-3.411c.03-.056.056-.115.089-.17a7.611,7.611,0,0,0,5.449,2.794c.027,0,.052.007.078.008Z" transform="translate(-1440.18 -52.5)"/>
</svg>
