<svg xmlns="http://www.w3.org/2000/svg" width="25" height="25" viewBox="0 0 25 25">
  <g id="Group_1796" data-name="Group 1796" transform="translate(-0.098)">
    <circle id="Ellipse_2" data-name="Ellipse 2" cx="12.5" cy="12.5" r="12.5" transform="translate(0.098)"/>
    <g id="Icon_-_Instagram_-_White" data-name="Icon - Instagram - White" transform="translate(6.274 6.274)">
      <path id="Path_3" data-name="Path 3" d="M6.591,1.172a20.208,20.208,0,0,1,2.636.073,3.4,3.4,0,0,1,1.245.22,2.572,2.572,0,0,1,1.245,1.245,3.4,3.4,0,0,1,.22,1.245c0,.659.073.879.073,2.636a20.208,20.208,0,0,1-.073,2.636,3.4,3.4,0,0,1-.22,1.245,2.572,2.572,0,0,1-1.245,1.245,3.4,3.4,0,0,1-1.245.22c-.659,0-.879.073-2.636.073a20.208,20.208,0,0,1-2.636-.073,3.4,3.4,0,0,1-1.245-.22,2.572,2.572,0,0,1-1.245-1.245,3.4,3.4,0,0,1-.22-1.245c0-.659-.073-.879-.073-2.636a20.208,20.208,0,0,1,.073-2.636,3.4,3.4,0,0,1,.22-1.245,2.63,2.63,0,0,1,.513-.732,1.238,1.238,0,0,1,.732-.513,3.4,3.4,0,0,1,1.245-.22,20.208,20.208,0,0,1,2.636-.073M6.591,0A21.637,21.637,0,0,0,3.881.073,4.521,4.521,0,0,0,2.27.366,2.867,2.867,0,0,0,1.1,1.1,2.867,2.867,0,0,0,.366,2.27,3.337,3.337,0,0,0,.073,3.881,21.637,21.637,0,0,0,0,6.591,21.637,21.637,0,0,0,.073,9.3a4.521,4.521,0,0,0,.293,1.611A2.867,2.867,0,0,0,1.1,12.083a2.867,2.867,0,0,0,1.172.732,4.521,4.521,0,0,0,1.611.293,21.637,21.637,0,0,0,2.709.073A21.637,21.637,0,0,0,9.3,13.108a4.521,4.521,0,0,0,1.611-.293,3.072,3.072,0,0,0,1.9-1.9A4.521,4.521,0,0,0,13.108,9.3c0-.732.073-.952.073-2.709a21.637,21.637,0,0,0-.073-2.709,4.521,4.521,0,0,0-.293-1.611A2.867,2.867,0,0,0,12.083,1.1,2.867,2.867,0,0,0,10.911.366,4.521,4.521,0,0,0,9.3.073,21.637,21.637,0,0,0,6.591,0m0,3.222A3.314,3.314,0,0,0,3.222,6.591,3.369,3.369,0,1,0,6.591,3.222m0,5.565a2.158,2.158,0,0,1-2.2-2.2,2.158,2.158,0,0,1,2.2-2.2,2.158,2.158,0,0,1,2.2,2.2,2.158,2.158,0,0,1-2.2,2.2M10.106,2.27a.806.806,0,1,0,.806.806.813.813,0,0,0-.806-.806" fill="#fff" fill-rule="evenodd"/>
    </g>
  </g>
</svg>
