<svg id="Group_8" data-name="Group 8" xmlns="http://www.w3.org/2000/svg" width="30.965" height="30.965" viewBox="0 0 30.965 30.965">
  <path id="Path_32" data-name="Path 32" d="M1413.483,52.5a15.482,15.482,0,1,0,15.482,15.482A15.484,15.484,0,0,0,1413.483,52.5Zm-2.327,24.917v-8.6h0v-.01h-2.893V65.457h2.893V62.985a5.166,5.166,0,0,1,.481-2.292c.012-.026.028-.049.042-.075.049-.1.1-.19.157-.279.027-.043.057-.082.085-.124.049-.07.1-.14.149-.206.032-.041.067-.077.1-.116.055-.064.11-.129.17-.189.026-.026.055-.049.082-.075.073-.069.147-.137.225-.2l.029-.021a4.487,4.487,0,0,1,2.795-.859,22.846,22.846,0,0,1,2.588.135v3h-1.776c-1.394,0-1.664.663-1.664,1.63v2.134h0v.01h3.319l-.431,3.352h-2.888v8.607h-3.464Z" transform="translate(-1398 -52.5)" fill="#fff"/>
</svg>
