<svg id="Group_1796" data-name="Group 1796" xmlns="http://www.w3.org/2000/svg" width="30.844" height="30.844" viewBox="0 0 30.844 30.844">
  <circle id="Ellipse_2" data-name="Ellipse 2" cx="15.422" cy="15.422" r="15.422" transform="translate(0)" fill="#fff"/>
  <g id="Icon_-_Instagram_-_White" data-name="Icon - Instagram - White" transform="translate(7.621 7.741)">
    <path id="Path_3" data-name="Path 3" d="M8.131,1.446a24.933,24.933,0,0,1,3.253.09,4.191,4.191,0,0,1,1.536.271,3.173,3.173,0,0,1,1.536,1.536,4.191,4.191,0,0,1,.271,1.536c0,.813.09,1.084.09,3.253a24.933,24.933,0,0,1-.09,3.253,4.191,4.191,0,0,1-.271,1.536,3.173,3.173,0,0,1-1.536,1.536,4.191,4.191,0,0,1-1.536.271c-.813,0-1.084.09-3.253.09a24.933,24.933,0,0,1-3.253-.09,4.191,4.191,0,0,1-1.536-.271A3.173,3.173,0,0,1,1.807,12.92a4.191,4.191,0,0,1-.271-1.536c0-.813-.09-1.084-.09-3.253a24.933,24.933,0,0,1,.09-3.253,4.191,4.191,0,0,1,.271-1.536,3.245,3.245,0,0,1,.632-.9,1.528,1.528,0,0,1,.9-.632,4.191,4.191,0,0,1,1.536-.271,24.933,24.933,0,0,1,3.253-.09M8.131,0A26.7,26.7,0,0,0,4.788.09,5.578,5.578,0,0,0,2.8.452a3.537,3.537,0,0,0-1.446.9A3.537,3.537,0,0,0,.452,2.8,4.117,4.117,0,0,0,.09,4.788,26.7,26.7,0,0,0,0,8.131a26.7,26.7,0,0,0,.09,3.343,5.578,5.578,0,0,0,.361,1.988,3.537,3.537,0,0,0,.9,1.446,3.537,3.537,0,0,0,1.446.9,5.578,5.578,0,0,0,1.988.361,26.7,26.7,0,0,0,3.343.09,26.7,26.7,0,0,0,3.343-.09,5.578,5.578,0,0,0,1.988-.361,3.791,3.791,0,0,0,2.349-2.349,5.578,5.578,0,0,0,.361-1.988c0-.9.09-1.175.09-3.343a26.7,26.7,0,0,0-.09-3.343A5.578,5.578,0,0,0,15.811,2.8a3.537,3.537,0,0,0-.9-1.446,3.537,3.537,0,0,0-1.446-.9A5.578,5.578,0,0,0,11.474.09,26.7,26.7,0,0,0,8.131,0m0,3.975A4.089,4.089,0,0,0,3.975,8.131,4.156,4.156,0,1,0,8.131,3.975m0,6.867a2.662,2.662,0,0,1-2.71-2.71,2.662,2.662,0,0,1,2.71-2.71,2.662,2.662,0,0,1,2.71,2.71,2.662,2.662,0,0,1-2.71,2.71M12.468,2.8a.994.994,0,1,0,.994.994,1,1,0,0,0-.994-.994" fill-rule="evenodd"/>
  </g>
</svg>
