<svg xmlns="http://www.w3.org/2000/svg" width="30.063" height="30.063" viewBox="0 0 30.063 30.063">
  <g id="Group_1796" data-name="Group 1796" transform="translate(-0.098)">
    <circle id="Ellipse_2" data-name="Ellipse 2" cx="15.031" cy="15.031" r="15.031" transform="translate(0.098)"/>
    <g id="Icon_-_Instagram_-_White" data-name="Icon - Instagram - White" transform="translate(7.525 7.545)">
      <path id="Path_3" data-name="Path 3" d="M7.925,1.409A24.3,24.3,0,0,1,11.1,1.5a4.084,4.084,0,0,1,1.5.264,3.093,3.093,0,0,1,1.5,1.5,4.084,4.084,0,0,1,.264,1.5c0,.793.088,1.057.088,3.17a24.3,24.3,0,0,1-.088,3.17,4.084,4.084,0,0,1-.264,1.5,3.093,3.093,0,0,1-1.5,1.5,4.084,4.084,0,0,1-1.5.264c-.793,0-1.057.088-3.17.088a24.3,24.3,0,0,1-3.17-.088,4.084,4.084,0,0,1-1.5-.264,3.093,3.093,0,0,1-1.5-1.5A4.084,4.084,0,0,1,1.5,11.1c0-.793-.088-1.057-.088-3.17A24.3,24.3,0,0,1,1.5,4.755a4.084,4.084,0,0,1,.264-1.5,3.163,3.163,0,0,1,.616-.881,1.489,1.489,0,0,1,.881-.616,4.084,4.084,0,0,1,1.5-.264,24.3,24.3,0,0,1,3.17-.088M7.925,0A26.019,26.019,0,0,0,4.667.088,5.436,5.436,0,0,0,2.73.44a3.447,3.447,0,0,0-1.409.881A3.447,3.447,0,0,0,.44,2.73,4.012,4.012,0,0,0,.088,4.667,26.019,26.019,0,0,0,0,7.925a26.019,26.019,0,0,0,.088,3.258A5.436,5.436,0,0,0,.44,13.121a3.447,3.447,0,0,0,.881,1.409,3.447,3.447,0,0,0,1.409.881,5.436,5.436,0,0,0,1.937.352,26.019,26.019,0,0,0,3.258.088,26.019,26.019,0,0,0,3.258-.088,5.436,5.436,0,0,0,1.937-.352,3.694,3.694,0,0,0,2.29-2.29,5.436,5.436,0,0,0,.352-1.937c0-.881.088-1.145.088-3.258a26.019,26.019,0,0,0-.088-3.258A5.436,5.436,0,0,0,15.41,2.73a3.447,3.447,0,0,0-.881-1.409A3.447,3.447,0,0,0,13.121.44,5.436,5.436,0,0,0,11.183.088,26.019,26.019,0,0,0,7.925,0m0,3.875A3.985,3.985,0,0,0,3.875,7.925,4.051,4.051,0,1,0,7.925,3.875m0,6.692A2.6,2.6,0,0,1,5.284,7.925,2.6,2.6,0,0,1,7.925,5.284a2.6,2.6,0,0,1,2.642,2.642,2.6,2.6,0,0,1-2.642,2.642M12.152,2.73a.969.969,0,1,0,.969.969.977.977,0,0,0-.969-.969" fill="#fff" fill-rule="evenodd"/>
    </g>
  </g>
</svg>
