<svg xmlns="http://www.w3.org/2000/svg" width="191.449" height="64.575" viewBox="0 0 191.449 64.575">
  <g id="Group_40" data-name="Group 40" transform="translate(-12.201 -12.394)">
    <g id="Group_39" data-name="Group 39" transform="translate(106.595 12.394)">
      <g id="Group_38" data-name="Group 38">
        <path id="Path_53" data-name="Path 53" d="M105.759,64.592l3.233-.087A49.219,49.219,0,0,0,120.139,51.93l-2.87.483A57.652,57.652,0,0,1,105.759,64.592Z" transform="translate(-105.759 -7.392)" fill="#00bedc"/>
        <path id="Path_54" data-name="Path 54" d="M144.976,52.471c.636-1.138,1.148-2.16,1.526-2.963l5.689-.83.471-1.819-5.363.846,0,0-1.127.182L137.5,49.251l-.555,1.654,7.017-1.024c-.365.782-.873,1.781-1.534,2.9l-6.435.786-.572,1.7,5.831-.626a31.331,31.331,0,0,1-7,7.481l3.253-.153a32.13,32.13,0,0,0,6.352-7.607l7.059-.758.495-1.924Z" transform="translate(-102.155 -8.034)" fill="#00bedc"/>
        <path id="Path_55" data-name="Path 55" d="M137.074,17.5,121.39,52.527l2.389-.462L139.9,16.15Z" transform="translate(-103.781 -11.919)" fill="#00bedc"/>
        <path id="Path_56" data-name="Path 56" d="M174.7,50.625a9.693,9.693,0,0,0,2.514-4.418l-2.227.3a8.071,8.071,0,0,1-1.6,2.614C173.757,49.556,174.056,49.95,174.7,50.625Z" transform="translate(-97.203 -8.116)" fill="#00bedc"/>
        <path id="Path_57" data-name="Path 57" d="M165.316,50.878h0c.16-.4.24-.639.24-.639l-2.361.288s-.092.234-.273.632l-2.908.342a35.622,35.622,0,0,0,2.116-4.21l4.4-.642.792-1.921-4.527.716.845-2.534-2.362.415-.83,2.491-5.072.8-.4,1.716,4.727-.689a34.406,34.406,0,0,1-10.575,12.841l3.488-.194a31.808,31.808,0,0,0,6.277-7l3.12-.329a33.563,33.563,0,0,1-5.225,7.1l2.941-.175a32.693,32.693,0,0,0,5.577-8.983Z" transform="translate(-100.273 -8.533)" fill="#00bedc"/>
        <path id="Path_58" data-name="Path 58" d="M176.363,52.259c-.635-.668-1.121-1.231-1.444-1.624s-.48-.607-.48-.607l-2.295.261.262-2.188c.5-.926.924-1.79,1.261-2.561l6.374-.932.152-2.007-10.3,1.636c.377-.952.709-1.9.962-2.76l-2.086.365a32.155,32.155,0,0,1-4.266,8.471l2.332-.285a19.475,19.475,0,0,0,2.21-3.812L171.2,45.9c-1.254,3.579-4.355,7.693-8.625,11.265l3.3-.288a32.162,32.162,0,0,0,3.7-4.291l-1.052,8.441,2.348-.11,1.263-10.535c.161.235.687.98,1.566,2.019.407.481.89,1.024,1.443,1.6,2.461,2.58,7.136,6.387,14.957,9.468l5.528-.146C184.441,59.77,179.027,55.063,176.363,52.259Z" transform="translate(-98.572 -8.715)" fill="#00bedc"/>
        <path id="Path_59" data-name="Path 59" d="M125.12,50.974a23.786,23.786,0,0,0,4.758,10.958L133,61.785a22.541,22.541,0,0,1-5.4-11.2Z" transform="translate(-103.31 -7.563)" fill="#00bedc"/>
        <path id="Path_60" data-name="Path 60" d="M122.226,66.2c.114,0,.171.046.171.14v1.324h-2.505V66.342a.123.123,0,0,1,.043-.1.144.144,0,0,1,.1-.035v-.141h-1.175V66.2c.1,0,.148.046.148.14v3.534c0,.093-.05.14-.148.14v.14h1.175v-.14a.144.144,0,0,1-.1-.035.126.126,0,0,1-.043-.1V68.413H122.4v1.463c0,.093-.057.14-.171.14v.14h1.2v-.14a.152.152,0,0,1-.1-.035.129.129,0,0,1-.043-.1V66.342a.126.126,0,0,1,.043-.1.152.152,0,0,1,.1-.035v-.141h-1.2Z" transform="translate(-104.102 -5.604)" fill="#00bedc"/>
        <path id="Path_61" data-name="Path 61" d="M130.405,69.813l-1.619-3.168c-.036-.068-.064-.121-.082-.163a.328.328,0,0,1-.027-.124.113.113,0,0,1,.055-.113.616.616,0,0,1,.108-.043v-.141h-1.315V66.2a.479.479,0,0,1,.117.046.116.116,0,0,1,.054.109.348.348,0,0,1-.043.148c-.028.056-.062.119-.1.187l-1.439,3.028a1.8,1.8,0,0,1-.114.194.229.229,0,0,1-.159.1v.14h1.1v-.14c-.1,0-.148-.028-.148-.086a.647.647,0,0,1,.079-.234l.279-.552h1.9l.3.577a.48.48,0,0,1,.063.2.074.074,0,0,1-.047.07.18.18,0,0,1-.078.024v.14h1.37v-.14a1.579,1.579,0,0,1-.152-.078A.272.272,0,0,1,130.405,69.813Zm-3.011-1.246.731-1.446.653,1.446Z" transform="translate(-103.218 -5.604)" fill="#00bedc"/>
        <path id="Path_62" data-name="Path 62" d="M136.813,68.775a.151.151,0,0,1,.032.093c0,.068-.051.139-.152.214a1.662,1.662,0,0,1-.377.2,3.086,3.086,0,0,1-.5.148,2.467,2.467,0,0,1-.522.059,2.074,2.074,0,0,1-.627-.093,1.529,1.529,0,0,1-.52-.273,1.323,1.323,0,0,1-.355-.439,1.411,1.411,0,0,1,0-1.191,1.323,1.323,0,0,1,.355-.439,1.549,1.549,0,0,1,.52-.273,2.11,2.11,0,0,1,.627-.094,2.187,2.187,0,0,1,.424.046,3.727,3.727,0,0,1,.436.117,1.575,1.575,0,0,1,.346.16c.094.06.145.117.155.175.006.02.009.039.012.054a.346.346,0,0,1,0,.047l.078.054.607-.942-.116-.092c-.011.015-.025.036-.043.062a.082.082,0,0,1-.066.039.7.7,0,0,1-.171-.063,3.057,3.057,0,0,0-.381-.132q-.242-.071-.564-.133a3.8,3.8,0,0,0-.72-.062,3.337,3.337,0,0,0-.942.132,2.446,2.446,0,0,0-.8.4,2.051,2.051,0,0,0-.547,2.475,1.891,1.891,0,0,0,.547.651,2.338,2.338,0,0,0,.8.384,3.506,3.506,0,0,0,.942.125,2.914,2.914,0,0,0,.715-.086,3.741,3.741,0,0,0,.612-.2c.178-.078.327-.148.443-.21a.744.744,0,0,1,.222-.093.245.245,0,0,1,.043,0,.169.169,0,0,0,.043,0l.062-.062-.514-.825Z" transform="translate(-102.337 -5.609)" fill="#00bedc"/>
        <path id="Path_63" data-name="Path 63" d="M143.443,66.2c.114,0,.171.046.171.14v1.324h-2.505V66.342a.123.123,0,0,1,.043-.1.144.144,0,0,1,.1-.035v-.141h-1.175V66.2c.1,0,.148.046.148.14v3.534c0,.093-.05.14-.148.14v.14h1.175v-.14a.144.144,0,0,1-.1-.035.126.126,0,0,1-.043-.1V68.413h2.505v1.463c0,.093-.057.14-.171.14v.14h1.2v-.14a.151.151,0,0,1-.1-.035.129.129,0,0,1-.043-.1V66.342a.126.126,0,0,1,.043-.1.151.151,0,0,1,.1-.035v-.141h-1.2Z" transform="translate(-101.418 -5.604)" fill="#00bedc"/>
        <path id="Path_64" data-name="Path 64" d="M147.852,66.2c.135,0,.2.046.2.14v3.534c0,.093-.068.14-.2.14v.14h1.292v-.14c-.134,0-.2-.046-.2-.14V66.342c0-.093.068-.14.2-.14v-.141h-1.292Z" transform="translate(-100.434 -5.604)" fill="#00bedc"/>
        <path id="Path_65" data-name="Path 65" d="M156.361,66.045a.278.278,0,0,1-.136.038h-3.455a.274.274,0,0,1-.136-.038.159.159,0,0,1-.066-.148h-.14v1.089h.14a.156.156,0,0,1,.066-.148.254.254,0,0,1,.136-.039h1.284v3.1a.129.129,0,0,1-.043.1.151.151,0,0,1-.1.035v.14h1.2v-.14c-.114,0-.171-.046-.171-.14V66.8h1.284a.257.257,0,0,1,.136.039.156.156,0,0,1,.066.148h.14V65.9h-.14A.159.159,0,0,1,156.361,66.045Z" transform="translate(-99.855 -5.625)" fill="#00bedc"/>
        <path id="Path_66" data-name="Path 66" d="M163.1,69.813l-1.619-3.168c-.036-.068-.064-.121-.082-.163a.308.308,0,0,1-.027-.124.112.112,0,0,1,.054-.113.663.663,0,0,1,.109-.043v-.141h-1.315V66.2a.454.454,0,0,1,.116.046.117.117,0,0,1,.055.109.336.336,0,0,1-.044.148c-.027.056-.061.119-.1.187l-1.44,3.028a1.63,1.63,0,0,1-.113.194.229.229,0,0,1-.159.1v.14h1.1v-.14c-.1,0-.148-.028-.148-.086a.662.662,0,0,1,.078-.234l.281-.552h1.9l.3.577a.48.48,0,0,1,.063.2.076.076,0,0,1-.047.07.185.185,0,0,1-.078.024v.14h1.37v-.14a1.577,1.577,0,0,1-.152-.078A.271.271,0,0,1,163.1,69.813Zm-3.012-1.246.731-1.446.654,1.446Z" transform="translate(-99.082 -5.604)" fill="#00bedc"/>
        <path id="Path_67" data-name="Path 67" d="M169.208,68.039v-.016a1.608,1.608,0,0,0,.536-.306.712.712,0,0,0,.225-.564.816.816,0,0,0-.155-.51,1.149,1.149,0,0,0-.412-.335,2.157,2.157,0,0,0-.591-.187,3.974,3.974,0,0,0-.693-.059h-2.436V66.2c.145,0,.219.046.219.14v3.534c0,.093-.073.14-.219.14v.14h2.856a2.406,2.406,0,0,0,.653-.081,1.474,1.474,0,0,0,.488-.231.99.99,0,0,0,.3-.346.946.946,0,0,0,.1-.431.893.893,0,0,0-.252-.682A1.541,1.541,0,0,0,169.208,68.039Zm-2.421-1.308h1.486a1.609,1.609,0,0,1,.58.09.425.425,0,0,1,0,.755,1.609,1.609,0,0,1-.58.09h-1.486Zm2.191,2.557a1.25,1.25,0,0,1-.705.152h-1.486V68.334h1.486a1.25,1.25,0,0,1,.705.152.484.484,0,0,1,0,.8Z" transform="translate(-98.178 -5.604)" fill="#00bedc"/>
        <path id="Path_68" data-name="Path 68" d="M173.157,66.2c.134,0,.2.046.2.14v3.534c0,.093-.068.14-.2.14v.14h1.292v-.14c-.135,0-.2-.046-.2-.14V66.342c0-.093.068-.14.2-.14v-.141h-1.292Z" transform="translate(-97.232 -5.604)" fill="#00bedc"/>
        <path id="Path_69" data-name="Path 69" d="M147.88,32.64c-1.66-2.121-3.3-3.8-5.7-3.8-4.028,0-9.066,3.389-9.838,3.688l-1.374,3.108c2.432-1.526,7.881-4.958,11.212-4.754,1.542.093,2.816,1.372,4.259,3.158,1.622,2.007,3.35,4.49,5.786,4.345a15.346,15.346,0,0,0,5.66-1.633l1.512-2.972c-1.97,1.074-4.907,2.411-6.572,2.484C150.784,36.358,149.45,34.645,147.88,32.64Z" transform="translate(-102.57 -10.313)" fill="#00bedc"/>
        <path id="Path_70" data-name="Path 70" d="M148.953,14.624c.939.492,1.374,2.279,1.795,4.009.553,2.285,1.226,4.73,3.389,5.477,2.642.915,9.384-.818,12.468-2.078l-7.782,16.033,2.853-1.2,8.432-18.038-2.13.751c-3.638,1.282-11,3.422-13.3,2.564-1.016-.381-1.5-2.169-1.943-3.989-.528-2.175-1.074-4.424-2.839-5.341-3.195-1.657-8.7,2.09-10.232,2.951l-1.306,3.013C141.233,16.625,147.191,13.7,148.953,14.624Z" transform="translate(-101.635 -12.394)" fill="#00bedc"/>
      </g>
    </g>
    <text id="今日の八ヶ岳を_ガイドする" data-name="今日の八ヶ岳を
ガイドする" transform="translate(12.201 35.293)" fill="#00bedc" font-size="14" font-family="YuGothicUI-Bold, Yu Gothic UI" font-weight="700" letter-spacing="0.04em"><tspan x="0" y="0">今日の八ヶ岳を</tspan><tspan y="0" font-family="SegoeUI-Bold, Segoe UI"></tspan><tspan x="0" y="23">ガイドする</tspan></text>
  </g>
</svg>
