<svg id="logo1" xmlns="http://www.w3.org/2000/svg" width="112.936" height="103.766" viewBox="0 0 112.936 103.766">
  <g id="Group_3" data-name="Group 3">
    <g id="Group_2" data-name="Group 2">
      <g id="Group_1" data-name="Group 1">
        <path id="Path_1" data-name="Path 1" d="M473.869,91.664a9.748,9.748,0,0,0-.463.949l-1.156,2.655a8.584,8.584,0,0,0-.357.933l-.8-.35a13.416,13.416,0,0,1,.2,2.317,3.656,3.656,0,0,0-1.249.141,10.379,10.379,0,0,0-.354-3.178,6.48,6.48,0,0,0-.982-2.215l.533-1.224a7.785,7.785,0,0,0,2.473-.955,9.237,9.237,0,0,0,2.391-1.921,3.671,3.671,0,0,0,.835,1.061,13.383,13.383,0,0,1-1.864,1.44Zm-1.378.465c.108-.247.161-.37.24-.581a9.018,9.018,0,0,1-2.758,1.162,9.771,9.771,0,0,1,1.047,2.769c.1-.211.153-.325.261-.571Zm3.609-1.317c.063.137.215.461.316.652l1.579,2.953c.217.4.382.668.6,1.008l-1.12.859a8.025,8.025,0,0,0-.486-1.105L475.7,92.683l-1.936,4.444c-.17.391-.324.8-.471,1.251l-1.121-.488a12.76,12.76,0,0,0,.6-1.207l1.962-4.507a5.909,5.909,0,0,0,.393-1.042Z" transform="translate(-468.708 -55.311)" fill="#fff"/>
        <path id="Path_2" data-name="Path 2" d="M475.012,83.98c-.337-.244-.658-.45-.97-.633a8.8,8.8,0,0,0,.751-.94l3.067-4.226a8.1,8.1,0,0,0,.633-.97,9.589,9.589,0,0,0,.867.7l5.627,4.08a11.1,11.1,0,0,0,1.1.726l-.758,1.046-.527-.383-2.94,4.054.527.383-.758,1.046a11.128,11.128,0,0,0-1.023-.826Zm2.782.506,2.94-4.054-2.028-1.47-2.94,4.054Zm3.145,2.281,2.94-4.054L481.653,81.1l-2.94,4.054Z" transform="translate(-469.053 -54.56)" fill="#fff"/>
        <path id="Path_3" data-name="Path 3" d="M489.8,75.481a2.49,2.49,0,0,1-.56,2.441c-.871.778-2.253.477-3.315-.713A4.532,4.532,0,0,1,485,72.521a5.3,5.3,0,0,1,1.572-2.186,3.886,3.886,0,0,1,5.636.177,4.272,4.272,0,0,1,.671,5,2.651,2.651,0,0,1-.439.722c-.1.09-.172.094-.423.032a2.355,2.355,0,0,0-1-.056c1.329-1.985,1.383-3.493.172-4.85a2.63,2.63,0,0,0-2.286-.924,2.833,2.833,0,0,0-1.31.522A12.212,12.212,0,0,1,489.8,75.481Zm-3.853-1.888a3.493,3.493,0,0,0,.892,2.77c.576.644,1.122.834,1.474.521.419-.374.33-1.334-.241-2.614a14.147,14.147,0,0,0-1.39-2.418A3.24,3.24,0,0,0,485.945,73.593Z" transform="translate(-469.744 -54.042)" fill="#fff"/>
        <path id="Path_4" data-name="Path 4" d="M498.083,61.571a12.115,12.115,0,0,0,1.066-.646c.072.152.1.211.165.32a13.14,13.14,0,0,0,2.512,3.007,8.731,8.731,0,0,0,4.02,2.141,5.146,5.146,0,0,0-.4,1.4,10.628,10.628,0,0,1-4.138-2.281,16.253,16.253,0,0,1-1.9-1.985c-.048-.064-.3-.374-.742-.961l-1.323.737a11.255,11.255,0,0,0-.963.6l-.612-1.1a10.675,10.675,0,0,0,1.046-.519Zm-.723,2.369c.046.129.058.173.121.331a15.61,15.61,0,0,1,.869,3.011,10.82,10.82,0,0,1,.125,3.22,7.719,7.719,0,0,1-.283,1.339,4.626,4.626,0,0,0-1.4-.34,6.34,6.34,0,0,0,.414-2.184,10.076,10.076,0,0,0-.974-4.559,2.268,2.268,0,0,0-.179-.273Z" transform="translate(-470.46 -53.505)" fill="#fff"/>
        <path id="Path_5" data-name="Path 5" d="M509.655,61.747a4.241,4.241,0,0,1-.726,1.736c-.064.02-.1.019-.336-.062a2.873,2.873,0,0,0-.766-.129,6.222,6.222,0,0,0,.841-2.276,5.515,5.515,0,0,0,.008-1.891,5.829,5.829,0,0,1,1.089.031c.195.022.265.06.284.124s.012.078-.047.19a1.585,1.585,0,0,0-.093.58c-.024.266-.025.3-.051.567l.762-.233c.065-.02.888-.283,2.476-.8.14-.043.415-.139.832-.313l.053-.016c.139-.043.177.039.412.812.052.172.034.225-.1.265l-.053.016c-.11.022-.783.2-.912.244l-.976.3a5.964,5.964,0,0,1,.031,3.476,3.42,3.42,0,0,1-1.047,1.528c-.086.026-.136.018-.261-.049a3.449,3.449,0,0,0-.9-.265,4.022,4.022,0,0,0,1.045-4.332C510.929,61.345,510.4,61.506,509.655,61.747Z" transform="translate(-471.242 -53.387)" fill="#fff"/>
        <path id="Path_6" data-name="Path 6" d="M526.782,58.19a8.3,8.3,0,0,0,1.167-.173l.108,1.184a8.911,8.911,0,0,0-1.179.039l-3.14.285.195,2.145,2.29-.208-.094-1.028a4.506,4.506,0,0,0-.107-.689l1.23-.111a5.236,5.236,0,0,0,.021.866l.132,1.451a6.947,6.947,0,0,0,.15,1.034l-1.184.108-.053-.592-5.609.509.052.581-1.184.108a5.535,5.535,0,0,0-.028-1.057l-.131-1.441a4.8,4.8,0,0,0-.133-.845l1.229-.111a3.682,3.682,0,0,0,.017.686l.094,1.039,2.145-.195-.195-2.145-2.983.271a9.071,9.071,0,0,0-1.178.174l-.107-1.184a8.527,8.527,0,0,0,1.19-.04l.458-.042-.312-3.442a8.653,8.653,0,0,0-.136-1,21.486,21.486,0,0,0,6.342-1.375l.751,1.081c-1.638.453-1.638.453-2.256.587-1.17.265-2.357.473-3.581.641l.074.816,5.442-.493a7.36,7.36,0,0,0,1.09-.155l.1,1.15a7.575,7.575,0,0,0-1.1.044l-.973.088.141,1.552Zm-2.5-1.339-3.352.3.141,1.553,3.352-.3Z" transform="translate(-471.92 -52.991)" fill="#fff"/>
        <path id="Path_7" data-name="Path 7" d="M535.826,60.086c-1.182.509-1.534.793-1.595,1.282a.465.465,0,0,0,.191.465,3.512,3.512,0,0,0,1.464.408,16.909,16.909,0,0,0,2.02.116,7.254,7.254,0,0,0,.835-.077l.056.007a.188.188,0,0,1,.15.154,3.649,3.649,0,0,1-.009.983c-.021.166-.084.226-.233.241a20.723,20.723,0,0,1-2.331-.165,7,7,0,0,1-2.577-.638,1.484,1.484,0,0,1-.786-1.589,2.139,2.139,0,0,1,1.112-1.581,9.382,9.382,0,0,1,1.743-.834c-.044-.379-.191-.555-.537-.6a2.7,2.7,0,0,0-1.523.341,7.594,7.594,0,0,0-1.031.652c-.377.3-.413.322-.5.311-.111-.014-.313-.3-.5-.717a1.114,1.114,0,0,1-.127-.434c.013-.1.037-.12.326-.253a6.89,6.89,0,0,0,2.4-1.928c-.8-.043-1.21-.082-1.644-.137-.166-.021-.2-.058-.228-.254a9.481,9.481,0,0,1,.028-1.047,6.738,6.738,0,0,0,1.127.208c.434.054.915.1,1.418.142a4.362,4.362,0,0,0,.517-1.518c.97.29,1.406.513,1.381.7a.277.277,0,0,1-.061.128,6.964,6.964,0,0,0-.395.629.355.355,0,0,0-.043.073c.645-.01,1.216-.052,1.616-.093a1.525,1.525,0,0,1,.367-.034.142.142,0,0,1,.143.12,6.607,6.607,0,0,1,0,.882c-.015.123-.066.172-.215.188a22.95,22.95,0,0,1-2.653.065,6.293,6.293,0,0,1-1.08,1.234,2.942,2.942,0,0,1,1.364-.158c.5.062.8.393.945,1.044,1.176-.464,1.807-.713,1.879-.749a3.418,3.418,0,0,0,1.061-.626,4.126,4.126,0,0,1,.777,1.476c-.008.066-.059.106-.208.122a22.885,22.885,0,0,0-3.425,1c-.013.2-.055.716-.1,1.073-.007.056-.019.145-.029.234l-.014.111-.023.189c-.017.134-.048.2-.108.224a1.651,1.651,0,0,1-.7,0c-.379-.047-.441-.089-.419-.267l.006-.045c.062-.32.126-.742.159-1.008Z" transform="translate(-472.785 -53.032)" fill="#fff"/>
        <path id="Path_8" data-name="Path 8" d="M549.094,60.449a7.6,7.6,0,0,1-4.4,3.986,2.676,2.676,0,0,1-1,.181c-.074-.026-.1-.073-.155-.2a3.786,3.786,0,0,0-.611-1.028,5.434,5.434,0,0,0,3.376-1.383,6.68,6.68,0,0,0,1.5-2c-.222-.079-.38-.136-.5-.176a9.717,9.717,0,0,0-1.87-.536c-.11-.027-.156-.032-.177-.039a.219.219,0,0,1-.162-.248,11.393,11.393,0,0,1,.288-1.244,20.811,20.811,0,0,0,2.56,1.043l.37.132c.171-.415.273-.666.394-1a5.461,5.461,0,0,0,.263-.907c1.208.49,1.5.677,1.431.868-.015.042-.015.042-.131.167a3.328,3.328,0,0,0-.48.878c-.079.186-.122.278-.2.464l1.576.562a2.86,2.86,0,0,0,.575.157,2.9,2.9,0,0,0,.4-.013.543.543,0,0,1,.144.028c.17.06.284.208.464.606s.239.6.191.735c-.034.1-.041.116-.28.353a2.228,2.228,0,0,0-.277.51,14.773,14.773,0,0,1-1.942,3.646,1.378,1.378,0,0,1-1.092.456,2.961,2.961,0,0,1-1.117-.242c-.7-.25-.782-.314-.738-.573a3.688,3.688,0,0,0,.027-1.146,5.406,5.406,0,0,0,1.017.492c.613.219.823.2,1.089-.112a15.042,15.042,0,0,0,1.788-3.581Zm3.788-.3a4.886,4.886,0,0,0-.43-1.333c-.041-.086-.037-.1-.026-.128.02-.053.109-.1.338-.179.2-.06.289-.075.342-.056.1.034.16.152.326.521a2.76,2.76,0,0,1,.32,1.008,1.255,1.255,0,0,1-.794.289C552.916,60.261,552.9,60.232,552.882,60.153Zm1.76-.29a.737.737,0,0,1-.327.05c-.042-.015-.06-.033-.072-.133a5.634,5.634,0,0,0-.463-1.309.171.171,0,0,1-.023-.1,1.208,1.208,0,0,1,.69-.2c.074.026.187.21.323.5a2.82,2.82,0,0,1,.3.989C555.05,59.722,554.935,59.776,554.642,59.863Z" transform="translate(-473.516 -53.252)" fill="#fff"/>
        <path id="Path_9" data-name="Path 9" d="M560.681,68.681c-.747,1.2-1.28,2.1-1.646,2.772l-.041.066c-.065.1-.118.125-.22.076a7.072,7.072,0,0,1-.868-.475c-.3-.184-.312-.222-.212-.383l.031-.048c.34-.462,1.036-1.537,1.784-2.737l.784-1.259a18.561,18.561,0,0,1-2.074-.048,4.98,4.98,0,0,1-1.458-.208.291.291,0,0,1-.136-.229,4.2,4.2,0,0,0-.367-1.2,15.5,15.5,0,0,0,3.583.407,15.3,15.3,0,0,0,4.2-.585,2.868,2.868,0,0,0,.593-.253,2.885,2.885,0,0,1,.419,1.624c-.036.057-.1.08-.248.057a2.979,2.979,0,0,0-1.007.088c-.651.11-1.269.189-1.813.234Z" transform="translate(-474.379 -53.742)" fill="#fff"/>
        <path id="Path_10" data-name="Path 10" d="M567.894,74.39c-.469.513-1.68,1.885-2.02,2.289l-.037.041c-.068.075-.139.118-.2.1a2.59,2.59,0,0,1-.778-.545c-.266-.243-.292-.313-.14-.479l.03-.033c.213-.2,2.429-2.57,3.323-3.546a28.1,28.1,0,0,0,2.583-3,9.679,9.679,0,0,1,1,1.123c.068.093.071.172.01.238a.805.805,0,0,1-.208.161,1.774,1.774,0,0,0-.376.295c-.015.016-.486.5-1.4,1.451a11.819,11.819,0,0,1,.661,1.138,16.55,16.55,0,0,1,1.218,2.758.226.226,0,0,1-.029.232,4.153,4.153,0,0,1-.948.47c-.2.08-.275.084-.324.038a.335.335,0,0,1-.079-.179,12.291,12.291,0,0,0-1.424-3.48Zm4.418-.687a5.4,5.4,0,0,0,.144-1.4c0-.088,0-.1.019-.121.046-.049.133-.061.388-.025a.622.622,0,0,1,.337.081c.075.068.089.2.092.615a2.843,2.843,0,0,1-.113,1.053,1.262,1.262,0,0,1-.845-.058C572.3,73.815,572.292,73.775,572.313,73.7Zm1.726.44a.745.745,0,0,1-.329-.089c-.024-.022-.026-.054-.015-.15a5.439,5.439,0,0,0,.123-1.38.162.162,0,0,1,.019-.1,1.134,1.134,0,0,1,.7.1c.042.037.068.108.083.258a3.767,3.767,0,0,1-.115,1.355C574.462,74.179,574.35,74.185,574.039,74.143Z" transform="translate(-474.921 -54.042)" fill="#fff"/>
        <path id="Path_11" data-name="Path 11" d="M579.278,82.343a23.211,23.211,0,0,0-2.739-3.11.579.579,0,0,1-.09-.088.2.2,0,0,1,.016-.23,4.409,4.409,0,0,1,.882-.855c.077.11.129.183.154.221.207.294.411.562,1.086,1.4.515.654.95,1.212,1.559,2.019a7.064,7.064,0,0,0,1.3-1.064,5.97,5.97,0,0,1,.74,1.263c.011.075-.016.135-.107.2a.389.389,0,0,1-.12.044,3.254,3.254,0,0,0-1.063.556c.98,1.314,1.122,1.516,1.77,2.433.174.249.2.285.192.332-.011.063-.136.178-.447.4-.422.3-.475.321-.558.2l-.026-.037c-.241-.42-.9-1.428-1.349-2.071-.149-.21-.149-.21-.482-.663l-1.517,1.042a2.667,2.667,0,0,1-.872.888,3.8,3.8,0,0,1-3.6.575,3.281,3.281,0,0,1-1.219-.638.313.313,0,0,1-.041-.273,3.115,3.115,0,0,0,.074-1.22,5.094,5.094,0,0,0,1.346.837,4.351,4.351,0,0,0,1.038.284,3.033,3.033,0,0,0,.824-.058,1.258,1.258,0,0,1-.959-.561,1.6,1.6,0,0,1,.579-2.316,1.806,1.806,0,0,1,2.617.284,1.672,1.672,0,0,1,.314.7Zm-2.929.4a.7.7,0,0,0-.264,1.009.7.7,0,0,0,1.064.088c.431-.3.537-.68.291-1.029A.746.746,0,0,0,576.349,82.746Z" transform="translate(-475.445 -54.615)" fill="#fff"/>
        <path id="Path_12" data-name="Path 12" d="M585.355,95.691A2.549,2.549,0,0,1,584,99.19a2.94,2.94,0,0,1-2.907-.375,4.47,4.47,0,0,1-1.421-1.91c-.552-1.314-.344-2.3.556-2.678a1.6,1.6,0,0,1,2.09,1.07,2.2,2.2,0,0,1-.543,2.5,1.671,1.671,0,0,0,1.657.181,1.576,1.576,0,0,0,.789-2.241,4.76,4.76,0,0,0-2.665-2.41,6.528,6.528,0,0,0-.792-.264c-.134-.029-.2-.064-.223-.126a2.349,2.349,0,0,1,.524-1.3c.094-.039.163-.02.424.138.286.16.729.376,1.325.637a32.953,32.953,0,0,0,4.257,1.536,18.826,18.826,0,0,0-1.466-2.305.8.8,0,0,1-.068-.1c-.035-.082,0-.156.124-.283a3.863,3.863,0,0,1,1.016-.682,4.8,4.8,0,0,0,.243.726c.209.5.632,1.3,1.212,2.338a2.663,2.663,0,0,0,.52.719.493.493,0,0,1,.138.184c.061.146,0,.342-.3.785-.187.31-.3.428-.378.463-.135.056-.189.042-.429-.124a3.038,3.038,0,0,0-.66-.355c-.714-.31-.718-.32-1.639-.688-.656-.259-.729-.29-1.318-.53A3.835,3.835,0,0,1,585.355,95.691Zm-4,.508a1,1,0,0,0-.066-.593c-.134-.321-.376-.463-.625-.358-.3.125-.352.525-.143,1.021a2.539,2.539,0,0,0,.38.643A1.2,1.2,0,0,0,581.359,96.2Z" transform="translate(-475.876 -55.425)" fill="#fff"/>
      </g>
    </g>
  </g>
  <g id="Group_5" data-name="Group 5" transform="translate(2.568 30.905)">
    <g id="Group_4" data-name="Group 4">
      <path id="Path_13" data-name="Path 13" d="M471.454,154.057l3.647-.1c7.527-5.645,12.577-14.188,12.577-14.188l-3.239.546A65.058,65.058,0,0,1,471.454,154.057Z" transform="translate(-471.454 -89.517)" fill="#fff"/>
      <path id="Path_14" data-name="Path 14" d="M522.278,139.21c.717-1.284,1.294-2.437,1.723-3.343l6.418-.937.531-2.053-6.052.955,0-.006-1.27.2-9.791,1.544-.628,1.866,7.918-1.155c-.411.882-.985,2.01-1.731,3.275l-7.26.887-.646,1.922,6.579-.706a35.328,35.328,0,0,1-7.9,8.441l3.672-.173a36.265,36.265,0,0,0,7.168-8.585l7.964-.854.558-2.172Z" transform="translate(-473.962 -89.07)" fill="#fff"/>
      <path id="Path_15" data-name="Path 15" d="M510.394,92.665l-17.7,39.521,2.7-.521,18.19-40.523Z" transform="translate(-472.83 -86.367)" fill="#fff"/>
      <path id="Path_16" data-name="Path 16" d="M564.85,136.977a10.94,10.94,0,0,0,2.838-4.985l-2.514.336a9.088,9.088,0,0,1-1.8,2.949C563.785,135.77,564.121,136.215,564.85,136.977Z" transform="translate(-477.408 -89.013)" fill="#fff"/>
      <path id="Path_17" data-name="Path 17" d="M548.661,136.5h0c.181-.455.272-.721.272-.721l-2.665.325s-.1.265-.308.713l-3.28.386a40.245,40.245,0,0,0,2.387-4.75l4.962-.725.893-2.167-5.108.809.953-2.859-2.664.468-.937,2.811-5.723.906-.451,1.936,5.333-.779a38.815,38.815,0,0,1-11.931,14.49l3.935-.22a35.864,35.864,0,0,0,7.083-7.9l3.519-.37a37.89,37.89,0,0,1-5.894,8.006l3.318-.2a36.905,36.905,0,0,0,6.293-10.136Z" transform="translate(-475.271 -88.723)" fill="#fff"/>
      <path id="Path_18" data-name="Path 18" d="M564.227,137.728c-.716-.755-1.264-1.39-1.629-1.833s-.542-.685-.542-.685l-2.589.295.3-2.469c.567-1.044,1.042-2.02,1.422-2.889l7.192-1.051.171-2.265-11.626,1.846c.426-1.075.8-2.144,1.085-3.115l-2.354.412a36.288,36.288,0,0,1-4.813,9.558l2.63-.321a21.915,21.915,0,0,0,2.494-4.3l2.432-.355c-1.415,4.038-4.913,8.68-9.73,12.711l3.723-.325a36.215,36.215,0,0,0,4.179-4.842l-1.188,9.524,2.65-.124,1.424-11.887c.181.265.775,1.105,1.767,2.277.459.543,1,1.155,1.628,1.81,2.778,2.911,8.052,7.207,16.876,10.684l6.237-.166C573.342,146.2,567.234,140.892,564.227,137.728Z" transform="translate(-476.455 -88.596)" fill="#fff"/>
      <path id="Path_19" data-name="Path 19" d="M497.767,138.379a26.84,26.84,0,0,0,5.369,12.364l3.52-.166a25.425,25.425,0,0,1-6.088-12.642Z" transform="translate(-473.158 -89.398)" fill="#fff"/>
      <path id="Path_20" data-name="Path 20" d="M493.057,159.134c.129,0,.194.052.194.158v1.494h-2.827v-1.494a.14.14,0,0,1,.049-.118.163.163,0,0,1,.109-.04v-.158h-1.326v.158c.111,0,.167.052.167.158v3.987c0,.106-.055.158-.167.158v.158h1.326v-.158a.162.162,0,0,1-.109-.039.144.144,0,0,1-.049-.119v-1.651h2.827v1.651c0,.106-.065.158-.194.158v.158h1.352v-.158a.166.166,0,0,1-.109-.039.146.146,0,0,1-.049-.119v-3.987a.143.143,0,0,1,.049-.118.167.167,0,0,1,.109-.04v-.158h-1.352Z" transform="translate(-472.607 -90.761)" fill="#fff"/>
      <path id="Path_21" data-name="Path 21" d="M503.9,163.209l-1.827-3.574c-.041-.076-.072-.137-.093-.184a.359.359,0,0,1-.03-.14.128.128,0,0,1,.061-.127.753.753,0,0,1,.124-.049v-.158h-1.484v.158a.576.576,0,0,1,.132.052.132.132,0,0,1,.062.123.386.386,0,0,1-.049.167c-.032.064-.069.135-.109.21L499.06,163.1a1.832,1.832,0,0,1-.128.219.253.253,0,0,1-.18.114v.158H500v-.158c-.111,0-.167-.032-.167-.1a.737.737,0,0,1,.088-.264l.316-.624h2.143l.334.651a.546.546,0,0,1,.07.227.083.083,0,0,1-.053.079.193.193,0,0,1-.087.027v.158h1.545v-.158c-.065-.029-.122-.059-.171-.087A.3.3,0,0,1,503.9,163.209Zm-3.4-1.406.825-1.633.738,1.633Z" transform="translate(-473.222 -90.761)" fill="#fff"/>
      <path id="Path_22" data-name="Path 22" d="M512.734,162.029a.164.164,0,0,1,.036.106c0,.076-.057.156-.172.241a1.863,1.863,0,0,1-.426.227,3.313,3.313,0,0,1-.562.167,2.8,2.8,0,0,1-.588.066,2.366,2.366,0,0,1-.707-.106,1.753,1.753,0,0,1-.588-.308,1.5,1.5,0,0,1-.4-.5,1.593,1.593,0,0,1,0-1.344,1.509,1.509,0,0,1,.4-.5,1.754,1.754,0,0,1,.588-.308,2.344,2.344,0,0,1,1.186-.052,4.031,4.031,0,0,1,.492.132,1.792,1.792,0,0,1,.39.18c.106.067.164.133.176.2a.484.484,0,0,1,.013.061.258.258,0,0,1,0,.053l.088.061.685-1.062-.131-.1c-.012.017-.028.041-.049.069a.09.09,0,0,1-.075.045.8.8,0,0,1-.193-.071,3.738,3.738,0,0,0-.43-.149c-.182-.053-.394-.1-.637-.15a4.318,4.318,0,0,0-.813-.07,3.773,3.773,0,0,0-1.062.149,2.766,2.766,0,0,0-.9.448,2.316,2.316,0,0,0-.618,2.793,2.155,2.155,0,0,0,.618.734,2.651,2.651,0,0,0,.9.434,3.983,3.983,0,0,0,1.062.14,3.308,3.308,0,0,0,.808-.1,4.313,4.313,0,0,0,.689-.228c.2-.088.368-.166.5-.238a.805.805,0,0,1,.251-.1.369.369,0,0,1,.048,0,.2.2,0,0,0,.049,0l.07-.07-.58-.931Z" transform="translate(-473.835 -90.757)" fill="#fff"/>
      <path id="Path_23" data-name="Path 23" d="M521.893,159.134c.128,0,.193.052.193.158v1.494h-2.827v-1.494a.14.14,0,0,1,.049-.118.164.164,0,0,1,.109-.04v-.158h-1.325v.158c.111,0,.166.052.166.158v3.987c0,.106-.055.158-.166.158v.158h1.325v-.158a.163.163,0,0,1-.109-.039.144.144,0,0,1-.049-.119v-1.651h2.827v1.651c0,.106-.064.158-.193.158v.158h1.351v-.158a.166.166,0,0,1-.109-.039.146.146,0,0,1-.048-.119v-3.987a.143.143,0,0,1,.048-.118.167.167,0,0,1,.109-.04v-.158h-1.351Z" transform="translate(-474.475 -90.761)" fill="#fff"/>
      <path id="Path_24" data-name="Path 24" d="M528.662,159.134c.152,0,.229.052.229.158v3.987c0,.106-.077.158-.229.158v.158h1.458v-.158c-.151,0-.228-.052-.228-.158v-3.987c0-.106.077-.158.228-.158v-.158h-1.458Z" transform="translate(-475.159 -90.761)" fill="#fff"/>
      <path id="Path_25" data-name="Path 25" d="M539.319,158.918a.309.309,0,0,1-.153.043h-3.9a.313.313,0,0,1-.154-.043.181.181,0,0,1-.075-.166h-.158v1.229h.158a.181.181,0,0,1,.075-.167.3.3,0,0,1,.154-.044h1.449v3.495a.143.143,0,0,1-.049.119.166.166,0,0,1-.109.039v.158h1.352v-.158c-.129,0-.194-.052-.194-.158V159.77h1.45a.3.3,0,0,1,.153.044.179.179,0,0,1,.075.167h.158v-1.229h-.158A.179.179,0,0,1,539.319,158.918Z" transform="translate(-475.562 -90.746)" fill="#fff"/>
      <path id="Path_26" data-name="Path 26" d="M548.333,163.209l-1.826-3.574c-.041-.076-.072-.137-.093-.184a.363.363,0,0,1-.03-.14.128.128,0,0,1,.061-.127.75.75,0,0,1,.123-.049v-.158h-1.484v.158a.577.577,0,0,1,.132.052.132.132,0,0,1,.062.123.386.386,0,0,1-.049.167c-.032.064-.069.135-.109.21l-1.625,3.416a1.84,1.84,0,0,1-.128.219.253.253,0,0,1-.18.114v.158h1.247v-.158c-.111,0-.167-.032-.167-.1a.737.737,0,0,1,.088-.264l.316-.624h2.143l.333.651a.534.534,0,0,1,.071.227.084.084,0,0,1-.053.079.194.194,0,0,1-.087.027v.158h1.545v-.158c-.065-.029-.122-.059-.171-.087A.3.3,0,0,1,548.333,163.209Zm-3.4-1.406.825-1.633.738,1.633Z" transform="translate(-476.1 -90.761)" fill="#fff"/>
      <path id="Path_27" data-name="Path 27" d="M556.872,161.207v-.018a1.8,1.8,0,0,0,.606-.346.8.8,0,0,0,.253-.637.927.927,0,0,0-.175-.575,1.28,1.28,0,0,0-.466-.377,2.39,2.39,0,0,0-.668-.211,4.438,4.438,0,0,0-.781-.066h-2.749v.158c.164,0,.247.052.247.158v3.987c0,.106-.083.158-.247.158v.158h3.223a2.725,2.725,0,0,0,.737-.092,1.684,1.684,0,0,0,.55-.26,1.122,1.122,0,0,0,.338-.391,1.055,1.055,0,0,0,.114-.487,1,1,0,0,0-.285-.768A1.726,1.726,0,0,0,556.872,161.207Zm-2.732-1.475h1.678a1.792,1.792,0,0,1,.654.1.478.478,0,0,1,0,.851,1.811,1.811,0,0,1-.654.1h-1.678Zm2.472,2.884a1.4,1.4,0,0,1-.794.172h-1.678v-1.249h1.678a1.407,1.407,0,0,1,.794.172.544.544,0,0,1,0,.9Z" transform="translate(-476.729 -90.761)" fill="#fff"/>
      <path id="Path_28" data-name="Path 28" d="M563.053,159.134c.152,0,.228.052.228.158v3.987c0,.106-.076.158-.228.158v.158h1.458v-.158c-.152,0-.229-.052-.229-.158v-3.987c0-.106.077-.158.229-.158v-.158h-1.458Z" transform="translate(-477.387 -90.761)" fill="#fff"/>
      <path id="Path_29" data-name="Path 29" d="M524.8,112.677c-1.874-2.393-3.726-4.282-6.434-4.282-4.545,0-10.23,3.823-11.1,4.162l-1.551,3.506c2.744-1.722,8.892-5.594,12.651-5.364,1.74.107,3.177,1.549,4.806,3.564,1.83,2.264,3.78,5.065,6.528,4.9a17.319,17.319,0,0,0,6.386-1.842l1.706-3.354c-2.223,1.211-5.537,2.721-7.415,2.8C528.073,116.872,526.568,114.939,524.8,112.677Z" transform="translate(-473.673 -87.485)" fill="#fff"/>
      <path id="Path_30" data-name="Path 30" d="M527.712,88.554c1.061.555,1.552,2.571,2.026,4.524.625,2.577,1.382,5.336,3.823,6.18,2.981,1.031,10.588-.923,14.068-2.346L538.848,115l3.22-1.354,9.514-20.352-2.4.847c-4.106,1.447-12.417,3.862-15.009,2.893-1.148-.428-1.7-2.447-2.194-4.5-.595-2.454-1.21-4.991-3.2-6.026-3.6-1.87-9.815,2.358-11.544,3.33l-1.473,3.4C519,90.811,525.726,87.515,527.712,88.554Z" transform="translate(-474.323 -86.036)" fill="#fff"/>
    </g>
  </g>
</svg>
